<svg xmlns="http://www.w3.org/2000/svg" xmlns:xlink="http://www.w3.org/1999/xlink" width="201.078" height="45.906" viewBox="0 0 201.078 45.906">
  <defs>
    <clipPath id="clip-path">
      <path id="Path_138" data-name="Path 138" d="M535.995,463.095a24.466,24.466,0,0,1-3.535,3.244c.227.758,1.229,3.6,3.466,3.6,2.622,0,4.221-3.645,4.236-3.681l.006-.014h0l0,.009.01-.017-.006.008c.128-.277,3.093-6.835,1.7-12.552a31.227,31.227,0,0,1-5.877,9.4m7.678-7.862v.484c-.009,1.833-.033,6.7,1.734,8.465a2.083,2.083,0,0,0,1.555.642.191.191,0,0,1,.034,0l.015,0c.07.01,1.724.225,2.153-2.314-.215-.827-1.923-7.048-5.315-9.779a15.649,15.649,0,0,0-.176,2.5m-12-.152c-2.624,1.711-3.946,3.648-3.823,5.6.11,1.762,1.456,3.459,3.6,4.551.844-.534,6.244-4.2,9.789-12.571a6.661,6.661,0,0,0-1.911-.249,14.151,14.151,0,0,0-7.658,2.667m12.947-2.893c1.257,1.115,3.841,3.955,5.31,9.407a6.656,6.656,0,0,0,1.124-2.2,4.764,4.764,0,0,0-1.466-4.845,6.847,6.847,0,0,0-4.836-2.366l-.132,0m4.3-7.922a19.008,19.008,0,0,1-4.809,6.226c1.171.233,3.666.218,5.868-3.169a5.711,5.711,0,0,0,1.137-4.274,3.568,3.568,0,0,0-1.028-1.814,18.271,18.271,0,0,1-1.168,3.031m-21.337-1.318a5.821,5.821,0,0,0,1.318,3.608,9.464,9.464,0,0,0,3.817,2.861c4.923,2.1,7.7.809,8.384.405a23.686,23.686,0,0,0-9.833-11.48c-2.348.964-3.657,2.6-3.686,4.606m18.134-5.185c-1.92,1.7-2.172,6.618-2.266,8.47l-.018.339a24.06,24.06,0,0,0,.1,3.2,19.3,19.3,0,0,0,5.884-9.36c-.244-2.931-2.025-3.2-2.094-3.205s-.116-.006-.172-.006a2.083,2.083,0,0,0-1.43.558m-11.6-3.369a5.38,5.38,0,0,0-1.913,2.933,23.987,23.987,0,0,1,7.723,7.849,23.536,23.536,0,0,1,1.79,3.552,9.69,9.69,0,0,0,.233-2.2c-.124-6.836-2.35-11.595-5.809-12.421a3.052,3.052,0,0,0-.709-.087,2.444,2.444,0,0,0-1.316.375" transform="translate(-527.58 -434.018)" fill="none"/>
    </clipPath>
    <clipPath id="clip-path-2">
      <path id="Path_137" data-name="Path 137" d="M527.38,433.135l24,.205.029,36.127-24-.205Z" transform="translate(-527.38 -433.135)" fill="none"/>
    </clipPath>
  </defs>
  <g id="Group_6729" data-name="Group 6729" transform="translate(-527.58 -434.018)">
    <g id="Group_1" data-name="Group 1" transform="translate(671.945 441.94)">
      <path id="Path_1" data-name="Path 1" d="M1162.772,477.539l-.171-.058a4.379,4.379,0,0,0,2.268-4.07c0-3.169-2.471-5.32-5.96-5.32h-10.023a.388.388,0,0,0-.387.388v19.574a.388.388,0,0,0,.387.388h9.584c4.8,0,7.326-2.064,7.326-6.1a4.889,4.889,0,0,0-3.023-4.8m-10.52-6.506h5.944c2.14,0,3.307.61,3.307,2.337,0,1.969-1.112,2.953-3.307,2.993h-5.944a.388.388,0,0,1-.387-.388V471.42a.387.387,0,0,1,.387-.387m6.025,14.457h-6.029a.387.387,0,0,1-.387-.387V479.7a.388.388,0,0,1,.388-.387h6.084c2.873.038,4.1.845,4.1,3.121,0,1.974-1.255,3.059-4.156,3.059" transform="translate(-1148.499 -468.091)" fill="#002e6d"/>
    </g>
    <g id="Group_2" data-name="Group 2" transform="translate(689.434 441.94)">
      <path id="Path_2" data-name="Path 2" d="M1241.651,468.3l-6.686,12.728a.388.388,0,0,1-.686,0l-6.692-12.729a.387.387,0,0,0-.343-.207h-3.234a.29.29,0,0,0-.256.428l10.534,19.717a.387.387,0,0,0,.683,0l10.535-19.717a.29.29,0,0,0-.256-.428h-3.257a.389.389,0,0,0-.343.207" transform="translate(-1223.72 -468.092)" fill="#002e6d"/>
    </g>
    <g id="Group_3" data-name="Group 3" transform="translate(650.899 441.94)">
      <path id="Path_3" data-name="Path 3" d="M1072.254,477.539l-.171-.058a4.379,4.379,0,0,0,2.267-4.07c0-3.169-2.471-5.32-5.959-5.32h-10.023a.388.388,0,0,0-.388.388v19.574a.388.388,0,0,0,.388.388h9.583c4.8,0,7.326-2.064,7.326-6.1a4.889,4.889,0,0,0-3.023-4.8m-10.52-6.506h5.944c2.14,0,3.307.61,3.307,2.337,0,1.969-1.111,2.953-3.307,2.993h-5.944a.388.388,0,0,1-.387-.388V471.42a.388.388,0,0,1,.388-.387m6.025,14.457h-6.029a.388.388,0,0,1-.387-.387V479.7a.388.388,0,0,1,.387-.387h6.084c2.874.038,4.1.845,4.1,3.121,0,1.974-1.255,3.059-4.157,3.059" transform="translate(-1057.98 -468.091)" fill="#002e6d"/>
    </g>
    <g id="Group_4" data-name="Group 4" transform="translate(706.836 438.99)">
      <path id="Path_4" data-name="Path 4" d="M1302.455,475.544l6.686-12.728a.387.387,0,0,1,.685,0l6.692,12.729a.388.388,0,0,0,.343.206h3.234a.29.29,0,0,0,.256-.428l-10.534-19.717a.387.387,0,0,0-.683,0L1298.6,475.323a.29.29,0,0,0,.256.428h3.257a.387.387,0,0,0,.343-.207" transform="translate(-1298.564 -455.401)" fill="#002e6d"/>
    </g>
    <g id="Group_5" data-name="Group 5" transform="translate(638.327 441.956)">
      <path id="Path_5" data-name="Path 5" d="M1007.811,470.111a1.957,1.957,0,0,0-3.337-1.383,1.717,1.717,0,0,0-.506.849,2.133,2.133,0,0,0-.064.534,1.885,1.885,0,0,0,.57,1.383,1.964,1.964,0,0,0,2.768,0,1.877,1.877,0,0,0,.569-1.383" transform="translate(-1003.904 -468.158)" fill="#231f20"/>
    </g>
    <g id="Group_6" data-name="Group 6" transform="translate(637.959 447.231)">
      <path id="Path_6" data-name="Path 6" d="M1006.752,505.936a13.155,13.155,0,0,1-.277-3.793v-8.083c0-1.689.164-3.212-1.441-3.212a7.478,7.478,0,0,0-2.711,1c.619.412.857,1.236.857,3.017v7.308c0,2.107-.01,3.273-.278,3.765Z" transform="translate(-1002.323 -490.849)" fill="#231f20"/>
    </g>
    <g id="Group_7" data-name="Group 7" transform="translate(626.701 443.688)">
      <path id="Path_7" data-name="Path 7" d="M960.215,494.542a3.851,3.851,0,0,1-3.294-1.384,6.126,6.126,0,0,1-.72-3.46v-8.222h-2.3v-1.8l2.3-.277.249-3.571,3.045-.221v3.821h3.766v2.048h-3.766v8.333c0,1.578.664,2.354,1.939,2.354a5.264,5.264,0,0,0,2.463-.637l.277,1.939a8.622,8.622,0,0,1-3.959,1.079" transform="translate(-953.903 -475.607)" fill="#231f20"/>
    </g>
    <g id="Group_8" data-name="Group 8" transform="translate(575.042 447.12)">
      <path id="Path_8" data-name="Path 8" d="M740.409,502.468a4.677,4.677,0,0,1-2.907,1.107c-1.495,0-2.436-.637-2.436-2.214,0-2.326,2.187-3.876,5.344-3.046Zm3.6,3.1a15.7,15.7,0,0,1-.277-3.4v-6.34c0-4.125-1.855-5.454-5.842-5.454a10.018,10.018,0,0,0-4.291.97l-.387,2.076a9.721,9.721,0,0,1,4.512-1.025c2.824,0,2.686,2.214,2.686,4.345-3.876-1.19-8.8.306-8.693,5.039.056,2.685,2.021,4.1,4.485,4.152a5.65,5.65,0,0,0,4.263-1.827l.249,1.468Z" transform="translate(-731.714 -490.371)" fill="#231f20"/>
    </g>
    <g id="Group_9" data-name="Group 9" transform="translate(611.822 447.093)">
      <path id="Path_9" data-name="Path 9" d="M899.481,505.478a7.251,7.251,0,0,0,.135-1.8c.009-.614.009-1.35.009-2.218v-5.813c0-1.993-.609-2.907-2.077-2.907a5.97,5.97,0,0,0-3.515,1.744V501.8c0,.837.013,1.611.045,2.25a9.6,9.6,0,0,0,.148,1.432H890.6a21.16,21.16,0,0,0,.166-3.572v-7.557c0-1.854-.3-2.6-.857-2.961a6.957,6.957,0,0,1,2.67-.969c1.072,0,1.315.945,1.343,2.133a7.141,7.141,0,0,1,4.761-2.3,3.959,3.959,0,0,1,3.627,1.771,3.607,3.607,0,0,1,.4,1.066,11.625,11.625,0,0,1,.214,2.478v6.173a15.608,15.608,0,0,0,.221,3.737Z" transform="translate(-889.909 -490.252)" fill="#231f20"/>
    </g>
    <g id="Group_10" data-name="Group 10" transform="translate(589.428 447.092)">
      <path id="Path_10" data-name="Path 10" d="M801.677,492.882a7.448,7.448,0,0,0-.83-.028,4.256,4.256,0,0,0-3.128,1.717v7.446a15.435,15.435,0,0,0,.193,3.46h-3.626a5.872,5.872,0,0,0,.112-.837c.053-.7.053-1.612.053-2.6v-7.7c0-1.689-.277-2.622-.863-2.962a7.066,7.066,0,0,1,2.666-.969c1.107,0,1.325,1.024,1.325,2.16a4.479,4.479,0,0,1,3.765-2.326,3.738,3.738,0,0,1,.8.084Z" transform="translate(-793.589 -490.251)" fill="#231f20"/>
    </g>
    <g id="Group_11" data-name="Group 11" transform="translate(597.479 447.12)">
      <path id="Path_11" data-name="Path 11" d="M840.509,505.569a13.034,13.034,0,0,1-.276-3.4v-6.34c0-4.124-1.839-5.454-5.826-5.454a10.082,10.082,0,0,0-4.307.953l-.387,2.093a8.172,8.172,0,0,1,1.622-.643,10.713,10.713,0,0,1,2.89-.382c2.824,0,2.685,2.215,2.685,4.346-3.876-1.189-8.8.306-8.692,5.039.055,2.685,2.02,4.1,4.484,4.152a5.688,5.688,0,0,0,4.279-1.827,9.133,9.133,0,0,0,.233,1.468Zm-3.6-3.1A4.674,4.674,0,0,1,834,503.576c-1.5,0-2.436-.637-2.436-2.215,0-2.326,2.186-3.876,5.342-3.046Z" transform="translate(-828.216 -490.371)" fill="#231f20"/>
    </g>
    <g id="Group_12" data-name="Group 12" transform="translate(554.755 440.642)">
      <path id="Path_12" data-name="Path 12" d="M661.477,466.108a13.878,13.878,0,0,0-5.177-1,7.314,7.314,0,0,0-5.543,2.352,8.442,8.442,0,0,0-2.242,6.036,9.319,9.319,0,0,0,2.021,6.339,6.735,6.735,0,0,0,5.46,2.353,8.625,8.625,0,0,0,3.128-.5v-5.232c0-.36-.006-.69-.017-1h-2.8a13.689,13.689,0,0,0-.3-2.463l6.8.233a12.3,12.3,0,0,0-.277,3.475V479.4a17.726,17.726,0,0,0,.277,3.793,18.475,18.475,0,0,1-7.087,1.467c-3.517,0-6.229-.969-8.195-2.907a10.671,10.671,0,0,1-3.063-7.854,11.169,11.169,0,0,1,3.368-8.229,11.535,11.535,0,0,1,8.472-3.156,14.132,14.132,0,0,1,5.705.939l-.528,2.661" transform="translate(-644.461 -462.509)" fill="#231f20"/>
    </g>
    <g id="Group_13" data-name="Group 13" transform="translate(701.667 469.794)">
      <path id="Path_13" data-name="Path 13" d="M1276.334,598.445v-9.761h3.417c2.1,0,3.746.686,3.746,2.994,0,2.4-1.794,3.06-3.8,3.06h-1.728v3.707Zm1.636-5.144h1.807c1.451,0,2.11-.488,2.11-1.583,0-1.029-.646-1.53-2.124-1.53h-1.794Z" transform="translate(-1276.334 -588.499)" fill="#002e6d"/>
      <path id="Path_14" data-name="Path 14" d="M1311.619,592.955c0-3.285,2.044-5.065,4.405-5.065s4.393,1.781,4.393,5.065-2.045,5.065-4.393,5.065S1311.619,596.24,1311.619,592.955Zm7.162,0c0-2.216-1.108-3.548-2.757-3.548s-2.757,1.332-2.757,3.548,1.108,3.588,2.757,3.588S1318.781,595.171,1318.781,592.955Z" transform="translate(-1303.415 -587.89)" fill="#002e6d"/>
      <path id="Path_15" data-name="Path 15" d="M1354.052,596.358l.884-1.253a4.718,4.718,0,0,0,3.179,1.451c1.227,0,2.058-.422,2.058-1.266s-.62-1.253-2.229-1.741c-1.886-.554-3.39-1.055-3.39-2.915,0-1.649,1.371-2.744,3.324-2.744a5.685,5.685,0,0,1,3.641,1.4l-.778,1.319a4.5,4.5,0,0,0-2.836-1.227c-1.108,0-1.741.488-1.741,1.121,0,.91.7,1.226,2.3,1.7,1.847.541,3.324,1.134,3.324,2.981,0,1.583-1.293,2.836-3.614,2.836A5.884,5.884,0,0,1,1354.052,596.358Z" transform="translate(-1335.982 -587.89)" fill="#002e6d"/>
    </g>
    <g id="Group_18" data-name="Group 18" transform="translate(527.58 434.018)">
      <g id="Group_17" data-name="Group 17" clip-path="url(#clip-path)">
        <g id="Group_16" data-name="Group 16" transform="translate(-0.046 -0.205)">
          <g id="Group_15" data-name="Group 15">
            <g id="Group_14" data-name="Group 14" clip-path="url(#clip-path-2)">
              <rect id="Rectangle_3" data-name="Rectangle 3" width="24.034" height="36.332"/>
              <path id="Path_16" data-name="Path 16" d="M550.485,447.256V429.592H527.8v-.77q-.231.583-.449,1.188a43.3,43.3,0,0,0-1.483,5.15h.12v23.661h-.1A43.988,43.988,0,0,0,527.376,464q.436,1.217.93,2.348.247.565.508,1.107v-1.062h21.67Z" transform="translate(-526.218 -429.825)"/>
              <path id="Path_17" data-name="Path 17" d="M550.616,447.417V429.754H527.963v-.721q-.231.581-.447,1.185a43.212,43.212,0,0,0-1.479,5.136h.08v23.6h-.061a43.84,43.84,0,0,0,1.487,5.162q.435,1.213.928,2.342.246.563.506,1.1v-1.008h21.638Z" transform="translate(-526.349 -429.987)" fill="#000101"/>
              <path id="Path_18" data-name="Path 18" d="M550.747,447.578V429.915H528.129v-.672q-.231.58-.446,1.182a43.041,43.041,0,0,0-1.475,5.122h.04v23.534h-.021a43.737,43.737,0,0,0,1.483,5.148q.433,1.21.926,2.335.246.562.505,1.1v-.953h21.606Z" transform="translate(-526.481 -430.148)" fill="#000201"/>
              <path id="Path_19" data-name="Path 19" d="M546.759,447.739V430.077H524.176v-.623q-.23.579-.445,1.178a42.951,42.951,0,0,0-1.471,5.109h0v11.725h-1.248a54.011,54.011,0,0,0,1.267,11.746,43.6,43.6,0,0,0,1.479,5.134q.432,1.206.923,2.329.245.56.5,1.1v-.9h21.575Z" transform="translate(-522.493 -430.31)" fill="#000302"/>
              <path id="Path_20" data-name="Path 20" d="M546.9,447.9V430.239H524.353v-.575q-.229.577-.444,1.175a42.839,42.839,0,0,0-1.467,5.1,55.25,55.25,0,0,0,.019,23.408,43.469,43.469,0,0,0,1.475,5.12q.431,1.2.92,2.323.244.559.5,1.1v-.844H546.9Z" transform="translate(-522.635 -430.471)" fill="#000402"/>
              <path id="Path_21" data-name="Path 21" d="M547.044,448.062V430.4H524.53v-.525q-.229.575-.443,1.172a42.759,42.759,0,0,0-1.463,5.081,55.1,55.1,0,0,0,.019,23.344,43.33,43.33,0,0,0,1.471,5.106q.43,1.2.918,2.316.244.557.5,1.092v-.79h21.511Z" transform="translate(-522.777 -430.633)" fill="#000503"/>
              <path id="Path_22" data-name="Path 22" d="M547.187,444.507V426.846H525.177v-1.6q-.484,1.1-.912,2.294a42.6,42.6,0,0,0-1.459,5.067,54.953,54.953,0,0,0,.019,23.281,43.325,43.325,0,0,0,1.467,5.093q.429,1.2.916,2.31.243.556.5,1.089v-.736h21.479Z" transform="translate(-522.92 -427.079)" fill="#000604"/>
              <path id="Path_23" data-name="Path 23" d="M547.329,444.678V427.017H525.353v-1.55q-.483,1.1-.909,2.288a42.5,42.5,0,0,0-1.455,5.054,54.8,54.8,0,0,0,.019,23.218,43.171,43.171,0,0,0,1.463,5.079q.428,1.193.913,2.3.242.554.5,1.086v-.681h21.447Z" transform="translate(-523.062 -427.25)" fill="#000704"/>
              <path id="Path_24" data-name="Path 24" d="M547.472,444.85v-17.66H525.529v-1.5q-.482,1.1-.907,2.282a42.391,42.391,0,0,0-1.451,5.04,54.652,54.652,0,0,0,.019,23.155,43,43,0,0,0,1.459,5.065q.427,1.191.911,2.3.242.553.5,1.083v-.627h21.415Z" transform="translate(-523.205 -427.422)" fill="#000805"/>
              <path id="Path_25" data-name="Path 25" d="M547.614,445.021v-17.66H525.7v-1.446q-.48,1.094-.9,2.276a42.23,42.23,0,0,0-1.447,5.026,52.792,52.792,0,0,0-1.228,11.535c.006,8.191,1.774,15.621,4.627,21.013v-1.607h20.861Z" transform="translate(-523.348 -427.594)" fill="#000905"/>
              <path id="Path_26" data-name="Path 26" d="M547.756,445.192v-17.66H525.88v-1.394q-.479,1.092-.9,2.27a42.149,42.149,0,0,0-1.443,5.012,52.675,52.675,0,0,0-1.224,11.5c.007,8.169,1.77,15.579,4.615,20.956v-1.55h20.831Z" transform="translate(-523.49 -427.765)" fill="#000a06"/>
              <path id="Path_27" data-name="Path 27" d="M547.9,445.364V427.7H526.056v-1.342q-.478,1.089-.9,2.263a42.05,42.05,0,0,0-1.439,5A52.526,52.526,0,0,0,522.5,445.1c.007,8.146,1.765,15.536,4.6,20.9V464.5h20.8Z" transform="translate(-523.632 -427.937)" fill="#000b07"/>
              <path id="Path_28" data-name="Path 28" d="M548.041,445.535V427.876h-21.81v-1.29q-.476,1.086-.9,2.257a41.913,41.913,0,0,0-1.435,4.985,52.381,52.381,0,0,0-1.218,11.44c.007,8.124,1.76,15.493,4.589,20.841v-1.435h20.77Z" transform="translate(-523.774 -428.109)" fill="#000c07"/>
              <path id="Path_29" data-name="Path 29" d="M548.184,445.706V428.048H526.408V426.81q-.475,1.083-.894,2.251a41.817,41.817,0,0,0-1.431,4.971,52.248,52.248,0,0,0-1.214,11.409c.007,8.1,1.755,15.45,4.577,20.783v-1.378h20.739Z" transform="translate(-523.917 -428.28)" fill="#000d08"/>
              <path id="Path_30" data-name="Path 30" d="M548.327,445.877V428.219H526.584v-1.186q-.474,1.08-.892,2.245a41.69,41.69,0,0,0-1.427,4.957,52.075,52.075,0,0,0-1.211,11.377c.006,8.079,1.75,15.407,4.564,20.725v-1.321h20.709Z" transform="translate(-524.06 -428.452)" fill="#000e08"/>
              <path id="Path_31" data-name="Path 31" d="M548.469,446.049V428.391H526.759v-1.134q-.473,1.077-.89,2.238a41.589,41.589,0,0,0-1.423,4.943,51.951,51.951,0,0,0-1.207,11.345c.007,8.056,1.745,15.365,4.551,20.668v-1.264h20.678Z" transform="translate(-524.202 -428.624)" fill="#000f09"/>
              <path id="Path_32" data-name="Path 32" d="M548.611,446.221V428.563H526.935v-1.082q-.471,1.074-.887,2.232a41.452,41.452,0,0,0-1.419,4.93,51.8,51.8,0,0,0-1.2,11.314c.007,8.034,1.74,15.321,4.539,20.61V465.36h20.648Z" transform="translate(-524.345 -428.795)" fill="#00100a"/>
              <path id="Path_33" data-name="Path 33" d="M548.753,446.391V428.734H527.111V427.7q-.47,1.071-.884,2.226a41.387,41.387,0,0,0-1.416,4.916,51.66,51.66,0,0,0-1.2,11.282c.006,8.011,1.736,15.279,4.526,20.553v-1.149h20.617Z" transform="translate(-524.487 -428.967)" fill="#00110a"/>
              <path id="Path_34" data-name="Path 34" d="M548.9,446.563V428.906H527.287v-.978q-.468,1.068-.882,2.219a41.226,41.226,0,0,0-1.411,4.9,51.507,51.507,0,0,0-1.2,11.251c.007,7.989,1.731,15.236,4.513,20.495V465.7H548.9Z" transform="translate(-524.629 -429.139)" fill="#00120b"/>
              <path id="Path_35" data-name="Path 35" d="M549.038,446.734V429.078H527.462v-.926q-.467,1.064-.88,2.213a41.148,41.148,0,0,0-1.407,4.888,51.385,51.385,0,0,0-1.194,11.219c.007,7.966,1.726,15.193,4.5,20.437v-1.035h20.556Z" transform="translate(-524.771 -429.31)" fill="#00130c"/>
              <path id="Path_36" data-name="Path 36" d="M549.181,446.905V429.249H527.638v-.874q-.466,1.062-.877,2.207a41.008,41.008,0,0,0-1.4,4.874,51.215,51.215,0,0,0-1.191,11.187c.007,7.944,1.721,15.15,4.488,20.38v-.977h20.526Z" transform="translate(-524.914 -429.482)" fill="#00140c"/>
              <path id="Path_37" data-name="Path 37" d="M549.324,447.077V429.421H527.814V428.6q-.464,1.058-.875,2.2a40.915,40.915,0,0,0-1.4,4.861,51.078,51.078,0,0,0-1.187,11.156c.006,7.921,1.716,15.107,4.475,20.322v-.92h20.5Z" transform="translate(-525.057 -429.654)" fill="#00150d"/>
              <path id="Path_38" data-name="Path 38" d="M549.466,447.248V429.593H527.99v-.77q-.463,1.055-.872,2.195a40.773,40.773,0,0,0-1.4,4.847,50.928,50.928,0,0,0-1.184,11.124c.007,7.9,1.711,15.065,4.462,20.265v-.863h20.465Z" transform="translate(-525.199 -429.825)" fill="#00160d"/>
              <path id="Path_39" data-name="Path 39" d="M549.608,447.419V429.764H528.166v-.718q-.462,1.052-.87,2.189a40.616,40.616,0,0,0-1.392,4.833,50.787,50.787,0,0,0-1.18,11.092c.006,7.877,1.706,15.022,4.45,20.207v-.806h20.435Z" transform="translate(-525.341 -429.997)" fill="#00170e"/>
              <path id="Path_40" data-name="Path 40" d="M549.75,447.591V429.936H528.341v-.666q-.461,1.049-.867,2.182a40.538,40.538,0,0,0-1.388,4.82,50.656,50.656,0,0,0-1.177,11.061c.007,7.854,1.7,14.979,4.437,20.149v-.748h20.4Z" transform="translate(-525.484 -430.169)" fill="#00180f"/>
              <path id="Path_41" data-name="Path 41" d="M549.893,447.762V430.108H528.517v-.614q-.459,1.047-.864,2.176a40.416,40.416,0,0,0-1.384,4.806,50.511,50.511,0,0,0-1.174,11.029c.006,7.832,1.7,14.936,4.424,20.092v-.691h20.374Z" transform="translate(-525.626 -430.34)" fill="#00190f"/>
              <path id="Path_42" data-name="Path 42" d="M550.036,447.933V430.279H528.693v-.562q-.458,1.044-.862,2.17a40.311,40.311,0,0,0-1.38,4.792,50.352,50.352,0,0,0-1.17,11c.006,7.809,1.692,14.893,4.411,20.034v-.634h20.343Z" transform="translate(-525.769 -430.512)" fill="#001a10"/>
              <path id="Path_43" data-name="Path 43" d="M550.178,448.1V430.451H528.868v-.51q-.456,1.041-.86,2.163a40.146,40.146,0,0,0-1.376,4.778,50.22,50.22,0,0,0-1.167,10.966c.006,7.787,1.687,14.851,4.4,19.977v-.577h20.313Z" transform="translate(-525.911 -430.684)" fill="#001b10"/>
              <path id="Path_44" data-name="Path 44" d="M550.32,448.276V430.623H529.045v-.458q-.456,1.038-.857,2.157a40,40,0,0,0-1.372,4.764,50.048,50.048,0,0,0-1.164,10.934c.006,7.764,1.682,14.808,4.386,19.919v-.52H550.32Z" transform="translate(-526.054 -430.855)" fill="#001c11"/>
              <path id="Path_45" data-name="Path 45" d="M550.463,448.447V430.794H529.22v-.406q-.454,1.035-.855,2.151A39.944,39.944,0,0,0,527,437.29a49.918,49.918,0,0,0-1.16,10.9c.006,7.742,1.677,14.765,4.374,19.862v-.462h20.252Z" transform="translate(-526.196 -431.027)" fill="#001d12"/>
              <path id="Path_46" data-name="Path 46" d="M550.605,448.618V430.966H529.4v-.354q-.453,1.032-.852,2.145a39.809,39.809,0,0,0-1.364,4.737,49.768,49.768,0,0,0-1.157,10.871c.006,7.719,1.672,14.722,4.361,19.8v-.405h20.222Z" transform="translate(-526.339 -431.199)" fill="#001e12"/>
              <path id="Path_47" data-name="Path 47" d="M550.747,448.79V431.138H529.571v-.3q-.451,1.029-.85,2.138a39.752,39.752,0,0,0-1.36,4.723,49.634,49.634,0,0,0-1.154,10.84c.006,7.7,1.668,14.679,4.348,19.746v-.348h20.191Z" transform="translate(-526.481 -431.37)" fill="#001f13"/>
              <path id="Path_48" data-name="Path 48" d="M550.89,448.961V431.309H529.747v-.25q-.45,1.026-.847,2.132a39.6,39.6,0,0,0-1.356,4.709,49.5,49.5,0,0,0-1.15,10.808c.006,7.674,1.663,14.637,4.336,19.689v-.291H550.89Z" transform="translate(-526.623 -431.542)" fill="#002013"/>
              <path id="Path_49" data-name="Path 49" d="M551.033,449.132V431.481H529.923v-.2q-.449,1.023-.845,2.126a39.5,39.5,0,0,0-1.352,4.7,49.336,49.336,0,0,0-1.147,10.776c.006,7.652,1.657,14.593,4.323,19.631v-.233h20.13Z" transform="translate(-526.766 -431.714)" fill="#002114"/>
              <path id="Path_50" data-name="Path 50" d="M551.175,449.3V431.653H530.1v-.146q-.448,1.019-.842,2.12a39.417,39.417,0,0,0-1.348,4.682,49.2,49.2,0,0,0-1.143,10.744c.006,7.63,1.653,14.551,4.31,19.573v-.176h20.1Z" transform="translate(-526.908 -431.885)" fill="#002215"/>
              <path id="Path_51" data-name="Path 51" d="M551.318,449.474v-17.65H530.275v-.094q-.446,1.017-.84,2.114a39.24,39.24,0,0,0-1.344,4.668,49.041,49.041,0,0,0-1.14,10.713c.006,7.607,1.648,14.508,4.3,19.516v-.119h20.069Z" transform="translate(-527.051 -432.057)" fill="#002315"/>
              <path id="Path_52" data-name="Path 52" d="M551.46,449.646V432H530.45v-.042q-.445,1.013-.837,2.107a39.194,39.194,0,0,0-1.34,4.654,48.926,48.926,0,0,0-1.137,10.681c.006,7.585,1.643,14.465,4.285,19.458v-.062H551.46Z" transform="translate(-527.193 -432.229)" fill="#002416"/>
              <path id="Path_53" data-name="Path 53" d="M551.6,446.55V428.9h-20.52v-.98q-.234.484-.456.99-.443,1.01-.835,2.1a39.009,39.009,0,0,0-1.336,4.64,48.76,48.76,0,0,0-1.133,10.65c.006,7.562,1.638,14.422,4.272,19.4v0H551.6Z" transform="translate(-527.336 -429.133)" fill="#002516"/>
              <path id="Path_54" data-name="Path 54" d="M551.744,446.731V429.082H531.256v-.925q-.234.483-.455.987-.442,1.008-.832,2.095a38.9,38.9,0,0,0-1.332,4.627,48.623,48.623,0,0,0-1.13,10.618c.006,7.54,1.634,14.379,4.26,19.343q.246.465.5.908v-.856h19.474Z" transform="translate(-527.478 -429.314)" fill="#002617"/>
              <path id="Path_55" data-name="Path 55" d="M551.887,446.912V429.263H531.431v-.87q-.233.482-.453.984-.441,1-.83,2.089a38.8,38.8,0,0,0-1.328,4.613,48.472,48.472,0,0,0-1.127,10.587c.006,7.517,1.628,14.337,4.247,19.285q.246.464.5.906v-.8h19.445Z" transform="translate(-527.62 -429.495)" fill="#002718"/>
              <path id="Path_56" data-name="Path 56" d="M552.03,447.093V429.445H531.606v-.815q-.232.48-.452.981-.439,1-.827,2.082a38.712,38.712,0,0,0-1.324,4.6,48.332,48.332,0,0,0-1.123,10.555c.006,7.495,1.624,14.294,4.234,19.228q.49.925,1.024,1.76v-1.593H552.03Z" transform="translate(-527.763 -429.677)" fill="#002818"/>
              <path id="Path_57" data-name="Path 57" d="M552.172,447.274V429.626H531.78v-.76q-.231.479-.451.978-.438,1-.825,2.076a38.582,38.582,0,0,0-1.32,4.585,48.186,48.186,0,0,0-1.12,10.523c.006,7.472,1.619,14.251,4.221,19.17q.488.922,1.021,1.755v-1.531H552.1v.841q.255-.435.5-.892h-.421Z" transform="translate(-527.905 -429.858)" fill="#002919"/>
              <path id="Path_58" data-name="Path 58" d="M552.315,447.455V429.807h-20.36V429.1q-.231.477-.449.975-.437,1-.823,2.07a38.434,38.434,0,0,0-1.316,4.571,48.038,48.038,0,0,0-1.117,10.492c.006,7.45,1.614,14.208,4.208,19.112q.487.92,1.018,1.75V466.6H551.69v1.624q.53-.82,1.015-1.733h-.391Z" transform="translate(-528.048 -430.04)" fill="#002a19"/>
              <path id="Path_59" data-name="Path 59" d="M552.456,444.566V426.918H532.6v-1.58c-2.579,4.845-4.171,11.556-4.165,18.984s1.609,14.165,4.2,19.055q.485.917,1.015,1.745v-1.406H551.8v1.561q.528-.818,1.012-1.727h-.36Z" transform="translate(-528.19 -427.151)" fill="#002b1a"/>
              <path id="Path_60" data-name="Path 60" d="M552.6,444.756V427.109H532.773v-1.522c-2.571,4.831-4.159,11.521-4.153,18.926s1.6,14.123,4.183,19q.484.914,1.012,1.739v-1.343h18.1v1.5q.527-.815,1.009-1.722h-.33Z" transform="translate(-528.332 -427.342)" fill="#002c1b"/>
              <path id="Path_61" data-name="Path 61" d="M552.742,444.947V427.3h-19.8v-1.465c-2.564,4.816-4.146,11.486-4.14,18.869s1.6,14.08,4.17,18.94q.482.911,1.009,1.734V464.1h18.049v1.435q.525-.813,1.006-1.717h-.3Z" transform="translate(-528.475 -427.532)" fill="#002d1b"/>
              <path id="Path_62" data-name="Path 62" d="M552.884,445.137V427.491H533.119v-1.407c-2.556,4.8-4.133,11.451-4.127,18.811s1.594,14.037,4.158,18.882q.481.909,1.006,1.729v-1.218H552.15v1.372q.523-.811,1-1.712h-.269Z" transform="translate(-528.617 -427.723)" fill="#002e1c"/>
              <path id="Path_63" data-name="Path 63" d="M553.027,445.327V427.681H533.293v-1.349c-2.548,4.787-4.121,11.416-4.115,18.754s1.59,13.994,4.145,18.825q.479.906,1,1.724v-1.156h17.939v1.309q.521-.808,1-1.707h-.238Z" transform="translate(-528.76 -427.914)" fill="#002f1c"/>
              <path id="Path_64" data-name="Path 64" d="M553.169,445.517V427.872h-19.7V426.58c-2.54,4.772-4.108,11.382-4.1,18.7s1.585,13.951,4.133,18.767q.477.9,1,1.718v-1.093h17.884v1.246q.52-.805,1-1.7h-.207Z" transform="translate(-528.902 -428.104)" fill="#00301d"/>
              <path id="Path_65" data-name="Path 65" d="M553.311,445.708V428.063H533.638v-1.234c-2.532,4.757-4.1,11.346-4.089,18.639s1.58,13.909,4.12,18.709q.476.9,1,1.713V464.86h17.829v1.183q.519-.8.994-1.7h-.177Z" transform="translate(-529.045 -428.295)" fill="#00311e"/>
              <path id="Path_66" data-name="Path 66" d="M553.453,445.9V428.253H533.811v-1.176c-2.525,4.743-4.083,11.311-4.077,18.582s1.575,13.866,4.107,18.652q.475.9.994,1.708v-.968h17.774v1.12q.517-.8.991-1.691h-.146Z" transform="translate(-529.187 -428.486)" fill="#00321e"/>
              <path id="Path_67" data-name="Path 67" d="M553.6,446.089V428.444H533.984v-1.118c-2.517,4.728-4.07,11.276-4.064,18.524s1.57,13.823,4.095,18.594q.473.894.99,1.7v-.906h17.719V466.3q.515-.8.988-1.685H553.6Z" transform="translate(-529.329 -428.677)" fill="#00331f"/>
              <path id="Path_68" data-name="Path 68" d="M553.739,446.278V428.634H534.158v-1.06c-2.509,4.714-4.058,11.242-4.052,18.467s1.565,13.78,4.082,18.536q.472.892.987,1.7v-.843h17.664v.994q.514-.8.985-1.68h-.085Z" transform="translate(-529.472 -428.867)" fill="#003520"/>
              <path id="Path_69" data-name="Path 69" d="M553.881,446.469V428.825H534.33v-1c-2.5,4.7-4.045,11.207-4.039,18.41s1.561,13.737,4.069,18.479q.47.889.984,1.692v-.781h17.609v.931q.512-.793.982-1.675h-.055Z" transform="translate(-529.614 -429.057)" fill="#003620"/>
              <path id="Path_70" data-name="Path 70" d="M554.024,446.659V430.092h.886q-.423-.967-.892-1.854v.778H534.5v-.945c-2.493,4.684-4.033,11.172-4.027,18.352s1.555,13.694,4.056,18.421q.469.886.981,1.687v-.718h17.555v.868q.51-.791.978-1.67h-.024Z" transform="translate(-529.757 -429.248)" fill="#003721"/>
              <path id="Path_71" data-name="Path 71" d="M554.166,446.849V430.334h.853q-.421-.964-.889-1.848v.721H534.676v-.887c-2.485,4.67-4.02,11.137-4.014,18.295s1.551,13.651,4.044,18.364q.467.884.978,1.681V466h17.5v.805q.509-.788.976-1.665t.886-1.833h-.88Z" transform="translate(-529.899 -429.439)" fill="#003821"/>
              <path id="Path_72" data-name="Path 72" d="M554.308,447.04V432.572h1.611a29.418,29.418,0,0,0-1.677-3.839v.664H534.849v-.829c-2.478,4.655-4.007,11.1-4,18.237s1.546,13.609,4.031,18.306q.466.881.975,1.676v-.593H553.3v.742q.507-.786.973-1.659t.883-1.828h-.847Z" transform="translate(-530.042 -429.63)" fill="#003922"/>
              <path id="Path_73" data-name="Path 73" d="M554.451,447.23V432.808h1.575a29.382,29.382,0,0,0-1.672-3.827v.606H535.023v-.772c-2.47,4.64-3.995,11.067-3.989,18.18s1.541,13.566,4.018,18.248q.465.878.972,1.671v-.531h17.39v.679q.506-.783.969-1.654a28.741,28.741,0,0,0,1.666-3.8h-1.6Z" transform="translate(-530.185 -429.82)" fill="#003a23"/>
              <path id="Path_74" data-name="Path 74" d="M554.593,447.421V433.044h1.539a29.279,29.279,0,0,0-1.667-3.814v.549H535.2v-.714c-2.462,4.625-3.982,11.032-3.976,18.122a39.85,39.85,0,0,0,4.006,18.191q.463.875.969,1.665v-.468h17.335v.616q.5-.781.966-1.649a28.716,28.716,0,0,0,1.661-3.786h-1.563Z" transform="translate(-530.326 -430.011)" fill="#003b23"/>
              <path id="Path_75" data-name="Path 75" d="M554.736,447.611V433.28h1.5a29.177,29.177,0,0,0-1.662-3.8v.492H535.369v-.656c-2.454,4.611-3.97,11-3.964,18.065a39.72,39.72,0,0,0,3.993,18.133q.461.872.966,1.66v-.406h17.28v.553q.5-.778.963-1.644a28.592,28.592,0,0,0,1.656-3.774h-1.527Z" transform="translate(-530.469 -430.202)" fill="#003c24"/>
              <path id="Path_76" data-name="Path 76" d="M554.878,447.8V433.515h1.468a29.07,29.07,0,0,0-1.656-3.79v.435H535.541v-.6c-2.446,4.6-3.957,10.962-3.951,18.008a39.6,39.6,0,0,0,3.98,18.076q.46.869.963,1.655v-.343h17.225v.49q.5-.776.96-1.638a28.519,28.519,0,0,0,1.65-3.762h-1.491Z" transform="translate(-530.611 -430.392)" fill="#003d24"/>
              <path id="Path_77" data-name="Path 77" d="M555.021,447.991v-14.24h1.432a29.045,29.045,0,0,0-1.651-3.778v.377H535.715v-.541c-2.439,4.582-3.944,10.927-3.939,17.95a39.466,39.466,0,0,0,3.968,18.018q.459.867.96,1.65v-.281h17.17v.428q.5-.774.957-1.633a28.417,28.417,0,0,0,1.645-3.75h-1.455Z" transform="translate(-530.754 -430.583)" fill="#003e25"/>
              <path id="Path_78" data-name="Path 78" d="M555.163,448.181V433.987h1.4a28.937,28.937,0,0,0-1.646-3.766v.32H535.887v-.483c-2.431,4.567-3.932,10.892-3.926,17.893a39.345,39.345,0,0,0,3.955,17.96q.457.864.957,1.645v-.218h17.115v.365q.5-.771.954-1.628a28.336,28.336,0,0,0,1.64-3.738h-1.419Z" transform="translate(-530.896 -430.773)" fill="#003f26"/>
              <path id="Path_79" data-name="Path 79" d="M555.305,448.372V434.223h1.361a28.852,28.852,0,0,0-1.641-3.754v.263H536.06v-.425c-2.423,4.552-3.919,10.857-3.913,17.836a39.213,39.213,0,0,0,3.942,17.9,20.95,20.95,0,0,0,1.987,3.1v-1.619H554.1v.3q.5-.768.951-1.623a28.264,28.264,0,0,0,1.634-3.726h-1.384Z" transform="translate(-531.039 -430.964)" fill="#004026"/>
              <path id="Path_80" data-name="Path 80" d="M555.448,448.562v-14.1h1.325a28.711,28.711,0,0,0-1.635-3.742v.206h-18.9v-.367c-2.415,4.538-3.907,10.822-3.9,17.778a39.09,39.09,0,0,0,3.93,17.845,20.912,20.912,0,0,0,1.981,3.093v-1.552h15.975v.239q.495-.766.948-1.618a28.16,28.16,0,0,0,1.629-3.714h-1.348Z" transform="translate(-531.181 -431.155)" fill="#004127"/>
              <path id="Path_81" data-name="Path 81" d="M555.59,448.752V434.694h1.289a28.625,28.625,0,0,0-1.63-3.73v.148H536.406v-.31c-2.408,4.523-3.894,10.787-3.888,17.721a38.966,38.966,0,0,0,3.917,17.788,20.845,20.845,0,0,0,1.974,3.083V467.91h14.9v1.612a20.324,20.324,0,0,0,1.969-3.049,28.076,28.076,0,0,0,1.624-3.7H555.59Z" transform="translate(-531.323 -431.345)" fill="#004227"/>
              <path id="Path_82" data-name="Path 82" d="M555.733,448.943V434.93h1.253a28.566,28.566,0,0,0-1.625-3.718v.091H536.58v-.252c-2.4,4.508-3.881,10.753-3.876,17.663a38.839,38.839,0,0,0,3.9,17.73,20.761,20.761,0,0,0,1.968,3.073V468.1h14.851v1.545a20.242,20.242,0,0,0,1.963-3.039,27.956,27.956,0,0,0,1.619-3.69h-1.276Z" transform="translate(-531.466 -431.536)" fill="#004328"/>
              <path id="Path_83" data-name="Path 83" d="M555.875,449.133V435.166h1.218a28.457,28.457,0,0,0-1.619-3.706v.034H536.752V431.3c-2.392,4.494-3.869,10.718-3.863,17.606a38.712,38.712,0,0,0,3.892,17.672,20.712,20.712,0,0,0,1.962,3.063v-1.35h14.8v1.477a20.179,20.179,0,0,0,1.957-3.029,27.847,27.847,0,0,0,1.613-3.678h-1.24Z" transform="translate(-531.608 -431.727)" fill="#004429"/>
              <path id="Path_84" data-name="Path 84" d="M556.018,444.526V430.6H557.2a28.394,28.394,0,0,0-1.614-3.694q-.449-.848-.938-1.613v1.59H536.925v-.136a38.131,38.131,0,0,0-3.85,17.549,38.586,38.586,0,0,0,3.879,17.615,20.625,20.625,0,0,0,1.955,3.053v-1.283h14.754v1.409a20.121,20.121,0,0,0,1.951-3.019,27.805,27.805,0,0,0,1.608-3.666h-1.2Z" transform="translate(-531.751 -427.12)" fill="#004529"/>
              <path id="Path_85" data-name="Path 85" d="M556.16,444.732V430.856h1.146a28.277,28.277,0,0,0-1.609-3.682q-.447-.845-.935-1.608v1.527H537.1v-.079a38.007,38.007,0,0,0-3.838,17.491,38.459,38.459,0,0,0,3.866,17.557,20.584,20.584,0,0,0,1.949,3.043v-1.216h14.706v1.342a20.052,20.052,0,0,0,1.944-3.01,27.675,27.675,0,0,0,1.6-3.654H556.16Z" transform="translate(-531.893 -427.327)" fill="#00462a"/>
              <path id="Path_86" data-name="Path 86" d="M556.3,444.938v-13.83h1.11a28.19,28.19,0,0,0-1.6-3.67q-.445-.842-.932-1.6V427.3H537.271v-.021a37.882,37.882,0,0,0-3.825,17.434,38.336,38.336,0,0,0,3.854,17.5,20.522,20.522,0,0,0,1.943,3.033V464.1H553.9v1.274a19.992,19.992,0,0,0,1.938-3,27.584,27.584,0,0,0,1.6-3.642H556.3Z" transform="translate(-532.036 -427.533)" fill="#00472a"/>
              <path id="Path_87" data-name="Path 87" d="M556.445,444.674V430.89h1.075a28.061,28.061,0,0,0-1.6-3.657q-.444-.839-.929-1.6v1.4H538.371v-1.544q-.483.749-.927,1.581a37.754,37.754,0,0,0-3.813,17.377,38.207,38.207,0,0,0,3.841,17.442,20.449,20.449,0,0,0,1.936,3.023v-1.081h14.61v1.206a19.919,19.919,0,0,0,1.931-2.99,27.487,27.487,0,0,0,1.592-3.63h-1.1Z" transform="translate(-532.178 -427.27)" fill="#00482b"/>
              <path id="Path_88" data-name="Path 88" d="M556.587,444.882V431.143h1.039a28.011,28.011,0,0,0-1.593-3.645q-.443-.837-.926-1.592v1.339H538.541v-1.481q-.482.746-.924,1.576a37.634,37.634,0,0,0-3.8,17.319,38.082,38.082,0,0,0,3.828,17.384,20.383,20.383,0,0,0,1.93,3.013v-1.014h14.561v1.139a19.848,19.848,0,0,0,1.925-2.98,27.391,27.391,0,0,0,1.587-3.618h-1.061Z" transform="translate(-532.32 -427.478)" fill="#00492c"/>
              <path id="Path_89" data-name="Path 89" d="M556.73,445.09V431.4h1a27.9,27.9,0,0,0-1.588-3.633q-.441-.833-.923-1.586v1.277H538.711v-1.418q-.48.744-.92,1.571A37.505,37.505,0,0,0,534,444.867a37.952,37.952,0,0,0,3.815,17.327,20.293,20.293,0,0,0,1.923,3v-.947h14.513v1.071a19.769,19.769,0,0,0,1.918-2.97,27.32,27.32,0,0,0,1.582-3.606H556.73Z" transform="translate(-532.463 -427.686)" fill="#004a2c"/>
              <path id="Path_90" data-name="Path 90" d="M556.872,445.3V431.649h.967a27.792,27.792,0,0,0-1.582-3.621q-.44-.831-.92-1.581v1.215H538.88v-1.355q-.479.741-.917,1.565a37.383,37.383,0,0,0-3.775,17.2,37.83,37.83,0,0,0,3.8,17.269,20.219,20.219,0,0,0,1.917,2.993v-.88h14.465v1a19.713,19.713,0,0,0,1.912-2.96,27.242,27.242,0,0,0,1.577-3.594h-.99Z" transform="translate(-532.605 -427.894)" fill="#004b2d"/>
              <path id="Path_91" data-name="Path 91" d="M557.015,445.5V431.9h.932a27.713,27.713,0,0,0-1.577-3.609q-.438-.828-.917-1.576v1.152h-16.4v-1.292q-.477.739-.914,1.56a37.262,37.262,0,0,0-3.762,17.147,37.7,37.7,0,0,0,3.79,17.212,20.169,20.169,0,0,0,1.91,2.983v-.813h14.417v.936a19.657,19.657,0,0,0,1.906-2.95,27.153,27.153,0,0,0,1.571-3.582h-.954Z" transform="translate(-532.748 -428.102)" fill="#004c2d"/>
              <path id="Path_92" data-name="Path 92" d="M557.157,445.712V432.155h.9a27.64,27.64,0,0,0-1.572-3.6q-.437-.825-.914-1.571v1.09H539.221v-1.229q-.475.736-.911,1.555a37.13,37.13,0,0,0-3.75,17.09,37.577,37.577,0,0,0,3.777,17.154,20.1,20.1,0,0,0,1.9,2.973v-.745H554.61v.868a19.562,19.562,0,0,0,1.9-2.94,27.029,27.029,0,0,0,1.566-3.57h-.918Z" transform="translate(-532.891 -428.31)" fill="#004d2e"/>
              <path id="Path_93" data-name="Path 93" d="M557.3,445.92V432.408h.86a27.563,27.563,0,0,0-1.567-3.585q-.435-.822-.911-1.565v1.027H539.39v-1.166q-.474.733-.908,1.55a37.011,37.011,0,0,0-3.737,17.032,37.449,37.449,0,0,0,3.765,17.1,20.052,20.052,0,0,0,1.9,2.963v-.678h14.32v.8a19.537,19.537,0,0,0,1.893-2.931,26.972,26.972,0,0,0,1.561-3.558H557.3Z" transform="translate(-533.033 -428.518)" fill="#004e2f"/>
              <path id="Path_94" data-name="Path 94" d="M557.442,446.127V432.661h.824a27.4,27.4,0,0,0-1.561-3.573q-.434-.82-.908-1.56v.964H539.561v-1.1q-.472.731-.905,1.545a36.884,36.884,0,0,0-3.724,16.975,37.323,37.323,0,0,0,3.752,17.039,19.967,19.967,0,0,0,1.891,2.953v-.611h14.272v.733a19.451,19.451,0,0,0,1.887-2.921,26.874,26.874,0,0,0,1.556-3.546h-.846Z" transform="translate(-533.175 -428.725)" fill="#004f2f"/>
              <path id="Path_95" data-name="Path 95" d="M557.584,446.335V432.914h.789a27.339,27.339,0,0,0-1.556-3.561q-.432-.817-.9-1.555v.9H539.73v-1.04q-.47.729-.9,1.539a36.762,36.762,0,0,0-3.712,16.918,37.2,37.2,0,0,0,3.739,16.981,19.915,19.915,0,0,0,1.885,2.943V465.5h14.224v.665a19.4,19.4,0,0,0,1.88-2.911,26.789,26.789,0,0,0,1.55-3.534h-.81Z" transform="translate(-533.317 -428.933)" fill="#005030"/>
              <path id="Path_96" data-name="Path 96" d="M557.727,446.542V433.167h.753a27.245,27.245,0,0,0-1.551-3.549q-.431-.814-.9-1.55v.84H539.9v-.977q-.469.726-.9,1.534a36.635,36.635,0,0,0-3.7,16.86,37.071,37.071,0,0,0,3.727,16.924,19.832,19.832,0,0,0,1.879,2.933v-.477h14.175v.6a19.335,19.335,0,0,0,1.874-2.9,26.676,26.676,0,0,0,1.545-3.522h-.775Z" transform="translate(-533.46 -429.141)" fill="#005130"/>
              <path id="Path_97" data-name="Path 97" d="M557.869,446.75V433.42h.717a27.149,27.149,0,0,0-1.545-3.537q-.429-.812-.9-1.544v.777H540.07V428.2q-.467.724-.9,1.529a36.513,36.513,0,0,0-3.687,16.8A36.947,36.947,0,0,0,539.2,463.4a19.766,19.766,0,0,0,1.872,2.923v-.409H555.2v.53a19.264,19.264,0,0,0,1.867-2.891,26.582,26.582,0,0,0,1.54-3.51h-.739Z" transform="translate(-533.602 -429.349)" fill="#005231"/>
              <path id="Path_98" data-name="Path 98" d="M558.012,446.957V433.673h.682a27.08,27.08,0,0,0-1.54-3.525q-.428-.809-.9-1.539v.714H540.24v-.851q-.466.721-.893,1.524a36.387,36.387,0,0,0-3.674,16.745,36.822,36.822,0,0,0,3.7,16.809,19.7,19.7,0,0,0,1.866,2.913v-.342h14.079v.462a19.208,19.208,0,0,0,1.861-2.881,26.524,26.524,0,0,0,1.535-3.5h-.7Z" transform="translate(-533.745 -429.557)" fill="#005332"/>
              <path id="Path_99" data-name="Path 99" d="M558.154,447.165V433.927h.646a26.975,26.975,0,0,0-1.535-3.513q-.426-.806-.892-1.534v.652H540.41v-.788q-.464.719-.89,1.518a36.261,36.261,0,0,0-3.661,16.688,36.69,36.69,0,0,0,3.688,16.751,19.63,19.63,0,0,0,1.859,2.9v-.275h14.031v.395a19.132,19.132,0,0,0,1.855-2.871,26.446,26.446,0,0,0,1.529-3.486h-.667Z" transform="translate(-533.888 -429.765)" fill="#005432"/>
              <path id="Path_100" data-name="Path 100" d="M558.3,447.373V434.18h.61a26.894,26.894,0,0,0-1.53-3.5q-.425-.8-.889-1.528v.589H540.58v-.725q-.463.716-.887,1.513a36.141,36.141,0,0,0-3.649,16.631,36.569,36.569,0,0,0,3.676,16.693,19.564,19.564,0,0,0,1.853,2.893v-.208h13.982v.327A19.087,19.087,0,0,0,557.4,464a26.34,26.34,0,0,0,1.524-3.474H558.3Z" transform="translate(-534.03 -429.973)" fill="#053"/>
              <path id="Path_101" data-name="Path 101" d="M558.439,447.58V434.433h.574a26.817,26.817,0,0,0-1.524-3.488q-.424-.8-.886-1.523v.527H540.75v-.662q-.461.713-.883,1.508a36.009,36.009,0,0,0-3.636,16.573A36.44,36.44,0,0,0,539.893,464a19.493,19.493,0,0,0,1.847,2.883v-.14h13.934v.26a19,19,0,0,0,1.842-2.852,26.252,26.252,0,0,0,1.519-3.462h-.6Z" transform="translate(-534.172 -430.181)" fill="#005633"/>
              <path id="Path_102" data-name="Path 102" d="M558.581,447.787v-13.1h.538a26.661,26.661,0,0,0-1.519-3.476q-.422-.8-.883-1.518v.464h-15.8v-.6q-.46.711-.881,1.5a35.891,35.891,0,0,0-3.624,16.516,36.312,36.312,0,0,0,3.651,16.578,19.432,19.432,0,0,0,1.84,2.873v-.073h13.886v.192a18.935,18.935,0,0,0,1.836-2.842,26.166,26.166,0,0,0,1.514-3.45h-.56Z" transform="translate(-534.314 -430.388)" fill="#005734"/>
              <path id="Path_103" data-name="Path 103" d="M558.724,447.995V434.939h.5a26.578,26.578,0,0,0-1.514-3.464q-.42-.795-.88-1.513v.4H541.09v-.537q-.458.709-.877,1.5a35.761,35.761,0,0,0-3.611,16.458,36.186,36.186,0,0,0,3.638,16.521,19.345,19.345,0,0,0,1.834,2.863v-.006H555.91v.124a18.859,18.859,0,0,0,1.829-2.832,26.038,26.038,0,0,0,1.508-3.438h-.524Z" transform="translate(-534.457 -430.596)" fill="#005835"/>
              <path id="Path_104" data-name="Path 104" d="M558.867,448.2v-9.054h1.607a30.013,30.013,0,0,0-2.649-7.409q-.419-.792-.877-1.507v.339H541.26V430.1q-.456.707-.875,1.492a35.634,35.634,0,0,0-3.6,16.4,36.059,36.059,0,0,0,3.625,16.463,19.276,19.276,0,0,0,1.827,2.853,14.512,14.512,0,0,0,1.018,1.172v-1.111h12.772v.057a18.8,18.8,0,0,0,1.823-2.822,29.479,29.479,0,0,0,2.637-7.364h-1.622Z" transform="translate(-534.6 -430.804)" fill="#005935"/>
              <path id="Path_105" data-name="Path 105" d="M559.009,444.424V435.4h1.568a29.9,29.9,0,0,0-2.64-7.383,19.2,19.2,0,0,0-1.821-2.843v1.618H541.43v-.411q-.455.7-.872,1.487a35.513,35.513,0,0,0-3.586,16.344,35.932,35.932,0,0,0,3.613,16.405,19.2,19.2,0,0,0,1.821,2.843,14.5,14.5,0,0,0,1.014,1.169v-1.04h11.715v1.14a14.126,14.126,0,0,0,1.012-1.151,18.75,18.75,0,0,0,1.817-2.812,29.383,29.383,0,0,0,2.628-7.338h-1.582Z" transform="translate(-534.742 -427.026)" fill="#005a36"/>
              <path id="Path_106" data-name="Path 106" d="M559.151,444.646v-8.99h1.528a29.8,29.8,0,0,0-2.63-7.357,19.133,19.133,0,0,0-1.814-2.833v1.551H541.6v-.348q-.453.7-.868,1.482a35.383,35.383,0,0,0-3.573,16.286,35.809,35.809,0,0,0,3.6,16.348,19.141,19.141,0,0,0,1.815,2.833,14.461,14.461,0,0,0,1.011,1.165v-.969h11.674v1.069a14.042,14.042,0,0,0,1.009-1.147,18.675,18.675,0,0,0,1.81-2.8,29.283,29.283,0,0,0,2.618-7.312h-1.542Z" transform="translate(-534.885 -427.248)" fill="#005b37"/>
              <path id="Path_107" data-name="Path 107" d="M559.293,444.482v-8.959h1.488a29.693,29.693,0,0,0-2.621-7.331,19.079,19.079,0,0,0-1.808-2.823v1.484H542.708v-1.6a18.62,18.62,0,0,0-1.8,2.792,35.262,35.262,0,0,0-3.561,16.229,35.681,35.681,0,0,0,3.587,16.29,19.078,19.078,0,0,0,1.808,2.823,14.336,14.336,0,0,0,1.007,1.16v-.9h11.633v1a13.977,13.977,0,0,0,1.005-1.143,18.6,18.6,0,0,0,1.8-2.792,29.182,29.182,0,0,0,2.609-7.287h-1.5Z" transform="translate(-535.027 -427.085)" fill="#005c37"/>
              <path id="Path_108" data-name="Path 108" d="M559.436,444.705v-8.927h1.448a29.59,29.59,0,0,0-2.612-7.305,19.011,19.011,0,0,0-1.8-2.813v1.416h-13.6v-1.533a18.526,18.526,0,0,0-1.8,2.782,35.138,35.138,0,0,0-3.548,16.172,35.556,35.556,0,0,0,3.574,16.232,19.015,19.015,0,0,0,1.8,2.813,14.35,14.35,0,0,0,1,1.156v-.826H555.5v.925a13.893,13.893,0,0,0,1-1.139,18.524,18.524,0,0,0,1.8-2.782,29.072,29.072,0,0,0,2.6-7.261h-1.463Z" transform="translate(-535.169 -427.308)" fill="#005d38"/>
              <path id="Path_109" data-name="Path 109" d="M559.578,444.928v-8.9h1.408a29.478,29.478,0,0,0-2.6-7.28,18.952,18.952,0,0,0-1.8-2.8V427.3H543.041v-1.465a18.451,18.451,0,0,0-1.791,2.773,35.013,35.013,0,0,0-3.536,16.114,35.43,35.43,0,0,0,3.562,16.175,18.947,18.947,0,0,0,1.8,2.8,14.257,14.257,0,0,0,1,1.152V464.1h11.55v.854a13.913,13.913,0,0,0,1-1.135,18.466,18.466,0,0,0,1.791-2.773A28.961,28.961,0,0,0,561,453.807h-1.423Z" transform="translate(-535.311 -427.531)" fill="#005e38"/>
              <path id="Path_110" data-name="Path 110" d="M559.721,445.151v-8.864h1.369a29.382,29.382,0,0,0-2.593-7.254,18.876,18.876,0,0,0-1.789-2.793v1.282h-13.5v-1.4a18.387,18.387,0,0,0-1.785,2.763,34.888,34.888,0,0,0-3.523,16.057,35.307,35.307,0,0,0,3.549,16.117,18.872,18.872,0,0,0,1.789,2.793,14.328,14.328,0,0,0,1,1.148v-.684h11.509v.782a13.852,13.852,0,0,0,.994-1.131,18.4,18.4,0,0,0,1.784-2.763A28.849,28.849,0,0,0,561.1,454h-1.383Z" transform="translate(-535.454 -427.755)" fill="#005f39"/>
              <path id="Path_111" data-name="Path 111" d="M559.864,445.373v-8.832h1.329a29.282,29.282,0,0,0-2.584-7.228,18.807,18.807,0,0,0-1.783-2.783v1.215H543.375v-1.33a18.337,18.337,0,0,0-1.778,2.753,34.764,34.764,0,0,0-3.51,16,35.174,35.174,0,0,0,3.536,16.06,15.575,15.575,0,0,0,3.828,4.891v-1.576h10.416v.71a13.79,13.79,0,0,0,.991-1.127,18.335,18.335,0,0,0,1.778-2.753,28.77,28.77,0,0,0,2.572-7.184h-1.343Z" transform="translate(-535.597 -427.977)" fill="#00603a"/>
              <path id="Path_112" data-name="Path 112" d="M560.006,445.6v-8.8H561.3a29.163,29.163,0,0,0-2.575-7.2,18.765,18.765,0,0,0-1.776-2.773v1.148h-13.4v-1.262a18.286,18.286,0,0,0-1.772,2.743,34.64,34.64,0,0,0-3.5,15.942,35.054,35.054,0,0,0,3.524,16,15.52,15.52,0,0,0,3.814,4.873v-1.5h9.331v1.581a15.1,15.1,0,0,0,3.806-4.808,28.657,28.657,0,0,0,2.563-7.158h-1.3Z" transform="translate(-535.739 -428.201)" fill="#00613a"/>
              <path id="Path_113" data-name="Path 113" d="M560.148,445.819V437.05h1.25a29.071,29.071,0,0,0-2.565-7.176,18.675,18.675,0,0,0-1.77-2.764v1.081H543.708V427a18.207,18.207,0,0,0-1.765,2.733,34.514,34.514,0,0,0-3.485,15.885,34.926,34.926,0,0,0,3.511,15.945,15.461,15.461,0,0,0,3.8,4.856v-1.426h9.3v1.506a15.049,15.049,0,0,0,3.792-4.791,28.553,28.553,0,0,0,2.554-7.132h-1.264Z" transform="translate(-535.882 -428.424)" fill="#00623b"/>
              <path id="Path_114" data-name="Path 114" d="M560.29,446.042v-8.737h1.21a28.958,28.958,0,0,0-2.556-7.15,18.625,18.625,0,0,0-1.763-2.753v1.013H543.874v-1.127a18.148,18.148,0,0,0-1.759,2.723,34.393,34.393,0,0,0-3.473,15.827,34.8,34.8,0,0,0,3.5,15.887,15.4,15.4,0,0,0,3.786,4.838v-1.352h9.264v1.431a15,15,0,0,0,3.779-4.774,28.452,28.452,0,0,0,2.544-7.106H560.29Z" transform="translate(-536.024 -428.647)" fill="#00633b"/>
              <path id="Path_115" data-name="Path 115" d="M560.433,446.265V437.56h1.17a28.851,28.851,0,0,0-2.547-7.124,18.554,18.554,0,0,0-1.757-2.743v.946H544.041v-1.059a18.06,18.06,0,0,0-1.753,2.713,34.263,34.263,0,0,0-3.46,15.77,34.671,34.671,0,0,0,3.486,15.829,15.345,15.345,0,0,0,3.773,4.821v-1.277h9.231v1.356a14.943,14.943,0,0,0,3.765-4.756,28.348,28.348,0,0,0,2.535-7.08h-1.184Z" transform="translate(-536.166 -428.871)" fill="#00643c"/>
              <path id="Path_116" data-name="Path 116" d="M560.575,446.488v-8.674h1.13a28.75,28.75,0,0,0-2.538-7.1,18.48,18.48,0,0,0-1.751-2.733v.879H544.207v-.992a17.987,17.987,0,0,0-1.746,2.7,34.143,34.143,0,0,0-3.448,15.712,34.551,34.551,0,0,0,3.473,15.772,15.3,15.3,0,0,0,3.759,4.8v-1.2h9.2v1.281a14.892,14.892,0,0,0,3.751-4.739,28.254,28.254,0,0,0,2.526-7.055h-1.145Z" transform="translate(-536.308 -429.094)" fill="#00653d"/>
              <path id="Path_117" data-name="Path 117" d="M560.718,446.711v-8.642h1.091A28.644,28.644,0,0,0,559.28,431a18.43,18.43,0,0,0-1.744-2.723v.811H544.374v-.924a17.934,17.934,0,0,0-1.74,2.694A34.016,34.016,0,0,0,539.2,446.51a34.423,34.423,0,0,0,3.46,15.714,15.241,15.241,0,0,0,3.745,4.786v-1.127h9.164v1.206a14.832,14.832,0,0,0,3.737-4.722,28.142,28.142,0,0,0,2.517-7.029h-1.1Z" transform="translate(-536.451 -429.317)" fill="#00663d"/>
              <path id="Path_118" data-name="Path 118" d="M560.861,446.934v-8.61h1.051a28.532,28.532,0,0,0-2.519-7.046,18.339,18.339,0,0,0-1.738-2.714v.744H544.541v-.856a17.875,17.875,0,0,0-1.734,2.684,33.89,33.89,0,0,0-3.422,15.6,34.294,34.294,0,0,0,3.448,15.656,15.183,15.183,0,0,0,3.732,4.768v-1.052h9.13v1.13a14.779,14.779,0,0,0,3.724-4.7,28.036,28.036,0,0,0,2.508-7h-1.065Z" transform="translate(-536.594 -429.541)" fill="#00673e"/>
              <path id="Path_119" data-name="Path 119" d="M561,447.156v-8.578h1.011a28.444,28.444,0,0,0-2.51-7.02,18.281,18.281,0,0,0-1.731-2.7v.677H544.707v-.789a17.832,17.832,0,0,0-1.727,2.674,33.768,33.768,0,0,0-3.41,15.54,34.17,34.17,0,0,0,3.435,15.6,15.127,15.127,0,0,0,3.718,4.75v-.978h9.1v1.055a14.728,14.728,0,0,0,3.71-4.687,27.94,27.94,0,0,0,2.5-6.977H561Z" transform="translate(-536.736 -429.763)" fill="#00683e"/>
              <path id="Path_120" data-name="Path 120" d="M561.145,447.379v-8.547h.972a28.338,28.338,0,0,0-2.5-6.994,18.224,18.224,0,0,0-1.725-2.694v.61H544.874v-.721a17.769,17.769,0,0,0-1.721,2.664,33.642,33.642,0,0,0-3.4,15.483,34.042,34.042,0,0,0,3.422,15.541,15.069,15.069,0,0,0,3.7,4.733v-.9h9.063v.98a14.663,14.663,0,0,0,3.7-4.67,27.82,27.82,0,0,0,2.489-6.952h-.985Z" transform="translate(-536.879 -429.987)" fill="#00693f"/>
              <path id="Path_121" data-name="Path 121" d="M561.287,447.6v-8.515h.932a28.228,28.228,0,0,0-2.491-6.968,18.144,18.144,0,0,0-1.719-2.684v.543H545.04v-.654a17.7,17.7,0,0,0-1.714,2.654,33.519,33.519,0,0,0-3.385,15.425,33.917,33.917,0,0,0,3.41,15.484,15.016,15.016,0,0,0,3.691,4.715v-.828h9.029v.905a14.618,14.618,0,0,0,3.683-4.652,27.736,27.736,0,0,0,2.48-6.926h-.946Z" transform="translate(-537.021 -430.21)" fill="#00693f"/>
              <path id="Path_122" data-name="Path 122" d="M561.594,448.082v-8.447h.846a28,28,0,0,0-2.471-6.913,17.983,17.983,0,0,0-1.7-2.662v.4H545.4v-.508a17.529,17.529,0,0,0-1.7,2.633,33.252,33.252,0,0,0-3.358,15.3,33.647,33.647,0,0,0,3.382,15.36,14.9,14.9,0,0,0,3.661,4.678v-.667h8.957V468a14.5,14.5,0,0,0,3.653-4.615,27.506,27.506,0,0,0,2.46-6.87h-.86Z" transform="translate(-537.327 -430.69)" fill="#016a3f"/>
              <path id="Path_123" data-name="Path 123" d="M561.9,448.561v-8.379h.761a27.766,27.766,0,0,0-2.452-6.857,17.851,17.851,0,0,0-1.691-2.641v.253H545.757v-.363a17.4,17.4,0,0,0-1.687,2.612,32.981,32.981,0,0,0-3.33,15.179A33.372,33.372,0,0,0,544.1,463.6a14.776,14.776,0,0,0,3.631,4.64v-.506h8.885v.582a14.381,14.381,0,0,0,3.624-4.578,27.293,27.293,0,0,0,2.44-6.815H561.9Z" transform="translate(-537.634 -431.17)" fill="#036b3f"/>
              <path id="Path_124" data-name="Path 124" d="M563.778,449.04a33.1,33.1,0,0,0-3.328-15.112,17.717,17.717,0,0,0-1.678-2.619v.109H546.115V431.2a17.237,17.237,0,0,0-1.673,2.59,32.714,32.714,0,0,0-3.3,15.055,33.1,33.1,0,0,0,3.328,15.112,14.657,14.657,0,0,0,3.6,4.6v-.346h8.812v.421a14.268,14.268,0,0,0,3.594-4.541A32.712,32.712,0,0,0,563.778,449.04Z" transform="translate(-537.94 -431.651)" fill="#046c3f"/>
              <path id="Path_125" data-name="Path 125" d="M563.992,446.35a32.831,32.831,0,0,0-3.3-14.988,17.582,17.582,0,0,0-1.664-2.6,13.264,13.264,0,0,0-.927-1.068v1.032H546.474v-.072a17.12,17.12,0,0,0-1.659,2.569,32.444,32.444,0,0,0-3.276,14.932,32.83,32.83,0,0,0,3.3,14.988,14.535,14.535,0,0,0,3.572,4.564v-.185h8.74v.26a14.148,14.148,0,0,0,3.565-4.5A32.443,32.443,0,0,0,563.992,446.35Z" transform="translate(-538.246 -428.961)" fill="#056d3f"/>
              <path id="Path_126" data-name="Path 126" d="M564.205,446.555a32.557,32.557,0,0,0-3.273-14.864,17.428,17.428,0,0,0-1.65-2.576,13.137,13.137,0,0,0-.919-1.059v.879H547.749v-.97a12.77,12.77,0,0,0-.917,1.043,16.97,16.97,0,0,0-1.646,2.548,32.176,32.176,0,0,0-3.249,14.808,32.559,32.559,0,0,0,3.273,14.864,14.411,14.411,0,0,0,3.543,4.527v-.024h8.668v.1a14.032,14.032,0,0,0,3.536-4.466A32.177,32.177,0,0,0,564.205,446.555Z" transform="translate(-538.552 -429.167)" fill="#066d3f"/>
              <path id="Path_127" data-name="Path 127" d="M564.419,444.441a32.286,32.286,0,0,0-3.246-14.74,14.293,14.293,0,0,0-3.513-4.489v1.61H548.1v-.815a12.692,12.692,0,0,0-.91,1.034,16.828,16.828,0,0,0-1.632,2.527,31.907,31.907,0,0,0-3.222,14.685c.009,11.491,4.96,20.849,11.058,20.9S564.428,455.932,564.419,444.441Z" transform="translate(-538.859 -427.053)" fill="#086e3f"/>
              <path id="Path_128" data-name="Path 128" d="M564.632,444.73a32.019,32.019,0,0,0-3.219-14.616,14.18,14.18,0,0,0-3.484-4.451v1.449h-8.524v-1.522a13.8,13.8,0,0,0-3.476,4.392,31.64,31.64,0,0,0-3.2,14.562c.009,11.395,4.919,20.674,10.965,20.726S564.642,456.125,564.632,444.73Z" transform="translate(-539.165 -427.343)" fill="#096f3f"/>
              <path id="Path_129" data-name="Path 129" d="M564.846,445.263a31.749,31.749,0,0,0-3.191-14.493,14.051,14.051,0,0,0-3.454-4.414v1.288h-8.451v-1.36a13.681,13.681,0,0,0-3.447,4.355,31.373,31.373,0,0,0-3.168,14.438c.009,11.3,4.877,20.5,10.872,20.55S564.855,456.561,564.846,445.263Z" transform="translate(-539.471 -427.877)" fill="#0a703f"/>
              <path id="Path_130" data-name="Path 130" d="M565.059,445.794a31.477,31.477,0,0,0-3.164-14.369,13.934,13.934,0,0,0-3.425-4.376v1.127h-8.379v-1.2a13.563,13.563,0,0,0-3.418,4.317,31.105,31.105,0,0,0-3.141,14.315c.009,11.2,4.835,20.324,10.78,20.374S565.068,457,565.059,445.794Z" transform="translate(-539.777 -428.409)" fill="#0b713f"/>
              <path id="Path_131" data-name="Path 131" d="M565.273,446.326a31.2,31.2,0,0,0-3.137-14.245,13.811,13.811,0,0,0-3.4-4.338v.967h-8.307v-1.038a13.454,13.454,0,0,0-3.388,4.28,30.838,30.838,0,0,0-3.114,14.191c.009,11.105,4.793,20.148,10.687,20.2S565.282,457.431,565.273,446.326Z" transform="translate(-540.084 -428.942)" fill="#0d723f"/>
              <path id="Path_132" data-name="Path 132" d="M565.486,446.858a30.935,30.935,0,0,0-3.109-14.121,13.7,13.7,0,0,0-3.366-4.3v.806h-8.235v-.876a13.333,13.333,0,0,0-3.359,4.243,30.569,30.569,0,0,0-3.087,14.068c.009,11.008,4.752,19.973,10.594,20.023S565.495,457.867,565.486,446.858Z" transform="translate(-540.39 -429.475)" fill="#0e733f"/>
              <path id="Path_133" data-name="Path 133" d="M565.7,447.391a30.661,30.661,0,0,0-3.082-14,13.574,13.574,0,0,0-3.336-4.263v.645h-8.162v-.715a13.212,13.212,0,0,0-3.329,4.206,30.3,30.3,0,0,0-3.06,13.945c.009,10.912,4.71,19.8,10.5,19.847S565.708,458.3,565.7,447.391Z" transform="translate(-540.696 -430.008)" fill="#0f743f"/>
              <path id="Path_134" data-name="Path 134" d="M565.913,447.923a30.389,30.389,0,0,0-3.055-13.873,13.45,13.45,0,0,0-3.307-4.225v.484h-8.09v-.553a13.1,13.1,0,0,0-3.3,4.169,30.03,30.03,0,0,0-3.033,13.821c.009,10.816,4.669,19.623,10.408,19.672S565.922,458.738,565.913,447.923Z" transform="translate(-541.002 -430.541)" fill="#10753f"/>
              <path id="Path_135" data-name="Path 135" d="M566.127,448.454A30.116,30.116,0,0,0,563.1,434.7a13.337,13.337,0,0,0-3.277-4.187v.323H551.8v-.392a12.979,12.979,0,0,0-3.27,4.131,29.766,29.766,0,0,0-3.006,13.7c.009,10.719,4.627,19.447,10.315,19.5S566.135,459.173,566.127,448.454Z" transform="translate(-541.309 -431.073)" fill="#12753f"/>
              <path id="Path_136" data-name="Path 136" d="M566.34,448.986a29.845,29.845,0,0,0-3-13.626,13.214,13.214,0,0,0-3.247-4.149v.163h-7.946v-.231a12.86,12.86,0,0,0-3.241,4.094,29.5,29.5,0,0,0-2.979,13.574c.009,10.622,4.585,19.272,10.222,19.32S566.349,459.609,566.34,448.986Z" transform="translate(-541.615 -431.606)" fill="#13763f"/>
              <ellipse id="Ellipse_1" data-name="Ellipse 1" cx="10.113" cy="19.059" rx="10.113" ry="19.059" transform="translate(4.32 -1.72) rotate(-0.257)" fill="#14773f"/>
              <ellipse id="Ellipse_2" data-name="Ellipse 2" cx="10.021" cy="18.884" rx="10.021" ry="18.884" transform="translate(4.414 -1.546) rotate(-0.257)" fill="#157840"/>
              <ellipse id="Ellipse_3" data-name="Ellipse 3" cx="9.928" cy="18.709" rx="9.928" ry="18.709" transform="translate(4.507 -1.372) rotate(-0.257)" fill="#167940"/>
              <ellipse id="Ellipse_4" data-name="Ellipse 4" cx="9.835" cy="18.534" rx="9.835" ry="18.534" transform="translate(4.601 -1.197) rotate(-0.257)" fill="#187a40"/>
              <ellipse id="Ellipse_5" data-name="Ellipse 5" cx="9.742" cy="18.359" rx="9.742" ry="18.359" transform="translate(4.694 -1.023) rotate(-0.257)" fill="#197b40"/>
              <ellipse id="Ellipse_6" data-name="Ellipse 6" cx="9.649" cy="18.185" rx="9.649" ry="18.185" transform="matrix(1, -0.004, 0.004, 1, 4.788, -0.848)" fill="#1a7b40"/>
              <ellipse id="Ellipse_7" data-name="Ellipse 7" cx="9.557" cy="18.01" rx="9.557" ry="18.01" transform="translate(4.881 -0.674) rotate(-0.257)" fill="#1b7c40"/>
              <ellipse id="Ellipse_8" data-name="Ellipse 8" cx="9.464" cy="17.835" rx="9.464" ry="17.835" transform="matrix(1, -0.004, 0.004, 1, 4.975, -0.499)" fill="#1d7d40"/>
              <ellipse id="Ellipse_9" data-name="Ellipse 9" cx="9.371" cy="17.66" rx="9.371" ry="17.66" transform="matrix(1, -0.004, 0.004, 1, 5.069, -0.325)" fill="#1e7e40"/>
              <ellipse id="Ellipse_10" data-name="Ellipse 10" cx="9.278" cy="17.485" rx="9.278" ry="17.485" transform="translate(5.162 -0.15) rotate(-0.257)" fill="#1f7f40"/>
              <ellipse id="Ellipse_11" data-name="Ellipse 11" cx="9.186" cy="17.31" rx="9.186" ry="17.31" transform="translate(5.256 0.024) rotate(-0.257)" fill="#208040"/>
              <ellipse id="Ellipse_12" data-name="Ellipse 12" cx="9.093" cy="17.135" rx="9.093" ry="17.135" transform="matrix(1, -0.004, 0.004, 1, 5.349, 0.198)" fill="#218040"/>
              <ellipse id="Ellipse_13" data-name="Ellipse 13" cx="9" cy="16.961" rx="9" ry="16.961" transform="matrix(1, -0.004, 0.004, 1, 5.443, 0.373)" fill="#238140"/>
              <ellipse id="Ellipse_14" data-name="Ellipse 14" cx="8.907" cy="16.786" rx="8.907" ry="16.786" transform="translate(5.536 0.547) rotate(-0.257)" fill="#248240"/>
              <ellipse id="Ellipse_15" data-name="Ellipse 15" cx="8.814" cy="16.611" rx="8.814" ry="16.611" transform="translate(5.63 0.722) rotate(-0.257)" fill="#258340"/>
              <ellipse id="Ellipse_16" data-name="Ellipse 16" cx="8.722" cy="16.436" rx="8.722" ry="16.436" transform="translate(5.724 0.896) rotate(-0.257)" fill="#268440"/>
              <ellipse id="Ellipse_17" data-name="Ellipse 17" cx="8.629" cy="16.261" rx="8.629" ry="16.261" transform="translate(5.817 1.071) rotate(-0.257)" fill="#278540"/>
              <ellipse id="Ellipse_18" data-name="Ellipse 18" cx="8.536" cy="16.086" rx="8.536" ry="16.086" transform="translate(5.911 1.245) rotate(-0.257)" fill="#288640"/>
              <ellipse id="Ellipse_19" data-name="Ellipse 19" cx="8.443" cy="15.911" rx="8.443" ry="15.911" transform="translate(6.004 1.419) rotate(-0.257)" fill="#2a8640"/>
              <ellipse id="Ellipse_20" data-name="Ellipse 20" cx="8.35" cy="15.737" rx="8.35" ry="15.737" transform="matrix(1, -0.004, 0.004, 1, 6.098, 1.594)" fill="#2b8740"/>
              <ellipse id="Ellipse_21" data-name="Ellipse 21" cx="8.258" cy="15.562" rx="8.258" ry="15.562" transform="translate(6.191 1.768) rotate(-0.257)" fill="#2c8840"/>
              <ellipse id="Ellipse_22" data-name="Ellipse 22" cx="8.165" cy="15.387" rx="8.165" ry="15.387" transform="matrix(1, -0.004, 0.004, 1, 6.285, 1.943)" fill="#2d8940"/>
              <ellipse id="Ellipse_23" data-name="Ellipse 23" cx="8.072" cy="15.212" rx="8.072" ry="15.212" transform="translate(6.378 2.117) rotate(-0.257)" fill="#2e8a40"/>
              <ellipse id="Ellipse_24" data-name="Ellipse 24" cx="7.979" cy="15.037" rx="7.979" ry="15.037" transform="translate(6.472 2.292) rotate(-0.257)" fill="#2f8a40"/>
              <ellipse id="Ellipse_25" data-name="Ellipse 25" cx="7.887" cy="14.862" rx="7.887" ry="14.862" transform="translate(6.566 2.466) rotate(-0.257)" fill="#318b40"/>
              <ellipse id="Ellipse_26" data-name="Ellipse 26" cx="7.794" cy="14.687" rx="7.794" ry="14.687" transform="translate(6.659 2.64) rotate(-0.257)" fill="#328c40"/>
              <ellipse id="Ellipse_27" data-name="Ellipse 27" cx="7.701" cy="14.513" rx="7.701" ry="14.513" transform="translate(6.753 2.815) rotate(-0.257)" fill="#338d40"/>
              <ellipse id="Ellipse_28" data-name="Ellipse 28" cx="7.608" cy="14.338" rx="7.608" ry="14.338" transform="translate(6.846 2.989) rotate(-0.257)" fill="#348e40"/>
              <ellipse id="Ellipse_29" data-name="Ellipse 29" cx="7.515" cy="14.163" rx="7.515" ry="14.163" transform="matrix(1, -0.004, 0.004, 1, 6.94, 3.164)" fill="#358e40"/>
              <ellipse id="Ellipse_30" data-name="Ellipse 30" cx="7.423" cy="13.988" rx="7.423" ry="13.988" transform="translate(7.033 3.338) rotate(-0.257)" fill="#368f40"/>
              <ellipse id="Ellipse_31" data-name="Ellipse 31" cx="7.33" cy="13.813" rx="7.33" ry="13.813" transform="translate(7.127 3.513) rotate(-0.257)" fill="#379040"/>
              <ellipse id="Ellipse_32" data-name="Ellipse 32" cx="7.237" cy="13.638" rx="7.237" ry="13.638" transform="matrix(1, -0.004, 0.004, 1, 7.221, 3.687)" fill="#399140"/>
              <ellipse id="Ellipse_33" data-name="Ellipse 33" cx="7.144" cy="13.464" rx="7.144" ry="13.464" transform="matrix(1, -0.004, 0.004, 1, 7.314, 3.861)" fill="#3a9240"/>
              <ellipse id="Ellipse_34" data-name="Ellipse 34" cx="7.052" cy="13.289" rx="7.052" ry="13.289" transform="translate(7.408 4.036) rotate(-0.257)" fill="#3b9240"/>
              <ellipse id="Ellipse_35" data-name="Ellipse 35" cx="6.959" cy="13.114" rx="6.959" ry="13.114" transform="translate(7.501 4.21) rotate(-0.257)" fill="#3c9340"/>
              <ellipse id="Ellipse_36" data-name="Ellipse 36" cx="6.866" cy="12.939" rx="6.866" ry="12.939" transform="matrix(1, -0.004, 0.004, 1, 7.595, 4.385)" fill="#3d9440"/>
              <ellipse id="Ellipse_37" data-name="Ellipse 37" cx="6.773" cy="12.764" rx="6.773" ry="12.764" transform="matrix(1, -0.004, 0.004, 1, 7.688, 4.559)" fill="#3e9540"/>
              <ellipse id="Ellipse_38" data-name="Ellipse 38" cx="6.68" cy="12.589" rx="6.68" ry="12.589" transform="translate(7.782 4.734) rotate(-0.257)" fill="#3f9641"/>
              <ellipse id="Ellipse_39" data-name="Ellipse 39" cx="6.588" cy="12.414" rx="6.588" ry="12.414" transform="translate(7.876 4.908) rotate(-0.257)" fill="#409641"/>
              <ellipse id="Ellipse_40" data-name="Ellipse 40" cx="6.495" cy="12.24" rx="6.495" ry="12.24" transform="translate(7.969 5.083) rotate(-0.257)" fill="#419741"/>
              <ellipse id="Ellipse_41" data-name="Ellipse 41" cx="6.402" cy="12.065" rx="6.402" ry="12.065" transform="translate(8.063 5.257) rotate(-0.257)" fill="#439841"/>
              <ellipse id="Ellipse_42" data-name="Ellipse 42" cx="6.309" cy="11.89" rx="6.309" ry="11.89" transform="matrix(1, -0.004, 0.004, 1, 8.156, 5.431)" fill="#449941"/>
              <ellipse id="Ellipse_43" data-name="Ellipse 43" cx="6.216" cy="11.715" rx="6.216" ry="11.715" transform="translate(8.25 5.606) rotate(-0.257)" fill="#459941"/>
              <ellipse id="Ellipse_44" data-name="Ellipse 44" cx="6.124" cy="11.54" rx="6.124" ry="11.54" transform="translate(8.343 5.78) rotate(-0.257)" fill="#469a41"/>
              <ellipse id="Ellipse_45" data-name="Ellipse 45" cx="6.031" cy="11.365" rx="6.031" ry="11.365" transform="matrix(1, -0.004, 0.004, 1, 8.437, 5.955)" fill="#479b41"/>
              <ellipse id="Ellipse_46" data-name="Ellipse 46" cx="5.938" cy="11.19" rx="5.938" ry="11.19" transform="matrix(1, -0.004, 0.004, 1, 8.53, 6.129)" fill="#489c41"/>
              <ellipse id="Ellipse_47" data-name="Ellipse 47" cx="5.845" cy="11.016" rx="5.845" ry="11.016" transform="translate(8.624 6.304) rotate(-0.257)" fill="#499c41"/>
              <ellipse id="Ellipse_48" data-name="Ellipse 48" cx="5.753" cy="10.841" rx="5.753" ry="10.841" transform="translate(8.718 6.478) rotate(-0.257)" fill="#4a9d41"/>
              <ellipse id="Ellipse_49" data-name="Ellipse 49" cx="5.66" cy="10.666" rx="5.66" ry="10.666" transform="translate(8.811 6.652) rotate(-0.257)" fill="#4b9e41"/>
              <ellipse id="Ellipse_50" data-name="Ellipse 50" cx="5.567" cy="10.491" rx="5.567" ry="10.491" transform="translate(8.905 6.827) rotate(-0.257)" fill="#4c9f41"/>
              <ellipse id="Ellipse_51" data-name="Ellipse 51" cx="5.474" cy="10.316" rx="5.474" ry="10.316" transform="translate(8.998 7.001) rotate(-0.257)" fill="#4d9f41"/>
              <ellipse id="Ellipse_52" data-name="Ellipse 52" cx="5.381" cy="10.141" rx="5.381" ry="10.141" transform="translate(9.092 7.176) rotate(-0.257)" fill="#4ea041"/>
              <ellipse id="Ellipse_53" data-name="Ellipse 53" cx="5.289" cy="9.967" rx="5.289" ry="9.967" transform="translate(9.185 7.35) rotate(-0.257)" fill="#4fa141"/>
              <ellipse id="Ellipse_54" data-name="Ellipse 54" cx="5.196" cy="9.792" rx="5.196" ry="9.792" transform="translate(9.279 7.525) rotate(-0.257)" fill="#50a241"/>
              <ellipse id="Ellipse_55" data-name="Ellipse 55" cx="5.103" cy="9.617" rx="5.103" ry="9.617" transform="translate(9.373 7.699) rotate(-0.257)" fill="#51a241"/>
              <ellipse id="Ellipse_56" data-name="Ellipse 56" cx="5.01" cy="9.442" rx="5.01" ry="9.442" transform="translate(9.466 7.873) rotate(-0.257)" fill="#52a341"/>
              <ellipse id="Ellipse_57" data-name="Ellipse 57" cx="4.918" cy="9.267" rx="4.918" ry="9.267" transform="matrix(1, -0.004, 0.004, 1, 9.56, 8.048)" fill="#53a441"/>
              <ellipse id="Ellipse_58" data-name="Ellipse 58" cx="4.825" cy="9.092" rx="4.825" ry="9.092" transform="matrix(1, -0.004, 0.004, 1, 9.653, 8.222)" fill="#54a441"/>
              <ellipse id="Ellipse_59" data-name="Ellipse 59" cx="4.732" cy="8.917" rx="4.732" ry="8.917" transform="translate(9.747 8.397) rotate(-0.257)" fill="#55a541"/>
              <ellipse id="Ellipse_60" data-name="Ellipse 60" cx="4.639" cy="8.743" rx="4.639" ry="8.743" transform="translate(9.84 8.571) rotate(-0.257)" fill="#56a641"/>
              <ellipse id="Ellipse_61" data-name="Ellipse 61" cx="4.546" cy="8.568" rx="4.546" ry="8.568" transform="matrix(1, -0.004, 0.004, 1, 9.934, 8.746)" fill="#57a741"/>
              <ellipse id="Ellipse_62" data-name="Ellipse 62" cx="4.454" cy="8.393" rx="4.454" ry="8.393" transform="translate(10.028 8.92) rotate(-0.257)" fill="#58a741"/>
              <ellipse id="Ellipse_63" data-name="Ellipse 63" cx="4.361" cy="8.218" rx="4.361" ry="8.218" transform="translate(10.121 9.094) rotate(-0.257)" fill="#59a841"/>
              <ellipse id="Ellipse_64" data-name="Ellipse 64" cx="4.268" cy="8.043" rx="4.268" ry="8.043" transform="translate(10.215 9.269) rotate(-0.257)" fill="#5aa941"/>
              <ellipse id="Ellipse_65" data-name="Ellipse 65" cx="4.175" cy="7.868" rx="4.175" ry="7.868" transform="translate(10.308 9.443) rotate(-0.257)" fill="#5ba941"/>
              <ellipse id="Ellipse_66" data-name="Ellipse 66" cx="4.082" cy="7.693" rx="4.082" ry="7.693" transform="translate(10.402 9.618) rotate(-0.257)" fill="#5caa41"/>
              <ellipse id="Ellipse_67" data-name="Ellipse 67" cx="3.99" cy="7.519" rx="3.99" ry="7.519" transform="translate(10.495 9.792) rotate(-0.257)" fill="#5dab41"/>
              <ellipse id="Ellipse_68" data-name="Ellipse 68" cx="3.897" cy="7.344" rx="3.897" ry="7.344" transform="translate(10.589 9.967) rotate(-0.257)" fill="#5eab41"/>
              <ellipse id="Ellipse_69" data-name="Ellipse 69" cx="3.804" cy="7.169" rx="3.804" ry="7.169" transform="translate(10.683 10.141) rotate(-0.257)" fill="#5fac41"/>
              <ellipse id="Ellipse_70" data-name="Ellipse 70" cx="3.711" cy="6.994" rx="3.711" ry="6.994" transform="translate(10.776 10.316) rotate(-0.257)" fill="#60ad41"/>
              <ellipse id="Ellipse_71" data-name="Ellipse 71" cx="3.619" cy="6.819" rx="3.619" ry="6.819" transform="matrix(1, -0.004, 0.004, 1, 10.87, 10.49)" fill="#61ad41"/>
              <ellipse id="Ellipse_72" data-name="Ellipse 72" cx="3.526" cy="6.644" rx="3.526" ry="6.644" transform="translate(10.963 10.664) rotate(-0.257)" fill="#62ae41"/>
              <ellipse id="Ellipse_73" data-name="Ellipse 73" cx="3.433" cy="6.469" rx="3.433" ry="6.469" transform="translate(11.057 10.839) rotate(-0.257)" fill="#63af41"/>
              <ellipse id="Ellipse_74" data-name="Ellipse 74" cx="3.34" cy="6.295" rx="3.34" ry="6.295" transform="translate(11.15 11.013) rotate(-0.257)" fill="#64af41"/>
              <ellipse id="Ellipse_75" data-name="Ellipse 75" cx="3.247" cy="6.12" rx="3.247" ry="6.12" transform="matrix(1, -0.004, 0.004, 1, 11.244, 11.188)" fill="#65b041"/>
              <ellipse id="Ellipse_76" data-name="Ellipse 76" cx="3.155" cy="5.945" rx="3.155" ry="5.945" transform="translate(11.337 11.362) rotate(-0.257)" fill="#66b141"/>
              <ellipse id="Ellipse_77" data-name="Ellipse 77" cx="3.062" cy="5.77" rx="3.062" ry="5.77" transform="translate(11.431 11.537) rotate(-0.257)" fill="#66b141"/>
              <ellipse id="Ellipse_78" data-name="Ellipse 78" cx="2.969" cy="5.595" rx="2.969" ry="5.595" transform="translate(11.525 11.711) rotate(-0.257)" fill="#67b241"/>
              <ellipse id="Ellipse_79" data-name="Ellipse 79" cx="2.876" cy="5.42" rx="2.876" ry="5.42" transform="translate(11.618 11.885) rotate(-0.257)" fill="#68b242"/>
              <ellipse id="Ellipse_80" data-name="Ellipse 80" cx="2.783" cy="5.246" rx="2.783" ry="5.246" transform="translate(11.712 12.06) rotate(-0.257)" fill="#69b342"/>
              <ellipse id="Ellipse_81" data-name="Ellipse 81" cx="2.691" cy="5.071" rx="2.691" ry="5.071" transform="translate(11.805 12.234) rotate(-0.257)" fill="#6ab442"/>
              <ellipse id="Ellipse_82" data-name="Ellipse 82" cx="2.598" cy="4.896" rx="2.598" ry="4.896" transform="matrix(1, -0.004, 0.004, 1, 11.899, 12.409)" fill="#6bb442"/>
              <ellipse id="Ellipse_83" data-name="Ellipse 83" cx="2.505" cy="4.721" rx="2.505" ry="4.721" transform="translate(11.992 12.583) rotate(-0.257)" fill="#6cb542"/>
              <ellipse id="Ellipse_84" data-name="Ellipse 84" cx="2.412" cy="4.546" rx="2.412" ry="4.546" transform="matrix(1, -0.004, 0.004, 1, 12.086, 12.758)" fill="#6db542"/>
              <ellipse id="Ellipse_85" data-name="Ellipse 85" cx="2.32" cy="4.371" rx="2.32" ry="4.371" transform="matrix(1, -0.004, 0.004, 1, 12.18, 12.932)" fill="#6db642"/>
              <ellipse id="Ellipse_86" data-name="Ellipse 86" cx="2.227" cy="4.196" rx="2.227" ry="4.196" transform="translate(12.273 13.106) rotate(-0.257)" fill="#6eb742"/>
              <ellipse id="Ellipse_87" data-name="Ellipse 87" cx="2.134" cy="4.022" rx="2.134" ry="4.022" transform="translate(12.367 13.281) rotate(-0.257)" fill="#6fb742"/>
              <ellipse id="Ellipse_88" data-name="Ellipse 88" cx="2.041" cy="3.847" rx="2.041" ry="3.847" transform="translate(12.46 13.455) rotate(-0.257)" fill="#70b842"/>
              <ellipse id="Ellipse_89" data-name="Ellipse 89" cx="1.948" cy="3.672" rx="1.948" ry="3.672" transform="translate(12.554 13.63) rotate(-0.257)" fill="#71b842"/>
              <ellipse id="Ellipse_90" data-name="Ellipse 90" cx="1.856" cy="3.497" rx="1.856" ry="3.497" transform="matrix(1, -0.004, 0.004, 1, 12.647, 13.804)" fill="#71b942"/>
              <ellipse id="Ellipse_91" data-name="Ellipse 91" cx="1.763" cy="3.322" rx="1.763" ry="3.322" transform="translate(12.741 13.979) rotate(-0.257)" fill="#72b942"/>
              <ellipse id="Ellipse_92" data-name="Ellipse 92" cx="1.67" cy="3.147" rx="1.67" ry="3.147" transform="matrix(1, -0.004, 0.004, 1, 12.835, 14.153)" fill="#73ba42"/>
              <ellipse id="Ellipse_93" data-name="Ellipse 93" cx="1.577" cy="2.972" rx="1.577" ry="2.972" transform="translate(12.928 14.327) rotate(-0.257)" fill="#74ba42"/>
              <ellipse id="Ellipse_94" data-name="Ellipse 94" cx="1.485" cy="2.798" rx="1.485" ry="2.798" transform="translate(13.022 14.502) rotate(-0.257)" fill="#74bb42"/>
              <ellipse id="Ellipse_95" data-name="Ellipse 95" cx="1.392" cy="2.623" rx="1.392" ry="2.623" transform="translate(13.115 14.676) rotate(-0.257)" fill="#75bb42"/>
              <ellipse id="Ellipse_96" data-name="Ellipse 96" cx="1.299" cy="2.448" rx="1.299" ry="2.448" transform="translate(13.209 14.851) rotate(-0.257)" fill="#76bc42"/>
              <ellipse id="Ellipse_97" data-name="Ellipse 97" cx="1.206" cy="2.273" rx="1.206" ry="2.273" transform="matrix(1, -0.004, 0.004, 1, 13.302, 15.025)" fill="#76bc42"/>
              <ellipse id="Ellipse_98" data-name="Ellipse 98" cx="1.113" cy="2.098" rx="1.113" ry="2.098" transform="translate(13.396 15.2) rotate(-0.257)" fill="#77bd42"/>
              <ellipse id="Ellipse_99" data-name="Ellipse 99" cx="1.021" cy="1.923" rx="1.021" ry="1.923" transform="translate(13.489 15.374) rotate(-0.257)" fill="#78bd42"/>
              <ellipse id="Ellipse_100" data-name="Ellipse 100" cx="0.928" cy="1.749" rx="0.928" ry="1.749" transform="matrix(1, -0.004, 0.004, 1, 13.583, 15.549)" fill="#78be42"/>
              <ellipse id="Ellipse_101" data-name="Ellipse 101" cx="0.835" cy="1.574" rx="0.835" ry="1.574" transform="translate(13.677 15.723) rotate(-0.257)" fill="#79be42"/>
              <ellipse id="Ellipse_102" data-name="Ellipse 102" cx="0.742" cy="1.399" rx="0.742" ry="1.399" transform="translate(13.77 15.897) rotate(-0.257)" fill="#7abf42"/>
              <ellipse id="Ellipse_103" data-name="Ellipse 103" cx="0.649" cy="1.224" rx="0.649" ry="1.224" transform="translate(13.864 16.072) rotate(-0.257)" fill="#7abf42"/>
              <ellipse id="Ellipse_104" data-name="Ellipse 104" cx="0.557" cy="1.049" rx="0.557" ry="1.049" transform="translate(13.957 16.246) rotate(-0.257)" fill="#7bbf42"/>
              <ellipse id="Ellipse_105" data-name="Ellipse 105" cx="0.464" cy="0.874" rx="0.464" ry="0.874" transform="translate(14.051 16.421) rotate(-0.257)" fill="#7bc042"/>
              <ellipse id="Ellipse_106" data-name="Ellipse 106" cx="0.371" cy="0.699" rx="0.371" ry="0.699" transform="translate(14.144 16.595) rotate(-0.257)" fill="#7cc042"/>
              <ellipse id="Ellipse_107" data-name="Ellipse 107" cx="0.278" cy="0.525" rx="0.278" ry="0.525" transform="matrix(1, -0.004, 0.004, 1, 14.238, 16.77)" fill="#7cc142"/>
              <ellipse id="Ellipse_108" data-name="Ellipse 108" cx="0.186" cy="0.35" rx="0.186" ry="0.35" transform="translate(14.332 16.944) rotate(-0.257)" fill="#7dc142"/>
              <ellipse id="Ellipse_109" data-name="Ellipse 109" cx="0.093" cy="0.175" rx="0.093" ry="0.175" transform="translate(14.425 17.118) rotate(-0.257)" fill="#7dc142"/>
            </g>
          </g>
        </g>
      </g>
    </g>
  </g>
</svg>
