<?xml version="1.0" encoding="utf-8"?>
<!-- Generator: Adobe Illustrator 27.9.0, SVG Export Plug-In . SVG Version: 6.00 Build 0)  -->
<svg version="1.0" id="Layer_1" xmlns="http://www.w3.org/2000/svg" xmlns:xlink="http://www.w3.org/1999/xlink" x="0px" y="0px"
	 viewBox="0 0 173.3 203" enable-background="new 0 0 173.3 203" xml:space="preserve">
<path fill-rule="evenodd" clip-rule="evenodd" fill="#FFED00" d="M1.3,73.1c0.2,5.5,0.6,10.8,1.1,16.4c0.4,4.2,0.9,8.2,1.6,12.3
	c3,17.6,7,30.7,14,46.9c13.9,27.9,33.5,45.2,66.4,52c1,0.2,1.4,0.3,1.7,0.3c0.5,0,0.9-0.2,2.6-0.6c38.4-10.1,58.8-32.8,69.7-61.2
	c15.6-40.6,11.7-92.9,11.7-137.9c-1.4,0.7-2.8,1.7-4.1,2.5c-24.1,14.4-52.1,22.2-80.1,22C50.1,25.6,32.1,17.4,1.6,1.3
	c0,8.8-0.3,17.8-0.3,26.7C1.3,42.7,0.5,58.5,1.3,73.1"/>
<path fill="#E31E24" d="M11,115.6C7.4,99.7,6,83.8,5.8,65.2L6.2,8.8C33.8,24.1,54.3,29,80.6,30.5L11,115.6z"/>
<path fill="#2B2A29" d="M12,119.3c0.2,0.7,0.3,1.2,0.4,1.8c4,15.1,10.1,30.3,19.1,42.7c5.8,8,13.5,15.6,22.4,20.8
	c8.6,5,19.9,9.5,32.1,12.1c12.3-2.7,23.5-7.1,32.1-12.2c8.9-5.2,16.6-12.8,22.4-20.8c8.9-12.3,15-27.5,19.1-42.7
	c4.6-17.8,6.6-35.1,6.5-55.9l-0.4-56.4c-29.5,16.3-50.8,20.8-79.7,22c-0.6,0-1.2-0.1-1.8-0.1L12,119.3z"/>
<path fill="#FFED00" d="M110.4,120.3L110.4,120.3C110.4,120.4,110.4,120.4,110.4,120.3c2.1,4,3.1,8.2,3.1,12.9
	c0,15.6-12.6,28.2-27.9,28.2c-15.3,0-27.8-12.6-27.8-28.2c0-4.6,1.1-9,3.1-12.9l13.6,0v-9.2h-3.8V86.8l-8.7,7.3v17.1h-3.8l0,8
	c-3.9,5.6-6.3,12.6-6.3,20c0,19,15.2,34.3,33.8,34.3c18.6,0,34-15.3,34-34.3c0-6.9-2-13.4-5.6-18.9h6.3v-9.1h-4.7l0-9.3l-8.3,2.6
	v6.5c-1.7-1.8-3.5-3.1-6-4.1c1.2,1.1,2.4,2.6,3.7,4.3l-3.4,0l-2.3-5.5c-0.2-0.7-0.2-1.2-0.2-1.5c0-2.3,1.8-4.2,4.1-4.2
	c1.7,0,3.3,1.1,3.9,2.7l7.9-2.5c-1.7-5-6.4-8.7-11.8-8.7c-6.8,0-12.4,5.7-12.4,12.7c0,1.2,0.2,2.3,0.5,3.4l1.4,3.5h-4.2v-22
	c4.8-4.6,7.6-10.4,7.6-16.4c0-3.4-1.2-6.9-3.6-10.4L79.1,41.6v52.9c-0.4,0.6-0.8,1.2-1.3,1.8c-0.5-5.7-3.3-10.6-6.2-13.2l-1,1.2
	c4,4.7,5.6,8.2,5.6,14.4c-0.6,3.4-1.5,6.7,0.9,10.1l2,2.4H76v9.1h20.1l2.8,7.1c0.7,1.8,1.2,3.8,1.2,5.7c0,8.1-6.6,14.6-14.5,14.6
	c-7.9,0-14.4-6.6-14.4-14.6c0.2-3.9,1.8-8.8,3.1-10.7l-9.2,0c-1.6,3.3-2.6,6.9-2.6,10.7c0,13,10.4,23.5,23.1,23.5
	c12.7,0,23.3-10.5,23.3-23.5c0-3.1-0.7-6.3-1.8-9.1l-1.6-3.8H110.4z M69.2,81.6L69.2,81.6l0-6.3l5.9-1.9l-5.9-2v-6.3l-3.6,5
	l-5.9-1.9l3.6,5.1l-3.7,5l5.9-1.9L69.2,81.6z M88.3,87.1L88.3,87.1V59c1.4,2.2,2.8,4.4,4.3,6.5c2.4,4.4,2.2,9.1,1,13
	C92.5,82.3,90.2,85.5,88.3,87.1z M79.1,108.8c-1.5-1.2-2.3-3.5-2.2-5.4c0-1.8,0.5-3.1,0.9-4.4c0.2-0.5,0.8-1.3,1.2-2V108.8z"/>
<path fill="#FEFEFE" d="M30,30.5L30,30.5c3.4,0,6.6,0.9,9.3,2.4c2.1,1.1,4,2.7,5.6,4.5c-1.7-1.2-3.8-2.2-5.7-2.7
	c-3.5-1.1-8.3-0.4-11.9,1.6c-4.9,2.9-8.1,8.3-7.9,14c-0.2,4.3,2.2,10.4,6.9,13.4c0.9,0.6,3,2.2,7.1,2.7c1.8,0.2,5.7,0,8.8-1.5
	c1-0.6,1.9-1.2,3-1.9c-1.3,1.6-3,3.1-4.7,4.2c-3,1.9-6.6,3-10.4,3c-5.4,0-10.3-2.3-13.8-5.9c-3.6-3.6-5.7-8.6-5.7-14
	s2.2-10.5,5.7-14.1C19.7,32.7,24.6,30.5,30,30.5 M50.1,57.4v-5.5L45,50.2l5.1-1.7l0-5.5l3.1,4.4l5.2-1.7l-3.2,4.5l3.2,4.4L53.2,53
	L50.1,57.4z"/>
<path fill="#FFED00" d="M45.6,157.8L45.6,157.8l0.4-0.4c0.2-0.1,0.5-0.2,0.7,0.1l0.4,0.4c0.2,0.2,0.2,0.6,0,0.8l-0.4,0.4
	c-0.2,0.2-0.6,0.2-0.7-0.1l-0.4-0.4C45.4,158.2,45.3,157.9,45.6,157.8 M44.7,158.4L44.7,158.4l1.1,1.3l-6,5.4l-1.1-1.3L44.7,158.4z
	 M44.8,166.9L44.8,166.9l-0.2,0.3c-0.4,0.6-0.3,1.2,0.3,1.9c0.3,0.3,0.6,0.5,0.9,0.5c0.4,0.1,0.7,0,1-0.3c0.2-0.2,0.2-0.5,0.1-0.8
	c-0.1-0.3-0.2-0.6-0.3-0.8l-0.6-1.2c-0.1-0.3-0.3-0.6-0.4-0.8c-0.3-0.8-0.2-1.5,0.4-2.1c0.6-0.6,1.2-0.8,2-0.7
	c0.7,0.1,1.3,0.5,1.9,1.1c0.4,0.4,0.7,0.8,0.9,1.3c0.1,0.3,0.2,0.6,0.2,0.9c0,0.6-0.2,1.1-0.6,1.5l-0.1,0.1l-1.2-1.2
	c0.5-0.6,0.5-1.2-0.1-1.7c-0.2-0.2-0.5-0.4-0.8-0.5c-0.4-0.1-0.7,0-0.9,0.2c-0.2,0.3-0.3,0.6-0.1,1c0.1,0.2,0.1,0.4,0.3,0.6l0.8,1.5
	c0.2,0.4,0.3,0.7,0.4,1.1c0.1,0.6-0.1,1.2-0.6,1.7c-0.2,0.2-0.5,0.4-0.7,0.5c-0.3,0.1-0.6,0.2-0.9,0.2c-0.4,0-0.8,0-1.1-0.2
	c-0.5-0.2-0.9-0.5-1.3-0.9c-1.5-1.5-1.7-2.8-0.6-4.1l0.1-0.2L44.8,166.9z M58.9,171.2L58.9,171.2l-0.7,1l-2-1.5l-4,5.6l-1.3-1l4-5.6
	l-2-1.5l0.7-1L58.9,171.2z M62.5,173L62.5,173l1.9,0.9l-0.5,8.7l-1.7-0.8l0.1-1.9l-3.1-1.4l-1.2,1.4l-1.6-0.7L62.5,173z M60.2,177.6
	L60.2,177.6l2.3,1.1l0.4-4.1L60.2,177.6z M71.2,176.4L71.2,176.4l1.1,6.8l1.7-5.9l1.5,0.4l-2.2,7.8l-2.2-0.7l-1.1-6.9l-1.7,6.1
	l-1.5-0.4l2.2-7.8L71.2,176.4z M77.6,178L77.6,178l1.8,0.2l1.2,0.1c0.9,0.1,1.5,0.3,1.8,0.5c0.6,0.4,0.8,1,0.8,1.8
	c-0.1,0.8-0.5,1.4-1.3,1.6l-0.4,0.1l0.5,0.2c0.9,0.4,1.3,1.1,1.2,2c0,0.6-0.3,1.1-0.7,1.4c-0.2,0.2-0.5,0.3-0.8,0.4
	c-0.4,0.1-0.8,0.2-1.2,0.2c-0.2,0-0.6-0.1-1.2-0.1l-0.8-0.1l-1.5-0.1L77.6,178z M78.6,185L78.6,185l0.6,0l0.4,0c0.5,0,0.9,0,1.2-0.1
	c0.4-0.2,0.6-0.5,0.7-0.9c0-0.4-0.1-0.7-0.4-0.9c-0.2-0.2-0.5-0.3-0.9-0.4l-0.8-0.1l-0.6-0.1L78.6,185z M79,181.4L79,181.4l0.6,0
	l0.5,0c0.9,0,1.3-0.3,1.4-0.9c0-0.6-0.4-1-1.3-1.1l-0.5,0l-0.6-0.1L79,181.4z M87.1,178.6L87.1,178.6l0.4,4.5l0,0.5
	c0.1,1.4,0.8,2,1.8,1.9c1.1-0.1,1.6-0.8,1.6-2l0-0.6l-0.4-4.5l1.7-0.1l0.4,4.5c0,0.4,0,0.6,0,0.9c0,0.4,0,0.8-0.1,1.1
	c-0.2,0.6-0.6,1.1-1.1,1.5c-0.5,0.4-1.1,0.5-1.8,0.6c-0.7,0.1-1.4,0-1.9-0.3c-0.6-0.3-1.1-0.8-1.4-1.4c-0.2-0.4-0.2-0.8-0.3-1.3
	l0-0.5l-0.4-4.5L87.1,178.6z M96.4,177.5L96.4,177.5l1.5,6.7l3.3-0.8l0.3,1.2l-4.9,1.2l-1.8-7.9L96.4,177.5z M105,180.9L105,180.9
	l0.1,0.3c0.3,0.7,1,0.9,1.8,0.5c0.4-0.2,0.7-0.3,0.9-0.6c0.3-0.3,0.3-0.7,0.2-1c-0.1-0.3-0.3-0.4-0.7-0.4c-0.3,0-0.6,0-0.8,0
	l-1.3,0.1c-0.3,0-0.6,0-0.9,0c-0.8-0.1-1.4-0.5-1.7-1.3c-0.3-0.8-0.2-1.5,0.2-2.2c0.4-0.6,1-1,1.8-1.3c0.5-0.2,1-0.3,1.5-0.3
	c0.3,0,0.6,0.1,0.9,0.2c0.5,0.3,0.9,0.6,1.1,1.2l0.1,0.2l-1.5,0.6c-0.3-0.7-0.9-1-1.6-0.7c-0.3,0.1-0.6,0.3-0.8,0.6
	c-0.2,0.3-0.3,0.6-0.2,0.9c0.1,0.4,0.4,0.5,0.9,0.5c0.2,0,0.4,0,0.6,0l1.6-0.1c0.4,0,0.8,0,1.1,0.1c0.6,0.2,1,0.6,1.2,1.2
	c0.1,0.3,0.2,0.6,0.2,0.9c0,0.3-0.1,0.6-0.2,0.9c-0.2,0.4-0.4,0.7-0.6,0.9c-0.4,0.4-0.9,0.7-1.4,0.9c-1.9,0.8-3.2,0.4-3.9-1.2
	l-0.1-0.2L105,180.9z M109.5,173.1L109.5,173.1l2-1.2l0.5-0.3c0.2-0.1,0.5-0.3,0.8-0.4c0.3-0.1,0.5-0.2,0.8-0.3c0.4,0,0.9,0,1.3,0.3
	c0.4,0.2,0.7,0.6,1,1c0.4,0.8,0.5,1.5,0.2,2.2c-0.2,0.5-0.8,1-1.6,1.6l-0.5,0.3l-0.6,0.3l1.5,2.7l-1.4,0.8L109.5,173.1z
	 M111.5,173.3L111.5,173.3l1.2,2.2l0.6-0.4c0.2-0.1,0.4-0.3,0.6-0.4c0.6-0.5,0.8-1.1,0.4-1.7c-0.4-0.7-1-0.8-1.7-0.4l-0.5,0.3
	L111.5,173.3z M118.4,172.3L118.4,172.3c-0.5-0.6-0.9-1.3-1.1-2c-0.1-0.4-0.2-0.9-0.1-1.3c0-0.4,0.2-0.8,0.4-1.2
	c0.3-0.5,0.6-0.9,1.1-1.3c0.8-0.7,1.7-1,2.6-0.9c0.5,0,0.9,0.2,1.3,0.4c0.5,0.4,1.1,0.8,1.6,1.4c1.8,2.2,1.7,4.1-0.2,5.7
	C122,174.8,120.1,174.5,118.4,172.3z M119.7,171.2L119.7,171.2c1.2,1.6,2.4,1.9,3.5,1c1.1-0.9,1-2.1-0.2-3.6c-0.4-0.6-0.9-1-1.4-1.3
	c-0.6-0.4-1.3-0.3-2,0.3c-0.2,0.2-0.4,0.4-0.6,0.7C118.4,169.1,118.7,170.1,119.7,171.2z M124.7,161.3L124.7,161.3l0.5-0.5
	c0.5-0.6,1-1.1,1.3-1.3c0.6-0.4,1.2-0.5,1.7-0.3c0.3,0.1,0.5,0.3,0.7,0.4c0.4,0.4,0.6,0.8,0.7,1.2c0,0.4-0.1,0.8-0.3,1.4
	c0.6-0.5,1.1-0.7,1.6-0.4c0.2,0.1,0.5,0.3,0.8,0.5c0.4,0.3,0.8,0.5,1.1,0.7c0.2,0.1,0.4,0.2,0.5,0.3l0.2,0.1l-1.2,1.4l-0.2-0.1
	c-0.2-0.1-0.6-0.4-1.1-0.7c-0.7-0.5-1.3-0.8-1.5-0.7c-0.2,0-0.4,0.2-0.7,0.5l-0.4,0.5l-0.5,0.6l2.4,2.2l-1.1,1.3l-6-5.4L124.7,161.3
	z M127,164l0.7-0.8l0.2-0.3c0.6-0.8,0.6-1.4,0.1-1.9c-0.1-0.1-0.2-0.2-0.3-0.2c-0.4-0.2-0.9,0-1.5,0.6l-0.4,0.4l-0.5,0.6L127,164z"
	/>
<path fill="#FFED00" d="M148,43.8L148,43.8c-0.1-0.7-0.5-0.9-1.1-0.9c-0.5,0-0.9,0.2-1.1,0.5c-0.3,0.4-0.5,1.1-0.7,2l0,0.6l0.2-0.3
	c0.5-0.6,1.1-0.9,2-0.9c1,0,1.8,0.5,2.3,1.5c0.2,0.4,0.3,0.8,0.3,1.2c0,0.9-0.3,1.6-1,2.2c-0.6,0.5-1.3,0.8-2.2,0.8
	c-1.1,0-1.9-0.4-2.5-1.3c-0.4-0.7-0.6-1.6-0.6-2.8c0-0.6,0-1.2,0.2-1.8c0.1-0.9,0.5-1.6,1.1-2.2c0.6-0.5,1.3-0.8,2.2-0.8
	c0.7,0,1.3,0.1,1.8,0.5c0.5,0.3,0.8,0.9,0.9,1.6l0,0.2H148V43.8z M135.2,48.7L135.2,48.7l0.3-0.3c0.4-0.3,0.8-0.6,1.3-1.1
	c0.5-0.5,1-0.9,1.4-1.3c0.2-0.2,0.5-0.5,0.7-0.7c0.2-0.2,0.3-0.5,0.5-0.8c0.1-0.2,0.1-0.4,0.1-0.6c0-0.5-0.2-0.8-0.7-1
	c-0.2-0.1-0.4-0.1-0.6-0.1c-0.6,0-1,0.4-1.2,1.1l-0.1,0.1h-1.6v-0.3c0-0.8,0.4-1.3,1-1.7c0.6-0.3,1.2-0.4,2-0.4c0.8,0,1.5,0.2,2,0.5
	c0.6,0.4,0.9,1,0.9,1.8c0,0.4-0.1,0.8-0.2,1.1c-0.2,0.5-0.5,0.9-0.9,1.3c-0.3,0.4-0.8,0.7-1.2,1.1c-0.6,0.5-1,0.8-1.4,1.1l-0.7,0.5
	h4.6v1.3h-6.3V48.7z M119.5,42.9L119.5,42.9c0.3-0.1,0.5-0.2,0.9-0.5c0.2-0.2,0.5-0.3,0.6-0.5l0.2-0.2h1.5v8.5h-1.6v-6.9l-0.3,0.2
	c-0.2,0.2-0.5,0.3-0.7,0.5c-0.3,0.2-0.6,0.3-0.8,0.4l-0.3,0.1v-1.5L119.5,42.9z M128.3,48.1L128.3,48.1l0,0.3
	c0.1,0.5,0.5,0.7,1.2,0.8c0.5,0,0.9-0.2,1.1-0.5c0.1-0.2,0.2-0.3,0.3-0.5c0.2-0.5,0.3-1.1,0.3-1.9l0.1-0.4l-0.3,0.2
	c-0.5,0.6-1.1,0.9-1.8,0.9c-0.3,0-0.8-0.1-1.1-0.2c-0.4-0.1-0.7-0.3-0.9-0.6c-0.5-0.5-0.7-1.1-0.7-1.9c0-0.8,0.3-1.6,0.9-2.1
	c0.6-0.4,1.3-0.7,2.3-0.7c1.2,0,2.1,0.4,2.5,1.3c0.5,0.6,0.7,1.6,0.7,3c0,1.8-0.4,3-1,3.7c-0.3,0.3-0.6,0.5-0.9,0.6
	c-0.5,0.2-1,0.3-1.6,0.3c-0.6,0-1.3-0.2-1.8-0.4c-0.5-0.3-0.9-0.8-0.9-1.5l0-0.3H128.3z M128.2,44.4L128.2,44.4c0,0.4,0.2,0.8,0.4,1
	c0.3,0.3,0.6,0.4,1,0.4c0.5,0,0.8-0.1,1-0.5c0.3-0.3,0.4-0.7,0.4-1.1c0-0.4-0.1-0.8-0.4-1.1c-0.2-0.3-0.5-0.4-1-0.4
	c-0.5,0-0.8,0.1-1.1,0.5C128.3,43.6,128.2,44,128.2,44.4z M145.4,47.5c0,0.5,0.1,0.9,0.3,1.2c0.2,0.3,0.6,0.5,1,0.5
	c0.3,0,0.5-0.1,0.8-0.3c0.2-0.2,0.4-0.4,0.5-0.7c0.1-0.2,0.1-0.4,0.1-0.6c0-0.5-0.1-0.9-0.3-1.2c-0.3-0.3-0.6-0.5-1.1-0.5
	c-0.4,0-0.8,0.2-1,0.5C145.5,46.7,145.4,47.1,145.4,47.5z"/>
</svg>
