<?xml version="1.0" encoding="utf-8"?>
<!-- Generator: Adobe Illustrator 21.1.0, SVG Export Plug-In . SVG Version: 6.00 Build 0)  -->
<svg version="1.1" id="Layer_1" xmlns="http://www.w3.org/2000/svg" xmlns:xlink="http://www.w3.org/1999/xlink" x="0px" y="0px"
	 viewBox="0 0 356.2 284" style="enable-background:new 0 0 356.2 284;" xml:space="preserve">
<g>
	<g>
		<g>
			<g>
				<path style="fill:#009444;" d="M106.5,209.2c-1.7-7.3-4.7-14-8.2-19.9c-3.5-6-7.4-11.4-11.2-16.7l-5.6-7.9
					c-1.8-2.6-3.6-5.2-5.3-7.8c-1.6-2.6-3.2-5.3-4.7-8c0,0,0-0.1-0.1-0.2c-1.4-2.6-2.7-5.2-3.8-7.9c-1.7-4.1-2.9-8.3-3.4-12.4
					c0-1.9,0.3-3.8,0.8-5.5c0.4-1,0.9-2.1,1.5-3.2c0.6-1.1,1.3-2,2.1-2.9c1.9-1.9,4.2-3.3,7-4.2c0.7-0.2,1.4-0.4,2.1-0.6
					c3.9-0.9,7.9,0.1,11,2.4l0.1,0.1c-3-4.7-17.2-12.5-12.7-17.4l0.6-0.7c0.1-0.1,0.1-0.1,0.2-0.2c0.4-0.3,0.8-1.1,1.9-0.6
					c1.7,0.9,2.3-1.2,4.1-0.2c0,0,0,0,0,0c0.8,1.2,2.2,2,3.9,1.8c1.7-0.2,3.1-1.7,3.3-3.4c0.2-1.4-0.4-2.7-1.4-3.5
					c0.2-0.6,0.7-1.6,0.9-2.4c0.5-2.8-0.6-5.6-4.1-7.8c-4.5-2.9-5.4-1.3-5.4-1.3c-0.8-0.2-1.8-0.1-2.7,0.3c-0.5,0.2-1,0.6-1.5,1
					c-0.6,0.4-1.2,0.8-2,0.8c-0.7,0.1-1.6,0-2.2,0c-1,0-0.1,1.5-0.1,1.5s-0.3,0.7-0.8,0.7c-0.4,0-0.1,0.6-0.3,0.8
					c-0.2,0.2-0.5-0.1-0.5,0.5c-0.1,0.5-0.7,0.4-1,0.8c-0.4,0.5-0.7,1-0.6,1.7c0.1,0.5,0.6,1.3,1.1,1.9c0.2,0.3,0.4,0.5,0.5,0.7
					c0.1,0.1,0.1,0.2,0.1,0.3c0.1,0.2,0.1,0.4,0.2,0.6c0.1,0.4,0.1,0.9,0.1,1.4c0,0.2-0.1,0.4-0.1,0.6c0,0.1,0,0.1-0.1,0.2
					c0,0.1-0.1,0.3-0.2,0.4c0,0.1,0,0.1-0.1,0.2c-0.1,0.2-0.2,0.3-0.3,0.5c0,0,0,0.1-0.1,0.1c-0.1,0.1-0.2,0.2-0.3,0.3
					c0,0-0.1,0.1-0.2,0.1c-0.1,0.1-0.2,0.1-0.3,0.2c-0.1,0-0.1,0.1-0.2,0.1c-0.1,0.1-0.3,0.2-0.4,0.2c0,0,0,0,0,0c0,0,0,0,0,0
					c-0.2,0.1-0.3,0.1-0.5,0.1c0,0,0,0,0,0c0,0,0,0,0,0c-0.2,0-0.4,0-0.6,0c-0.8-0.1-1.4-0.5-1.9-1.2c0,0,0,0,0,0
					c-1.3-1.8-2.3-4.1-3-6.7c-0.6-2-0.6-3.4-0.7-5c0-0.9,0-1.8,0.1-2.7c0-0.7,0.1-1.4,0.2-2c0-0.2,0.1-0.5,0.1-0.7
					c0-0.4,0.1-0.9,0.2-1.3c0-0.3,0.1-0.5,0.1-0.8c0-0.2,0.1-0.4,0.1-0.5c0-0.2,0.1-0.4,0.1-0.6c0-0.3,0.1-0.6,0.2-0.9
					c0-0.2,0.1-0.5,0.1-0.7c0-0.1,0-0.2,0.1-0.3c0.1-0.3,0.1-0.6,0.2-0.9c0.1-0.3,0.1-0.7,0.2-1c0.1-0.3,0.2-0.6,0.2-0.9
					c0.1-0.3,0.2-0.6,0.3-0.9c0.1-0.3,0.2-0.6,0.3-0.9c0-0.2,0.1-0.3,0.1-0.5c0-0.1,0.1-0.3,0.1-0.4c0.1-0.3,0.2-0.6,0.3-0.9
					c0.1-0.3,0.2-0.6,0.3-0.8c0.1-0.3,0.2-0.6,0.4-0.9c0.1-0.3,0.2-0.5,0.3-0.8c0.1-0.3,0.3-0.6,0.4-0.9c0.1-0.3,0.2-0.5,0.3-0.8
					c0.1-0.3,0.3-0.6,0.4-0.9c0.1-0.2,0.2-0.5,0.4-0.7c0.2-0.3,0.3-0.6,0.5-0.9c0.1-0.2,0.3-0.4,0.4-0.7c0.2-0.3,0.4-0.6,0.5-0.9
					c0-0.1,0.1-0.2,0.2-0.2c0.1-0.1,0.2-0.2,0.2-0.4c0.2-0.3,0.4-0.6,0.6-0.9c0.1-0.1,0.2-0.2,0.3-0.4c0-0.1,0.1-0.1,0.1-0.2
					c0.2-0.3,0.4-0.6,0.7-0.9c0.1-0.1,0.2-0.3,0.3-0.4c0.3-0.3,0.5-0.7,0.8-1l0,0c0.4-0.4,0.7-0.9,1.1-1.3l0.1,0.2l3,9.2
					c0.3,0.9,1.5,0.9,1.8,0L81.6,49c0.1-0.4,0.5-0.6,0.9-0.6h12.1c0.6,0,1-0.5,0.9-1c0,0,0,0,0,0c0,0,0,0,0,0l0,0
					c0-0.2-0.1-0.5-0.4-0.6l-7.2-5.2l-1.7-1.2L85.9,40l-0.5-0.3c-0.3-0.2-0.5-0.7-0.3-1l3.7-11.4c0.1-0.3,0-0.5-0.1-0.7c0,0,0,0,0,0
					c0-0.1-0.1-0.1-0.1-0.2c0,0,0,0,0,0c-0.1,0-0.1-0.1-0.2-0.1c0,0-0.1,0-0.1,0c0,0-0.1,0-0.2-0.1c0,0-0.1,0-0.1,0c0,0-0.1,0-0.1,0
					c-0.1,0-0.1,0-0.2,0c0,0-0.1,0-0.1,0c-0.1,0-0.2,0.1-0.3,0.1l-9.8,7c-0.3,0.2-0.8,0.2-1.1,0l-9.8-7c-0.1-0.1-0.2-0.1-0.3-0.1
					c0,0-0.1,0-0.1,0c-0.1,0-0.1,0-0.2,0c0,0-0.1,0-0.1,0c-0.1,0-0.1,0-0.1,0c0,0-0.1,0-0.1,0c0,0-0.1,0-0.1,0.1c0,0-0.1,0-0.1,0.1
					c0,0,0,0-0.1,0.1c0,0-0.1,0.1-0.1,0.1c0,0,0,0,0,0c-0.1,0.1-0.1,0.3-0.1,0.4c0,0,0,0,0,0l0,0c0,0.1,0,0.2,0,0.3L69,38.6
					c0.1,0.4,0,0.8-0.3,1l-0.3,0.2l-9.5,6.8c-0.1,0.1-0.2,0.2-0.3,0.3c0,0,0,0.1,0,0.1c0,0,0,0,0,0c0,0.1-0.1,0.2-0.1,0.3
					c0,0,0,0,0,0c0,0,0,0,0,0.1c0,0,0,0,0,0c0,0.2,0.1,0.5,0.2,0.7l0,0l0,0c0.2,0.2,0.4,0.3,0.7,0.3h8.9c4-3.3,8.4-5.7,13.4-7.1
					c0,0,0.1,0,0.1,0c-0.8,0.4-1.6,0.8-2.3,1.2c-3.1,1.6-6,3.6-8.6,6c-0.3,0.2-0.5,0.5-0.8,0.7c-9.9,9.7-15.7,25.4-16.4,43.7
					c0,0,0,0,0,0c0,0.2,0,0.3-0.1,0.5c-0.1,0.2-0.1,0.4-0.2,0.6c0,0,0,0.1-0.1,0.1c-1.3,3-3.2,5-5.1,6.2c-0.1,0.1-0.3,0.2-0.4,0.3
					c-0.9,0.6-1.6,1.4-2.1,2.3c-0.4,0.9-0.6,1.8-0.5,2.8c0,0.2,0,0.3,0,0.4c0,0.1,0,0.1,0,0.2c0,0.1,0,0.1,0,0.2
					c0.1,1.9-0.2,2.1-1.1,4.9c-1,3.2-0.6,7.5-0.6,7.5c0.1,1.7,0.4,3.3,0.8,4.9c0,0,0,0,0,0c0,0,0,0,0,0c0.3,1.2,0.6,2.3,1,3.4
					c3.6,10.5,18.3,35.2,19,36.5c1.6,2.9,3.1,5.8,4.7,8.6l4.5,8.5C79.4,192,84,203.2,86,213.6c1,5.2,1.3,10.2,0.6,15
					c-0.7,4.8-2.6,9.3-5.4,13.3c-1.6,2.3-3.5,4.3-5.7,6.1c-0.3,0.2-0.5,0.4-0.7,0.5c-2.8,1.9-5.8,3.3-8.9,4.2
					c-3.9,1.1-8,1.3-11.7,0.6c-3.7-0.8-7-2.7-9.2-5.5c-1.1-1.4-2-3-2.6-4.8c-0.7-1.7-1.2-3.7-1.5-5.6c-0.7-4-0.7-8.2-0.5-12.5
					c0.3-4.3,0.8-8.6,1.6-13c0.8-4.3,1.8-8.7,2.8-13c1.1-4.3,2.3-8.7,3.6-13c0.7-2.2,1.3-4.4,2-6.5c0.5-1.5,1.9-5.9,2.9-9.3
					l-0.1-0.1c-1.1,2.6-2.2,5.1-3.3,7.7c-2.6,6.3-5,12.8-7.1,19.3c-2,6.5-3.9,13.1-5,19.9c-1.1,6.7-1.7,13.5-0.8,20.1
					c0.4,3.2,1.3,6.4,2.8,9.2c1.4,2.8,3.4,5.1,5.9,6.6c4.6,3,10.3,3.4,15.8,2.3c0,0,0.1,0,0.1,0c-1.9,0.5-3.9,0.7-5.9,0.8
					c-4.9,0.2-9.5-1.1-13-3.7c-3.6-2.6-6.1-6.9-7.4-12.1c-1.3-5.2-1.3-11.1-0.6-17c0.7-5.9,2.1-12,3.9-17.9c1.8-6,4.1-11.9,6.5-17.7
					c2.5-5.9,5.2-11.6,8-17.4l-0.4-0.3c-4,5.1-8.2,10-11.7,15.5c-3.5,5.5-7.1,11.1-10,17c-2.8,6-5.2,12.2-6.9,18.9
					c-1.6,6.6-2.6,13.7-1.6,21.2c0.5,3.7,1.4,7.5,3.1,11.2c1.7,3.6,4.1,7.1,7.2,10c3.1,2.9,6.8,5.1,10.6,6.6
					c3.9,1.5,7.9,2.3,11.9,2.5c8,0.4,15.9-1.3,22.9-4.5c7.1-3.3,13.5-8.1,18.5-14.3c5-6.2,8.6-13.7,10.1-21.4
					c0.8-3.9,1.1-7.8,1.1-11.7C107.9,216.7,107.4,212.9,106.5,209.2z"/>
				<path style="fill:#009444;" d="M80,141.9c-0.2,0.2-0.4,0.5-0.6,0.7c-0.2,0.2-0.3,0.4-0.5,0.6c-0.1,0.2-0.3,0.3-0.5,0.5l0.7,1.3
					c0.4-0.2,0.8-0.5,1.2-0.8c2.3-1.5,4.4-3.3,6.3-5.4c1-1.1,1.8-2.2,2.6-3.3c0.1-0.2,0.3-0.4,0.4-0.6c0.1-0.1,0.1-0.2,0.2-0.3
					c0,0,0,0,0,0c0.2-0.3,0.3-0.5,0.5-0.8c0,0,0,0,0-0.1c1-1.8,1.7-3.8,2-6c0.4-4.5-1.3-8.9-5-11.6c0,0,0,0,0,0
					c-2.5-1.9-5.8-2.5-8.9-2c-3.7,0.5-7.1,2.3-9.6,4.9c5.1-2.4,10.2-2.6,13.5,0.2c4.9,4.2,4.1,13.4-1.7,21.6
					C80.5,141.2,80.3,141.6,80,141.9z"/>
			</g>
		</g>
		<g>
			<g>
				<path style="fill:#009444;" d="M108,48.4h4.3v11h0.1l8.7-11h4.8l-7.5,9.4l8.7,14.7h-4.8l-6.5-11.4l-3.5,4.3v7H108V48.4z"/>
				<path style="fill:#009444;" d="M139.9,66h-8.1l-1.9,6.5h-4.4l8-24.1h5.1l7.9,24.1h-4.6L139.9,66z M138.9,62.6l-0.9-3
					c-0.7-2.5-1.5-5.3-2.2-8h-0.1c-0.7,2.7-1.4,5.4-2.2,8l-0.9,3H138.9z"/>
				<path style="fill:#009444;" d="M147.7,48.4h6.5c7.4,0,11.9,4,11.9,12c0,8-4.4,12.2-11.6,12.2h-6.7V48.4z M153.9,69
					c4.9,0,7.7-2.8,7.7-8.7c0-5.9-2.8-8.5-7.7-8.5h-1.9V69H153.9z"/>
				<path style="fill:#009444;" d="M169.4,48.4h4.3v24.1h-4.3V48.4z"/>
				<path style="fill:#009444;" d="M178.3,48.4h4.4l7.5,13.6l2.5,5.1h0.1c-0.2-2.5-0.6-5.5-0.6-8.2V48.4h4.1v24.1h-4.4l-7.5-13.6
					l-2.5-5.1h-0.1c0.2,2.5,0.6,5.5,0.6,8.2v10.6h-4.1V48.4z"/>
			</g>
			<g>
				<path style="fill:#009444;" d="M118.3,84.9c3.4,0,5.7,1.5,7.2,3.1l-2.4,2.7c-1.2-1.2-2.6-2-4.8-2c-4.3,0-7.2,3.3-7.2,8.7
					c0,5.5,2.6,8.8,7.5,8.8c1.3,0,2.7-0.4,3.5-1.1v-5.2h-4.6v-3.5h8.4v10.6c-1.7,1.5-4.5,2.9-7.8,2.9c-6.5,0-11.4-4.4-11.4-12.4
					C106.7,89.6,111.7,84.9,118.3,84.9z"/>
				<path style="fill:#009444;" d="M129.2,81c0-1.4,1.2-2.4,2.7-2.4c1.5,0,2.6,1,2.6,2.4c0,1.4-1.2,2.4-2.6,2.4
					C130.3,83.4,129.2,82.4,129.2,81z M129.7,85.4h4.3v24.1h-4.3V85.4z"/>
				<path style="fill:#009444;" d="M151.8,109.5l-5.2-9.4h-3.7v9.4h-4.3V85.4h8.2c5.1,0,9,1.8,9,7.2c0,3.7-1.9,5.9-4.9,6.9l5.8,10.1
					H151.8z M142.9,96.7h3.4c3.3,0,5.1-1.4,5.1-4.1c0-2.8-1.8-3.7-5.1-3.7h-3.4V96.7z"/>
				<path style="fill:#009444;" d="M158.7,81c0-1.4,1.2-2.4,2.7-2.4c1.5,0,2.6,1,2.6,2.4c0,1.4-1.2,2.4-2.6,2.4
					C159.9,83.4,158.7,82.4,158.7,81z M159.3,85.4h4.3v24.1h-4.3V85.4z"/>
				<path style="fill:#009444;" d="M179,96.3c2.9,1.2,4.9,3,4.9,6.5c0,3.6-2.7,6.6-7.4,7.1l-0.6,1.3c1.3,0.4,2.2,1.2,2.2,2.7
					c0,2.3-2.8,3.4-6,3.6l-0.4-1.8c1.9-0.2,3.2-0.7,3.2-1.7c0-0.8-0.7-1.3-2.3-1.7l1.2-2.4c-2.8-0.3-5.5-1.5-7.5-3.5l2.5-2.9
					c1.7,1.6,4.1,2.7,6.4,2.7c2.7,0,4.2-1.2,4.2-3.1c0-2-1.6-2.6-3.8-3.5l-3.3-1.4c-2.4-1-4.9-2.9-4.9-6.4c0-3.8,3.4-6.8,8.1-6.8
					c2.9,0,5.6,1.2,7.5,3.1l-2.2,2.7c-1.5-1.3-3.2-2.1-5.3-2.1c-2.3,0-3.8,1.1-3.8,2.8c0,1.9,1.9,2.6,3.9,3.4L179,96.3z"/>
				<path style="fill:#009444;" d="M186.3,81c0-1.4,1.2-2.4,2.7-2.4c1.5,0,2.6,1,2.6,2.4c0,1.4-1.2,2.4-2.6,2.4
					C187.4,83.4,186.3,82.4,186.3,81z M186.8,85.4h4.3v24.1h-4.3V85.4z"/>
				<path style="fill:#009444;" d="M195.7,85.4h4.7l4.4,11.9l1.6,4.6h0.1l1.6-4.6l4.3-11.9h4.8v24.1h-4.1v-11c0-2.3,0.3-5.5,0.6-7.7
					h-0.1l-2,5.5l-4.2,11h-2l-4.2-11l-1.9-5.5h-0.1c0.2,2.2,0.5,5.4,0.5,7.7v11h-3.9V85.4z"/>
				<path style="fill:#009444;" d="M231.7,84.9c3,0,5.4,1.4,6.9,3.1l-2.4,2.7c-1.3-1.2-2.6-2-4.5-2c-4,0-6.8,3.3-6.8,8.7
					c0,5.5,2.6,8.8,6.7,8.8c2.2,0,3.8-0.9,5.1-2.4l2.4,2.6c-2,2.3-4.5,3.5-7.6,3.5c-6.2,0-11-4.4-11-12.4
					C220.5,89.6,225.5,84.9,231.7,84.9z"/>
				<path style="fill:#009444;" d="M241.1,81c0-1.4,1.2-2.4,2.7-2.4c1.5,0,2.6,1,2.6,2.4c0,1.4-1.2,2.4-2.6,2.4
					C242.2,83.4,241.1,82.4,241.1,81z M241.6,85.4h4.3v24.1h-4.3V85.4z"/>
				<path style="fill:#009444;" d="M250.5,85.4h4.3v20.5h10.1v3.6h-14.4V85.4z"/>
				<path style="fill:#009444;" d="M267.6,85.4h14.6V89h-10.3v6.2h8.7v3.6h-8.7v7.1h10.7v3.6h-15V85.4z"/>
				<path style="fill:#009444;" d="M299.2,109.5l-5.2-9.4h-3.7v9.4h-4.3V85.4h8.2c5.1,0,9,1.8,9,7.2c0,3.7-1.9,5.9-4.9,6.9l5.8,10.1
					H299.2z M290.2,96.7h3.4c3.3,0,5.1-1.4,5.1-4.1c0-2.8-1.8-3.7-5.1-3.7h-3.4V96.7z"/>
				<path style="fill:#009444;" d="M306.1,81c0-1.4,1.2-2.4,2.7-2.4c1.5,0,2.6,1,2.6,2.4c0,1.4-1.2,2.4-2.6,2.4
					C307.2,83.4,306.1,82.4,306.1,81z M306.6,85.4h4.3v24.1h-4.3V85.4z"/>
				<path style="fill:#009444;" d="M315.5,85.4h4.4l7.5,13.6l2.5,5.1h0.1c-0.2-2.5-0.6-5.5-0.6-8.2V85.4h4.1v24.1h-4.4l-7.5-13.6
					l-2.5-5.1H319c0.2,2.5,0.6,5.5,0.6,8.2v10.6h-4.1V85.4z"/>
			</g>
			<g>
				<g>
					<g>
						<g>
							<path style="fill:#009444;" d="M118.8,122.1c3.4,0,6,1.5,7.7,3.2l-3.5,3.9c-1.2-1-2.2-1.6-4.2-1.6c-3.3,0-5.7,2.6-5.7,6.9
								c0,4.5,2,7,6.3,7c0.7,0,1.4-0.1,1.9-0.4v-3.3h-3.6v-5.2h9.2V144c-1.8,1.6-4.9,3-8.3,3c-6.6,0-12-4.1-12-12.3
								C106.6,126.6,112.2,122.1,118.8,122.1z"/>
						</g>
					</g>
					<g>
						<g>
							<path style="fill:#009444;" d="M142,141.4h-6.8l-1.2,5.1h-6.5l7.4-24h7.7l7.4,24h-6.8L142,141.4z M140.8,136.5l-0.4-1.7
								c-0.6-2.3-1.2-5.2-1.8-7.6h-0.1c-0.5,2.4-1.1,5.3-1.7,7.6l-0.4,1.7H140.8z"/>
						</g>
					</g>
					<g>
						<g>
							<path style="fill:#009444;" d="M164.5,146.5l-4.2-8h-2.5v8h-6.4v-24h9.1c5.2,0,9.7,1.8,9.7,7.7c0,3.4-1.6,5.7-3.9,6.9
								l5.2,9.3H164.5z M157.9,133.4h2.3c2.5,0,3.9-1.1,3.9-3.2c0-2.1-1.3-2.7-3.9-2.7h-2.3V133.4z"/>
						</g>
					</g>
					<g>
						<g>
							<path style="fill:#009444;" d="M186.7,141.4H180l-1.2,5.1h-6.5l7.4-24h7.7l7.4,24h-6.8L186.7,141.4z M185.6,136.5l-0.4-1.7
								c-0.6-2.3-1.2-5.2-1.8-7.6h-0.1c-0.5,2.4-1.1,5.3-1.7,7.6l-0.4,1.7H185.6z"/>
						</g>
					</g>
					<g>
						<g>
							<path style="fill:#009444;" d="M196.2,122.5h6.5l5.4,10.7l2.3,5.4h0.1c-0.3-2.6-0.8-6.2-0.8-9.2v-6.9h6.1v24h-6.5l-5.4-10.7
								l-2.3-5.4h-0.1c0.3,2.7,0.8,6.2,0.8,9.2v6.9h-6.1V122.5z"/>
						</g>
					</g>
					<g>
						<g>
							<path style="fill:#009444;" d="M224.4,127.8H218v-5.3h19.2v5.3h-6.4v18.7h-6.4V127.8z"/>
						</g>
					</g>
					<g>
						<g>
							<path style="fill:#009444;" d="M238.9,117.6c0-1.8,1.5-3.2,3.6-3.2c2.1,0,3.6,1.3,3.6,3.2c0,1.8-1.5,3.2-3.6,3.2
								C240.3,120.8,238.9,119.5,238.9,117.6z M239.2,122.5h6.4v24h-6.4V122.5z"/>
						</g>
					</g>
					<g>
						<g>
							<path style="fill:#009444;" d="M249.6,131.9c2.4-1,3.6-2.5,3.6-4.7c-0.1,0-0.3,0-0.4,0c-1.8,0-3.2-1.2-3.2-3
								c0-2.1,1.3-3.4,3.2-3.4c2.6,0,3.9,2,3.9,5.4c0,3.7-1.9,6.6-5.8,8.4L249.6,131.9z"/>
						</g>
					</g>
					<g>
						<g>
							<path style="fill:#009444;" d="M262.1,139.1c1.7,1.4,3.9,2.3,5.7,2.3c1.9,0,2.8-0.6,2.8-1.7c0-1.1-1.2-1.5-3.3-2.3l-3-1.3
								c-2.6-1-4.9-3.2-4.9-6.7c0-4.1,3.7-7.5,9-7.5c2.8,0,5.8,1,8,3.2l-3.2,4c-1.6-1.1-3-1.7-4.8-1.7c-1.6,0-2.5,0.6-2.5,1.6
								c0,1.1,1.4,1.6,3.6,2.4l2.9,1.1c3,1.2,4.7,3.2,4.7,6.6c0,4.1-3.4,7.7-9.4,7.7c-3,0-6.5-1.1-9.1-3.4L262.1,139.1z"/>
						</g>
					</g>
					<g>
						<g>
							<path style="fill:#009444;" d="M279,117.6c0-1.8,1.5-3.2,3.6-3.2c2.1,0,3.6,1.3,3.6,3.2c0,1.8-1.5,3.2-3.6,3.2
								C280.5,120.8,279,119.5,279,117.6z M279.4,122.5h6.4v24h-6.4V122.5z"/>
						</g>
					</g>
				</g>
			</g>
		</g>
	</g>
	<g style="opacity:0.15;">
		<g>
			<path style="fill:#231F20;" d="M87.5,116.2C87.5,116.2,87.5,116.2,87.5,116.2c-2.6-1.9-5.8-2.5-8.9-2.1c-3.7,0.5-7.1,2.3-9.6,4.9
				c5.1-2.4,10.2-2.6,13.5,0.2c4.9,4.2,4.1,13.4-1.7,21.6c-0.3,0.4-0.5,0.7-0.8,1.1c-0.2,0.2-0.4,0.5-0.6,0.7
				c-0.2,0.2-0.3,0.4-0.5,0.6c-0.1,0.2-0.3,0.3-0.5,0.5l0.7,1.3c0.4-0.2,0.8-0.5,1.2-0.8c2.3-1.5,4.4-3.3,6.3-5.4
				c1-1.1,1.8-2.2,2.6-3.3c0.1-0.2,0.3-0.4,0.4-0.6c0.1-0.1,0.1-0.2,0.2-0.3c0,0,0,0,0,0c0.2-0.3,0.3-0.5,0.5-0.8c0,0,0,0,0-0.1
				c1-1.8,1.7-3.8,2-6C92.9,123.4,91.2,118.9,87.5,116.2z"/>
			<path style="fill:#231F20;" d="M60.6,81.4c-0.1,0.9,0,1.8-0.1,2.7c0,1.7,0.2,3.1,0.7,5.2c0.7,2.6,1.8,5,3.1,6.8c0,0,0,0,0,0
				c0.5,0.7,1.5,1.4,2.4,1.5c1.8,0.2,4.4-1.6,3.9-6.4c0,0.2,0,0.4,0,0.6c-0.2,1.4-1,2.5-2,2.9c0,0,0,0,0,0c-0.2,0.1-0.3,0.1-0.5,0.1
				c0,0,0,0-0.1,0c-0.2,0-0.4,0-0.6,0c-0.8-0.1-1.4-0.5-1.9-1.2c0,0,0,0,0,0c-1.3-1.8-2.3-4.1-3-6.7c-0.6-2-0.6-3.4-0.7-5
				c0-0.9,0-1.8,0.1-2.7c0-0.7,0.1-1.4,0.2-2c0-0.2,0.1-0.5,0.1-0.7c0-0.4,0.1-0.9,0.2-1.3c0-0.3,0.1-0.5,0.1-0.8
				c0.1-0.4,0.1-0.8,0.2-1.1c0-0.3,0.1-0.6,0.2-0.9c0.1-0.4,0.1-0.7,0.2-1.1c0.1-0.3,0.1-0.6,0.2-0.9c0.1-0.3,0.1-0.7,0.2-1
				c0.1-0.3,0.2-0.6,0.2-0.9c0.1-0.3,0.2-0.6,0.3-0.9c0.1-0.3,0.2-0.6,0.3-0.9c0.1-0.3,0.2-0.6,0.3-0.9c0.1-0.3,0.2-0.6,0.3-0.9
				c0.1-0.3,0.2-0.6,0.3-0.8c0.1-0.3,0.2-0.6,0.4-0.9c0.1-0.3,0.2-0.5,0.3-0.8c0.1-0.3,0.3-0.6,0.4-0.9c0.1-0.3,0.2-0.5,0.3-0.7
				c0.1-0.3,0.3-0.6,0.4-0.9c0.1-0.2,0.2-0.5,0.4-0.7c0.2-0.3,0.3-0.6,0.5-0.9c0.1-0.2,0.3-0.4,0.4-0.7c0.2-0.3,0.4-0.6,0.5-0.9
				c0.1-0.2,0.3-0.4,0.4-0.6c0.2-0.3,0.4-0.6,0.6-0.9c0.1-0.2,0.3-0.4,0.4-0.5c0.2-0.3,0.4-0.6,0.7-0.9c0.1-0.1,0.2-0.3,0.3-0.4
				c0.3-0.3,0.5-0.7,0.8-1l0,0C65.1,59.7,61.4,69.8,60.6,81.4z"/>
			<g>
				<path style="fill:#231F20;" d="M66.1,27l10.4,7.5c0.3,0.2,0.8,0.2,1.1,0l10.2-7.4c0.3-0.2,0.7-0.2,1-0.1
					c0.1-0.8-0.8-1.3-1.5-0.8l-9.8,7c-0.3,0.2-0.8,0.2-1.1,0l-9.8-7c-0.6-0.5-1.4,0-1.5,0.7C65.5,26.8,65.8,26.8,66.1,27z"/>
				<path style="fill:#231F20;" d="M68.8,38.1l0.2,0.6c0.1,0.4,0,0.8-0.3,1l-0.3,0.2l-9.5,6.8c-0.1,0.1-0.2,0.2-0.3,0.3
					c0,0,0,0.1,0,0.1c0,0.1-0.1,0.2-0.1,0.3c0,0,0,0,0,0.1c0,0.2,0.1,0.5,0.2,0.7c0,0,0.1-0.1,0.1-0.1L69,40.6c0,0,0.1-0.1,0.1-0.1
					c0.2-0.2,0.3-0.4,0.3-0.6l-0.2-0.7L68.8,38.1z"/>
				<path style="fill:#231F20;" d="M85.5,41L85.5,41l0.4,0.3l2,1.5l7.2,5.2c0.1,0,0.1,0.1,0.1,0.1c0.2-0.2,0.3-0.4,0.2-0.7
					c0,0,0,0,0,0c0,0,0,0,0,0c0-0.1,0-0.2-0.1-0.3c0,0,0,0,0,0c0,0,0,0,0-0.1c-0.1-0.1-0.1-0.2-0.3-0.3l-7.2-5.2l-1.7-1.2L85.9,40
					l-0.4-0.3c-0.2,0.1-0.5,0.2-0.8,0.3c0,0.2,0.2,0.5,0.4,0.6L85.5,41z"/>
			</g>
			<path style="fill:#231F20;" d="M75.5,248.1c-0.3,0.2-0.5,0.4-0.7,0.5c-2.8,1.9-5.8,3.3-8.9,4.2c-3.9,1.1-8,1.3-11.7,0.6
				c-3.7-0.8-7-2.7-9.2-5.5c-1.1-1.4-2-3-2.6-4.8c-0.7-1.7-1.2-3.7-1.5-5.6c-0.7-4-0.7-8.2-0.5-12.5c0.3-4.3,0.8-8.6,1.6-13
				c0.8-4.3,1.8-8.7,2.8-13c1.1-4.3,2.3-8.7,3.6-13c0.7-2.2,1.3-4.4,2-6.5c0.5-1.5,1.9-5.9,2.9-9.3l-0.1-0.1
				c-1.1,2.6-2.2,5.1-3.3,7.7c-2.6,6.3-5,12.8-7.1,19.3c-2,6.5-3.9,13.1-5,19.9c-1.1,6.7-1.7,13.5-0.8,20.1c0.4,3.2,1.3,6.4,2.8,9.2
				c1.4,2.8,3.4,5.1,5.9,6.6c4.6,3,10.3,3.4,15.8,2.3c0,0,0.1,0,0.1,0c2.9-0.7,5.8-1.8,8.5-3.3C72,250.7,73.8,249.4,75.5,248.1z"/>
		</g>
		<g>
			<path style="fill:#231F20;" d="M118.8,122.1c3.4,0,6,1.5,7.7,3.2l-3.5,3.9c-1.2-1-2.2-1.6-4.2-1.6c-3.3,0-5.7,2.6-5.7,6.9
				c0,4.5,2,7,6.3,7c0.7,0,1.4-0.1,1.9-0.4v-3.3h-3.6v-5.2h9.2V144c-1.8,1.6-4.9,3-8.3,3c-6.6,0-12-4.1-12-12.3
				C106.6,126.6,112.2,122.1,118.8,122.1z"/>
			<path style="fill:#231F20;" d="M142,141.4h-6.8l-1.2,5.1h-6.5l7.4-24h7.7l7.4,24h-6.8L142,141.4z M140.8,136.5l-0.4-1.7
				c-0.6-2.3-1.2-5.2-1.8-7.6h-0.1c-0.5,2.4-1.1,5.3-1.7,7.6l-0.4,1.7H140.8z"/>
			<path style="fill:#231F20;" d="M164.5,146.5l-4.2-8h-2.5v8h-6.4v-24h9.1c5.2,0,9.7,1.8,9.7,7.7c0,3.4-1.6,5.7-3.9,6.9l5.2,9.3
				H164.5z M157.9,133.4h2.3c2.5,0,3.9-1.1,3.9-3.2c0-2.1-1.3-2.7-3.9-2.7h-2.3V133.4z"/>
			<path style="fill:#231F20;" d="M186.7,141.4H180l-1.2,5.1h-6.5l7.4-24h7.7l7.4,24h-6.8L186.7,141.4z M185.6,136.5l-0.4-1.7
				c-0.6-2.3-1.2-5.2-1.8-7.6h-0.1c-0.5,2.4-1.1,5.3-1.7,7.6l-0.4,1.7H185.6z"/>
			<path style="fill:#231F20;" d="M196.2,122.5h6.5l5.4,10.7l2.3,5.4h0.1c-0.3-2.6-0.8-6.2-0.8-9.2v-6.9h6.1v24h-6.5l-5.4-10.7
				l-2.3-5.4h-0.1c0.3,2.7,0.8,6.2,0.8,9.2v6.9h-6.1V122.5z"/>
			<path style="fill:#231F20;" d="M224.4,127.8H218v-5.3h19.2v5.3h-6.4v18.7h-6.4V127.8z"/>
			<path style="fill:#231F20;" d="M238.9,117.6c0-1.8,1.5-3.2,3.6-3.2c2.1,0,3.6,1.3,3.6,3.2c0,1.8-1.5,3.2-3.6,3.2
				C240.3,120.8,238.9,119.5,238.9,117.6z M239.2,122.5h6.4v24h-6.4V122.5z"/>
			<path style="fill:#231F20;" d="M249.6,131.9c2.4-1,3.6-2.5,3.6-4.7c-0.1,0-0.3,0-0.4,0c-1.8,0-3.2-1.2-3.2-3
				c0-2.1,1.3-3.4,3.2-3.4c2.6,0,3.9,2,3.9,5.4c0,3.7-1.9,6.6-5.8,8.4L249.6,131.9z"/>
			<path style="fill:#231F20;" d="M262.1,139.1c1.7,1.4,3.9,2.3,5.7,2.3c1.9,0,2.8-0.6,2.8-1.7c0-1.1-1.2-1.5-3.3-2.3l-3-1.3
				c-2.6-1-4.9-3.2-4.9-6.7c0-4.1,3.7-7.5,9-7.5c2.8,0,5.8,1,8,3.2l-3.2,4c-1.6-1.1-3-1.7-4.8-1.7c-1.6,0-2.5,0.6-2.5,1.6
				c0,1.1,1.4,1.6,3.6,2.4l2.9,1.1c3,1.2,4.7,3.2,4.7,6.6c0,4.1-3.4,7.7-9.4,7.7c-3,0-6.5-1.1-9.1-3.4L262.1,139.1z"/>
			<path style="fill:#231F20;" d="M279,117.6c0-1.8,1.5-3.2,3.6-3.2c2.1,0,3.6,1.3,3.6,3.2c0,1.8-1.5,3.2-3.6,3.2
				C280.5,120.8,279,119.5,279,117.6z M279.4,122.5h6.4v24h-6.4V122.5z"/>
		</g>
	</g>
	<g style="opacity:0.7;">
		<linearGradient id="SVGID_1_" gradientUnits="userSpaceOnUse" x1="87.8345" y1="270.1239" x2="-0.9862" y2="-15.9952">
			<stop  offset="0" style="stop-color:#231F20;stop-opacity:0"/>
			<stop  offset="1" style="stop-color:#231F20"/>
		</linearGradient>
		<path style="fill:url(#SVGID_1_);" d="M108,220.9c-0.1-3.9-0.6-7.7-1.5-11.4c-1.7-7.3-4.7-14-8.2-20c-3.5-6-7.4-11.5-11.2-16.8
			l-5.6-7.9c-1.8-2.6-3.6-5.2-5.3-7.9c-0.7-1.1-1.3-2.2-2-3.2c0.6,1.2,1.2,2.3,1.8,3.5c1.5,2.7,3.1,5.5,4.7,8.2l5.1,8.3
			c3.5,5.6,7,11.3,10,17.5c3.1,6.2,5.6,13.1,6.8,20.6c0.6,3.7,0.8,7.6,0.7,11.5c-0.2,3.9-0.8,7.8-1.9,11.7
			c-2.1,7.7-6.2,15-11.6,20.8c-5.5,5.8-12.2,10.3-19.5,13c-6.2,2.3-12.8,3.5-19.6,3.2c1.6,0.3,3.3,0.5,4.9,0.6
			c8,0.4,15.9-1.3,22.9-4.5c7.1-3.3,13.5-8.2,18.5-14.4c1.2-1.4,2.2-2.9,3.2-4.5c3.1-5,5.4-10.7,6.5-16.5
			C107.7,228.8,108,224.8,108,220.9z"/>
		<linearGradient id="SVGID_2_" gradientUnits="userSpaceOnUse" x1="73.4351" y1="50.3987" x2="110.6978" y2="50.3987">
			<stop  offset="7.559070e-02" style="stop-color:#231F20;stop-opacity:0"/>
			<stop  offset="1" style="stop-color:#231F20"/>
		</linearGradient>
		<path style="fill:url(#SVGID_2_);" d="M95.1,46.7l-7.2-5.2l-1.7-1.2L85.9,40l-0.4-0.3c-1.3,0.4-3.7,1.5-3.7,1.5
			c-0.8,0.4-1.6,0.8-2.3,1.2c-2.7,1.4-5.3,3.1-7.6,5.1l1.2,3.6l0,0l0.1,0.2l3,9.2c0.3,0.9,1.5,0.9,1.8,0L81.6,49
			c0.1-0.4,0.5-0.6,0.9-0.6h12.1C95.5,48.4,95.9,47.2,95.1,46.7z"/>
	</g>
</g>
</svg>
