<svg xmlns="http://www.w3.org/2000/svg" width="94" height="94" viewBox="0 0 94 94">
  <g id="logo" transform="translate(-287 11)">
    <g id="logo-2" data-name="logo" transform="translate(287 -17)">
      <path id="path" d="M0,43.955V0H90.782V87.852H0Z" transform="translate(3.068 12.148)" fill="#020202"/>
      <path id="path-2" data-name="path" d="M0,43.955V0H90.782V87.852H0ZM15.916,68.144a1.254,1.254,0,0,0,.632-.689,1.669,1.669,0,0,0,.172-.8,1.759,1.759,0,0,0-.172-.862,1.121,1.121,0,0,0-2.126.172,2.8,2.8,0,0,0,0,1.379,1.236,1.236,0,0,0,.575.8A2.473,2.473,0,0,0,15.916,68.144Zm27.35,0a.989.989,0,0,0,.632-.632c.057-.517-.23-.862-.977-1.034-.575-.172-.862-.287-.919-.517-.057-.287.172-.632.632-.689.287,0,.747.172.8.4.057.057.115.115.172.115h.115v-.057c0-.172-.287-.46-.517-.575a1.619,1.619,0,0,0-1.034.057c-.287.115-.4.345-.4.747s.23.575.862.747a3.149,3.149,0,0,1,.689.23.511.511,0,0,1,.057.862c-.172.172-.23.172-.575.172a.907.907,0,0,1-.862-.4q-.086-.172-.172-.172h-.115v.057a.971.971,0,0,0,.115.287,1.712,1.712,0,0,0,.632.4A2.171,2.171,0,0,0,43.265,68.144ZM6.32,67.512l.057-.575.575-.057a1.078,1.078,0,0,0,.747-.172.891.891,0,0,0,.23-1.149c-.23-.345-.46-.4-1.207-.4H6.09v.46a17.191,17.191,0,0,0,0,2.471c0,.057.057.057.115.057H6.32Zm4.079,0a1.8,1.8,0,0,1,.057-.689,4.277,4.277,0,0,1,.862,0c.057,0,.172.172.345.575.287.689.345.747.46.747h.115v-.057s-.115-.287-.23-.632a3.686,3.686,0,0,1-.287-.632.183.183,0,0,1,.172-.172.807.807,0,0,0-.057-1.379c-.172-.115-.4-.115-.919-.115H10.17v2.988h.23Zm8.791,0,.057-.575.575-.057a1.078,1.078,0,0,0,.747-.172.891.891,0,0,0,.23-1.149c-.23-.345-.46-.4-1.207-.4h-.632v.46a17.191,17.191,0,0,0,0,2.471c0,.057.057.057.115.057h.115Zm5.746.517v-.115H23.328v-.057a1.1,1.1,0,0,1,0-.632v-.517h.4a1.6,1.6,0,0,0,.575-.057h.23v-.172H23.96c-.287,0-.575,0-.575-.057a2.721,2.721,0,0,1-.057-.977v-.057h1.551v-.23H23.04v2.988h1.9Zm2.413-.517.057-.632h.46c.46,0,.46,0,.747.632.287.517.345.632.46.632h.115l-.115-.287a5.96,5.96,0,0,1-.23-.575c-.23-.46-.23-.575,0-.632a1,1,0,0,0,.345-.689.973.973,0,0,0-.4-.689c-.172-.115-.287-.115-.919-.115H27.12v2.988h.23Zm4.884-.747.057-1.322.4-.057h.46v-.23H31.084v.23h.46l.46.057v2.7h.23Zm3.218-.115V65.156h-.23v2.988h.23Zm4.309,1.379v-.115H38.209l-.057-.575c0-.287,0-.575.057-.575,0-.057.287-.057.575-.115h.575v-.172H38.209V65.444l.747-.057H39.7v-.23H37.864v2.988h1.9Zm-6.378-4.6a7.48,7.48,0,0,0,2.356-.747,8.723,8.723,0,0,0,4.769-6.837c.057-.4.057-5.286.057-15.054V26.373H34.876V40.909c0,14.594,0,14.594-.172,14.939a3.3,3.3,0,0,1-4.539,1.9,3.853,3.853,0,0,1-1.724-2.068c-.057-.287-.057-1.436-.115-14.824V26.373H23.04V41.024c0,12.928,0,14.709.115,15.284A8.088,8.088,0,0,0,25.4,60.9a8.8,8.8,0,0,0,5.344,2.643A13.579,13.579,0,0,0,33.383,63.433ZM20.742,60.5V57.8l-4.711-.057H11.2l-.115-.057V26.373h-5.4v.287c-.057.345-.057,36.083,0,36.313v.172H5.8c.115.057,3.447.057,7.527.057h7.412ZM55.389,40.967c1.149-2.413,1.149-2.413.977-2.643-.057-.172-.919-1.322-1.839-2.586-.862-1.322-2.528-3.677-3.677-5.286-1.092-1.609-2.241-3.218-2.471-3.562a3.8,3.8,0,0,1-.517-.689H45.1l-2.643.057,1.954,2.873c1.092,1.609,2.471,3.677,3.1,4.654,5,7.354,6.378,9.365,6.493,9.538l.115.172.057-.057S54.757,42.288,55.389,40.967Zm-40.22,27a1.453,1.453,0,0,1-.575-1.322c0-.747.287-1.264.747-1.379a1.059,1.059,0,0,1,.747.23,1.465,1.465,0,0,1,.287,1.092,1.837,1.837,0,0,1-.115.862c-.115.172-.23.4-.287.4A1.009,1.009,0,0,1,15.169,67.972ZM6.32,66.593V65.9l.057-.517.345-.057c.747,0,1.034.172,1.034.689,0,.23,0,.345-.172.46-.172.172-.23.172-.689.172H6.378Zm4.079-.057V65.9l.057-.46.517-.057c.632,0,.8.057.977.345a.491.491,0,0,1,0,.4c-.115.345-.287.46-.977.46h-.517Zm8.791.057V65.9l.057-.517.345-.057c.689,0,1.034.172,1.034.689,0,.46-.23.632-.919.632h-.46Zm8.159-.057V65.9l.057-.46.575-.057c.575,0,.575,0,.747.172a.624.624,0,0,1,0,.862c-.23.172-.23.172-.747.172h-.575Z" transform="translate(3.068 12.148)" fill="#c6010c"/>
      <path id="path-3" data-name="path" d="M0,43.955V0H90.782V87.852H0ZM81.244,80.21a17.452,17.452,0,0,0-1.092-1.839c-.575-.977-1.436-2.356-1.9-3.1a22.585,22.585,0,0,0-1.379-2.241c-.517-.919-1.9-3.16-3.39-5.631-.4-.689-1.149-1.9-1.666-2.7-.46-.862-1.322-2.241-1.839-3.1-.575-.919-1.149-1.839-1.264-2.126-.172-.287-.862-1.322-1.494-2.356-.632-1.092-1.379-2.3-1.609-2.758-.287-.46-.977-1.551-1.494-2.413-2.3-3.792-3.5-5.746-3.735-6.148s-.23-.4-3.218-.4c-3.045,0-3.045,0-3.62.919-1.092,1.609-4.022,5.918-6.378,9.423-.4.632-1.379,2.068-2.068,3.1-.747,1.034-1.609,2.356-1.954,2.873a9.816,9.816,0,0,0-.632.977v.057h2.643c2.7,0,2.7,0,3.1-.575.862-1.207,1.9-2.7,2.241-3.16a11.256,11.256,0,0,1,.919-1.264c1.322-1.954,4.539-6.493,4.769-6.837.172-.287.287-.4.345-.4.172.057.23.23,1.322,2.528.23.517.689,1.436,1.264,2.586.23.517.4.862.4.862,0,.057.23.517.517,1.149l.517,1.034a11.015,11.015,0,0,0,.517,1.092c.287.575.632,1.322.747,1.609.23.46.919,1.954,1.494,3.16.115.23.575,1.149.919,1.9a14.733,14.733,0,0,1,.689,1.494,13.259,13.259,0,0,1,.575,1.207,7.987,7.987,0,0,1,.575,1.207,8.644,8.644,0,0,1,.46.977c.287.517.517,1.092.632,1.322.115.172.517,1.092.977,2.011.46.977,1.149,2.471,1.609,3.447.46.919.862,1.781.919,1.9.115.23.115.23,5.343.23ZM15.916,68.144a1.254,1.254,0,0,0,.632-.689,1.669,1.669,0,0,0,.172-.8,1.759,1.759,0,0,0-.172-.862,1.121,1.121,0,0,0-2.126.172,2.8,2.8,0,0,0,0,1.379,1.236,1.236,0,0,0,.575.8A2.473,2.473,0,0,0,15.916,68.144Zm27.35,0a.989.989,0,0,0,.632-.632c.057-.517-.23-.862-.977-1.034-.575-.172-.862-.287-.919-.517-.057-.287.172-.632.632-.689.287,0,.747.172.8.4.057.057.115.115.172.115h.115v-.057c0-.172-.287-.46-.517-.575a1.619,1.619,0,0,0-1.034.057c-.287.115-.4.345-.4.747s.23.575.862.747a3.149,3.149,0,0,1,.689.23.511.511,0,0,1,.057.862c-.172.172-.23.172-.575.172a.907.907,0,0,1-.862-.4q-.086-.172-.172-.172h-.115v.057a.971.971,0,0,0,.115.287,1.712,1.712,0,0,0,.632.4A2.171,2.171,0,0,0,43.265,68.144ZM6.32,67.512l.057-.575.575-.057a1.078,1.078,0,0,0,.747-.172.891.891,0,0,0,.23-1.149c-.23-.345-.46-.4-1.207-.4H6.09v.46a17.191,17.191,0,0,0,0,2.471c0,.057.057.057.115.057H6.32Zm4.079,0a1.8,1.8,0,0,1,.057-.689,4.277,4.277,0,0,1,.862,0c.057,0,.172.172.345.575.287.689.345.747.46.747h.115v-.057s-.115-.287-.23-.632a3.686,3.686,0,0,1-.287-.632.183.183,0,0,1,.172-.172.807.807,0,0,0-.057-1.379c-.172-.115-.4-.115-.919-.115H10.17v2.988h.23Zm8.791,0,.057-.575.575-.057a1.078,1.078,0,0,0,.747-.172.891.891,0,0,0,.23-1.149c-.23-.345-.46-.4-1.207-.4h-.632v.46a17.191,17.191,0,0,0,0,2.471c0,.057.057.057.115.057h.115Zm5.746.517v-.115H23.328v-.057a1.1,1.1,0,0,1,0-.632v-.517h.4a1.6,1.6,0,0,0,.575-.057h.23v-.172H23.96c-.287,0-.575,0-.575-.057a2.721,2.721,0,0,1-.057-.977v-.057h1.551v-.23H23.04v2.988h1.9Zm2.413-.517.057-.632h.46c.46,0,.46,0,.747.632.287.517.345.632.46.632h.115l-.115-.287a5.96,5.96,0,0,1-.23-.575c-.23-.46-.23-.575,0-.632a1,1,0,0,0,.345-.689.973.973,0,0,0-.4-.689c-.172-.115-.287-.115-.919-.115H27.12v2.988h.23Zm4.884-.747.057-1.322.4-.057h.46v-.23H31.084v.23h.46l.46.057v2.7h.23Zm3.218-.115V65.156h-.23v2.988h.23Zm4.309,1.379v-.115H38.209l-.057-.575c0-.287,0-.575.057-.575,0-.057.287-.057.575-.115h.575v-.172H38.209V65.444l.747-.057H39.7v-.23H37.864v2.988h1.9Zm-6.378-4.6a7.48,7.48,0,0,0,2.356-.747,8.723,8.723,0,0,0,4.769-6.837c.057-.4.057-5.286.057-15.054V26.373H34.876V40.909c0,14.594,0,14.594-.172,14.939a3.3,3.3,0,0,1-4.539,1.9,3.853,3.853,0,0,1-1.724-2.068c-.057-.287-.057-1.436-.115-14.824V26.373H23.04V41.024c0,12.928,0,14.709.115,15.284A8.088,8.088,0,0,0,25.4,60.9a8.8,8.8,0,0,0,5.344,2.643A13.579,13.579,0,0,0,33.383,63.433ZM20.742,60.5V57.8l-4.711-.057H11.2l-.115-.057V26.373h-5.4v.287c-.057.345-.057,36.083,0,36.313v.172H5.8c.115.057,3.447.057,7.527.057h7.412ZM55.389,40.967c1.149-2.413,1.149-2.413.977-2.643-.057-.172-.919-1.322-1.839-2.586-.862-1.322-2.528-3.677-3.677-5.286-1.092-1.609-2.241-3.218-2.471-3.562a3.8,3.8,0,0,1-.517-.689H45.1l-2.643.057,1.954,2.873c1.092,1.609,2.471,3.677,3.1,4.654,5,7.354,6.378,9.365,6.493,9.538l.115.172.057-.057S54.757,42.288,55.389,40.967Zm-40.22,27a1.453,1.453,0,0,1-.575-1.322c0-.747.287-1.264.747-1.379a1.059,1.059,0,0,1,.747.23,1.465,1.465,0,0,1,.287,1.092,1.837,1.837,0,0,1-.115.862c-.115.172-.23.4-.287.4A1.009,1.009,0,0,1,15.169,67.972ZM6.32,66.593V65.9l.057-.517.345-.057c.747,0,1.034.172,1.034.689,0,.23,0,.345-.172.46-.172.172-.23.172-.689.172H6.378Zm4.079-.057V65.9l.057-.46.517-.057c.632,0,.8.057.977.345a.491.491,0,0,1,0,.4c-.115.345-.287.46-.977.46h-.517Zm8.791.057V65.9l.057-.517.345-.057c.689,0,1.034.172,1.034.689,0,.46-.23.632-.919.632h-.46Zm8.159-.057V65.9l.057-.46.575-.057c.575,0,.575,0,.747.172a.624.624,0,0,1,0,.862c-.23.172-.23.172-.747.172h-.575Z" transform="translate(3.068 12.148)" fill="#474747"/>
      <path id="path-4" data-name="path" d="M0,43.955V0H90.782V87.852H0ZM81.359,80.21a35.825,35.825,0,0,0-1.954-3.218c-.345-.632-1.379-2.356-2.241-3.735-.862-1.436-1.839-3.1-2.241-3.677-.8-1.379-3.62-6.033-4.711-7.757-.919-1.609-3.562-5.918-4.654-7.642-.4-.689-1.092-1.839-1.494-2.586-.46-.747-.977-1.609-1.207-1.9-.46-.8-2.241-3.735-2.471-4.079-.172-.345-.172-.345-3.218-.345s-3.045,0-3.218.23c-.057.115-.747,1.149-1.494,2.241-.8,1.149-2.93,4.367-4.826,7.125-1.839,2.758-3.792,5.688-4.367,6.435l-.919,1.436.057.057a13.218,13.218,0,0,0,2.758.115c2.7,0,2.7,0,2.93-.345.172-.23,1.034-1.436,1.9-2.7.919-1.322,2.183-3.045,2.758-3.907s1.666-2.356,2.413-3.447l1.322-1.9h.057c.115.057.115.115,1.264,2.528.575,1.092,1.092,2.3,1.264,2.586.115.287.46.977.747,1.551.23.575.575,1.264.747,1.666.172.345.4.8.517,1.092l.632,1.264c.23.517.4.862.4.862,0,.057.287.575.575,1.264a7.987,7.987,0,0,1,.575,1.207s.172.4.46.919c.23.46.747,1.609,1.149,2.471s.862,1.781.977,2.068.46.977.747,1.551.517,1.092.575,1.149a14.828,14.828,0,0,0,.689,1.551c.345.747,1.149,2.413,1.724,3.62s1.092,2.241,1.092,2.3c.057.057,1.207.057,5.4.057h5.286ZM16.088,68.144A2.134,2.134,0,0,0,16.72,65.9a1.281,1.281,0,0,0-2.011-.632,2.077,2.077,0,0,0-.4,2.011,1.547,1.547,0,0,0,.8.977A1.455,1.455,0,0,0,16.088,68.144Zm27.407,0a.892.892,0,0,0,.057-1.551,4.791,4.791,0,0,0-.689-.23c-.575-.115-.747-.287-.747-.517,0-.172.057-.23.23-.345a.759.759,0,0,1,1.034.23c.115.172.172.172.287.172l.172-.057v-.115a1.069,1.069,0,0,0-.517-.632,1.749,1.749,0,0,0-1.207.057.835.835,0,0,0-.172,1.379,2.315,2.315,0,0,0,.689.23c.632.172.8.287.862.575a.552.552,0,0,1-.345.517A.983.983,0,0,1,42,67.512c-.115-.23-.115-.23-.345-.172h-.115v.115a.632.632,0,0,0,.172.345,1.123,1.123,0,0,0,.747.46A2.139,2.139,0,0,0,43.495,68.144ZM6.378,68.2a1.455,1.455,0,0,0,.057-.632v-.575h.4a1.478,1.478,0,0,0,1.034-.287.919.919,0,0,0,0-1.322c-.23-.287-.46-.345-1.264-.345l-.575.057-.057,1.494V68.2l.057.057h.115C6.263,68.259,6.32,68.2,6.378,68.2Zm4.079,0c.057,0,.057-.23.057-.689l.057-.575h.747l.287.575c.345.747.345.747.517.747H12.3l.057-.057c0-.057-.115-.345-.23-.689-.172-.345-.287-.632-.287-.632,0-.057.115-.172.23-.287a.876.876,0,0,0-.4-1.494,6.954,6.954,0,0,0-1.551,0,14,14,0,0,0,0,3.1A.366.366,0,0,0,10.457,68.2Zm8.791,0a1.455,1.455,0,0,0,.057-.632v-.575h.4a1.478,1.478,0,0,0,1.034-.287.919.919,0,0,0,0-1.322c-.23-.287-.46-.345-1.264-.345L18.9,65.1l-.057,1.494V68.2l.057.057h.115C19.133,68.259,19.191,68.2,19.248,68.2Zm5.746,0a.345.345,0,0,0,.057-.23l-.057-.057-.8-.057h-.747V66.823l.575-.057h.632V66.42H23.442V65.5l.747-.057h.8V65.1h-.115a6.97,6.97,0,0,0-1.9,0,14.006,14.006,0,0,0,0,3.1A7.852,7.852,0,0,0,24.994,68.2Zm2.413,0c.057-.057.057-.287.057-.689V66.88h.4c.4.057.4.057.689.632a3.526,3.526,0,0,0,.287.632c.057.115.345.172.4.057.057,0-.057-.345-.23-.689l-.287-.632.23-.23a.907.907,0,0,0-.345-1.551,6.474,6.474,0,0,0-1.494,0H27v3.1h.057A.362.362,0,0,0,27.407,68.2Zm4.884,0a4.7,4.7,0,0,0,.057-1.379l.057-1.322.4-.057h.4V65.1H31.084l-.057.172v.172h.4l.46.057v1.322c0,1.379,0,1.436.23,1.436A.211.211,0,0,0,32.291,68.2Zm3.16,0h.115V65.1h-.115a.175.175,0,0,0-.23,0h-.115v3.1h.057A.256.256,0,0,0,35.451,68.2Zm4.367,0a.345.345,0,0,0,.057-.23l-.057-.057-.689-.057a8.175,8.175,0,0,1-.862-.057c-.057-.057-.057-.23-.057-.517l.057-.46.575-.057h.632V66.42H38.266l-.057-.4c0-.287,0-.46.057-.517s.23-.057.8-.057h.747V65.1l-.115-.057h-.977l-.862.057-.057,1.494V68.2l.057.057h.919C39.53,68.259,39.76,68.259,39.818,68.2Zm-6.09-4.711a8.149,8.149,0,0,0,4.424-2.471,7.815,7.815,0,0,0,2.3-4.194c.172-.575.172-.575.172-15.571V26.315l-2.873-.057a21.774,21.774,0,0,0-2.93.057c-.057.057-.057,2.413-.057,14.537,0,15.858,0,14.766-.345,15.4A4.426,4.426,0,0,1,33.9,57a3.131,3.131,0,0,1-3.735.632A3.365,3.365,0,0,1,28.5,55.446c-.057-.287-.057-4.711-.057-14.766V26.315h-.115c-.115-.057-5.171-.057-5.286,0h-.115V40.852c0,9.48,0,14.766.057,15.111a8.433,8.433,0,0,0,2.7,5.344,8.169,8.169,0,0,0,4.424,2.241A12.7,12.7,0,0,0,33.727,63.49ZM20.8,60.5V57.687H11.262L11.2,42V26.315l-.115-.057H8.274l-2.643.057L5.573,44.759v18.5H20.8Zm39.416-16.95c.057-.057.345-.517.689-1.034.345-.575.747-1.264.977-1.609.23-.4,1.781-2.93,3.447-5.631,5.4-9.021,7.24-12.009,8.159-13.445.46-.8,1.724-2.93,2.873-4.769,1.092-1.839,2.643-4.424,3.5-5.8l1.551-2.528-.057-.057c0-.057-2.413-.057-5.344-.057-5.286.057-5.286.057-7.412,4.482-1.149,2.413-2.241,4.711-2.413,5.114-.345.747-.8,1.724-6.033,12.755C58.2,34.991,56.6,38.324,56.6,38.324l-.057.057L55.1,36.37c-.747-1.149-2.7-3.85-4.252-6.09-1.609-2.3-2.93-4.137-2.93-4.137-.115-.057-5.516-.057-5.573,0a17.2,17.2,0,0,0,1.034,1.666c2.643,3.85,10.4,15.4,10.572,15.628s.172.23,3.16.23C59.928,43.667,60.158,43.667,60.215,43.552ZM15.111,67.8c-.287-.172-.4-.575-.4-1.149,0-.4,0-.575.115-.747a.718.718,0,0,1,1.379,0,2.26,2.26,0,0,1,0,1.379C16.031,67.857,15.513,68.087,15.111,67.8ZM6.435,66.018v-.575h.4c.517,0,.689.115.8.345.057.287.057.46-.172.632-.115.115-.172.172-.575.172h-.46Zm4.079.46V65.9l.057-.4.345-.057c.46,0,.689.057.862.23s.172.4-.057.632c-.172.172-.172.172-.632.23h-.517Zm8.791-.46v-.575h.4c.46,0,.632.057.8.345a.476.476,0,0,1-.172.632c-.115.115-.172.172-.575.172h-.46Zm8.159.46V65.9l.057-.4.4-.057c.689,0,.977.23.862.632-.057.287-.287.4-.8.46h-.46Z" transform="translate(3.068 12.148)" fill="#cdc9c8"/>
      <path id="path-5" data-name="path" d="M0,43.955V0H90.782V87.852H0ZM81.417,80.267a4.642,4.642,0,0,0-.4-.8c-.46-.689-1.9-3.1-3.965-6.435-.632-1.149-1.494-2.528-1.839-3.1s-.977-1.609-1.379-2.241c-.4-.689-1.149-1.9-1.609-2.7-.517-.862-1.207-2.011-1.609-2.586-.919-1.551-1.666-2.815-2.528-4.137-.4-.689-1.264-2.126-1.954-3.218-.632-1.149-1.551-2.643-2.011-3.39-1.207-1.954-1.839-2.988-2.873-4.711-.517-.862-.977-1.609-1.034-1.666a22.244,22.244,0,0,0-3.1-.057c-2.988,0-2.988,0-3.1.172-.057.057-.575.8-1.092,1.609-.517.747-1.264,1.839-1.666,2.413-.345.575-1.322,2.011-2.126,3.218-.862,1.207-1.954,2.873-2.528,3.735s-1.322,1.954-1.724,2.528c-1.839,2.7-2.586,3.85-2.586,3.907.057.057.172.115.23.172.115.057,1.609.977,3.39,2.011,4.079,2.528,5.688,3.5,7.412,4.539.747.517,1.724,1.092,2.126,1.322s1.207.747,1.781,1.092c.517.345,1.207.747,1.436.862a7.381,7.381,0,0,0,1.666.919l.115.057v-.057l-.057-.057H60.5a2.947,2.947,0,0,0,.575-.057c.287-.057,1.264-.057,3.218-.057l2.758.057v-.115l.057.115.057.172h.172c.057,0,.115.057.115.172a.826.826,0,0,1,.115.172,1.7,1.7,0,0,1,.172.345,5.374,5.374,0,0,1,.46.862c.115.287.4.8.575,1.207.862,1.781,1.781,3.677,1.9,3.735.057.115.4.115,5.4.115h5.286ZM15.973,68.259a2.048,2.048,0,0,0,.517-2.815,1.279,1.279,0,0,0-1.954-.057,2.662,2.662,0,0,0-.287,2.011,1.594,1.594,0,0,0,.747.862A2.783,2.783,0,0,0,15.973,68.259ZM43.495,68.2a.975.975,0,0,0,.172-1.609,3.149,3.149,0,0,0-.689-.23c-.575-.172-.747-.23-.8-.4-.115-.287.115-.517.517-.517a.7.7,0,0,1,.689.345l.115.172h.172a.436.436,0,0,1,.23-.115l.057-.057-.172-.287a1.16,1.16,0,0,0-1.034-.517,1.042,1.042,0,0,0-1.034.517.87.87,0,0,0,.115.977c.172.172.4.23,1.207.46.46.115.575.517.23.8-.115.115-.172.115-.46.115a.729.729,0,0,1-.747-.4.41.41,0,0,0-.345-.172h-.172l-.057.057c-.057.23.4.8.8.919A2.162,2.162,0,0,0,43.495,68.2Zm-37.06-.575.057-.575.517-.057c.632-.057.747-.115,1.034-.46.115-.172.115-.23.115-.575a.9.9,0,0,0-.4-.747c-.172-.115-.287-.115-.977-.115h-.8l-.057,1.494V68.2l.057.057h.46Zm4.079.517c.057,0,.057-.345.057-.632v-.575h.4c.345.057.345.057.632.689s.287.632.46.632.287,0,.287-.057l.057-.057-.287-.632-.287-.632.23-.172a.882.882,0,0,0,.287-.747.772.772,0,0,0-.115-.517c-.23-.345-.46-.4-1.379-.4h-.8v3.218h.46Zm8.791-.517.057-.575.517-.057c.632-.057.747-.115,1.034-.46.115-.172.115-.23.115-.575a.9.9,0,0,0-.4-.747c-.172-.115-.287-.115-.977-.115h-.8l-.057,1.494V68.2l.057.057h.46Zm5.746.4v-.172l-.8-.057h-.8v-.977h.575c.632,0,.689-.057.689-.287V66.42l-.632-.057h-.632V65.5h.747c.8,0,.919-.057.862-.345l-.057-.115H23.96l-.977.057-.057,1.494V68.2l.057.057h2.068Zm2.413-.46v-.632h.4c.4.057.4.057.689.689s.287.632.517.632h.23v-.115l-.23-.689a2.374,2.374,0,0,1-.287-.632.711.711,0,0,1,.172-.115.939.939,0,0,0,.23-1.207c-.23-.4-.46-.46-1.379-.46H27v.115a7.094,7.094,0,0,0-.057,1.494A7.094,7.094,0,0,0,27,68.144v.115h.46Zm4.884.575a6.025,6.025,0,0,0,.057-1.379V65.5h.862v-.4H31.027v.4h.8v1.264a6.025,6.025,0,0,0,.057,1.379v.115h.46Zm3.218,0a7.094,7.094,0,0,0,.057-1.494,7.094,7.094,0,0,0-.057-1.494v-.115h-.46v.115a7.093,7.093,0,0,0-.057,1.494,7.093,7.093,0,0,0,.057,1.494v.115h.46Zm4.309-.115v-.172l-.8-.057h-.8v-.977h.575c.632,0,.689-.057.689-.287V66.42l-.632-.057h-.632V65.5h1.551l.057-.115a.345.345,0,0,0-.057-.23v-.115H38.784l-.977.057-.057,1.494V68.2l.057.057h2.068ZM33.67,63.547A9.373,9.373,0,0,0,37.117,62a9.248,9.248,0,0,0,1.954-2.011,8.19,8.19,0,0,0,1.494-3.39c.057-.575.115-1.207.115-15.456V26.315H34.819l-.057,14.537c0,14.594,0,14.594-.172,14.939a3.273,3.273,0,0,1-1.551,1.839,3.472,3.472,0,0,1-1.379.287,3,3,0,0,1-2.3-.977,2.374,2.374,0,0,1-.517-.689c-.345-.689-.345.345-.345-15.4,0-7.929,0-14.479-.057-14.479v-.115H22.925v.115c-.115.115-.057,28.671,0,29.3a8.8,8.8,0,0,0,7.642,7.987A14.161,14.161,0,0,0,33.67,63.547ZM20.857,60.5V57.687l-4.826-.057H11.262V42c0-8.561,0-15.628-.057-15.686a17.76,17.76,0,0,0-2.873-.057l-2.758.057L5.516,44.7c0,13.617,0,18.5.057,18.559s1.322.057,7.642.057h7.642ZM60.215,43.667s.689-1.092,1.494-2.413c2.126-3.5,3.5-5.8,4.539-7.469.46-.8,1.9-3.1,3.1-5.056C74,20.972,81.072,9.365,81.3,9.021l.172-.287-.057-.115c-.115-.115-10.63-.115-10.744,0,0,.057-.345.747-.747,1.609s-1.724,3.562-2.93,6.09c-1.149,2.528-2.471,5.286-2.93,6.205-.862,1.9-2.413,5.171-4.252,9.078-.8,1.551-1.781,3.62-2.183,4.6-.46.919-.919,1.781-.977,1.9l-.115.23L54.7,35.738c-1.839-2.643-3.85-5.458-5.573-7.987-.575-.8-1.034-1.494-1.092-1.551-.115-.115-.115-.115-2.93-.115a21.913,21.913,0,0,0-2.758.057,7.951,7.951,0,0,0,.8,1.322c1.494,2.183,4.022,5.918,5.573,8.274.862,1.264,2.356,3.447,3.333,4.941s1.839,2.758,1.954,2.873c.115.172.115.172,3.1.172C58.779,43.725,60.158,43.725,60.215,43.667ZM66.248,72.4c-.4-.172-1.264-.632-2.068-1.034-.747-.4-1.551-.862-1.781-.977s-.8-.4-1.207-.632a11.44,11.44,0,0,1-1.264-.689c-.287-.115-1.149-.575-1.954-.977s-2.413-1.264-3.62-1.9-2.528-1.322-3.045-1.609c-.517-.23-1.264-.632-1.724-.862a13.114,13.114,0,0,0-1.207-.632c-.172-.115-.345-.23-.345-.287a5.62,5.62,0,0,1,.689-1.034c.4-.575.8-1.149.862-1.264.8-1.092,3.907-5.516,4.424-6.32.4-.517,1.092-1.551,1.609-2.241s.919-1.264.919-1.264a1.782,1.782,0,0,1,.4.689c.172.345.4.862.517,1.149s.46.977.8,1.609c1.781,3.85,2.413,5.056,2.988,6.435.919,1.9,1.092,2.183,2.126,4.424.517,1.034.977,2.068,1.092,2.3.115.172.46.919.8,1.666.345.689.689,1.436.8,1.666s.345.8.575,1.207a8.115,8.115,0,0,1,.345.862v.057h-.057A6.9,6.9,0,0,1,66.248,72.4ZM15.054,67.684a1.724,1.724,0,0,1,0-2.068c.115-.172.172-.172.46-.172a.476.476,0,0,1,.46.172,1.317,1.317,0,0,1,.287,1.034c0,.747-.287,1.207-.8,1.207A.447.447,0,0,1,15.054,67.684ZM6.435,66.018V65.5h.46c.4,0,.46,0,.632.172a.568.568,0,0,1-.115.8,4.455,4.455,0,0,1-.517.057h-.46Zm4.137,0V65.5h.46c.632,0,.8.115.8.46,0,.4-.23.517-.8.517h-.46Zm8.733,0V65.5h.4c.517,0,.632,0,.747.23a.538.538,0,0,1-.115.632c-.115.172-.115.172-.575.172h-.46Zm8.159.4V65.9l.057-.345.46-.057c.46,0,.517,0,.689.115a.473.473,0,0,1-.057.689c-.172.172-.172.172-.632.172h-.46Z" transform="translate(3.068 12.148)" fill="#e5e1de"/>
      <path id="path-6" data-name="path" d="M0,43.955V0H90.782V87.852H0ZM81.359,80.382h.115v-.115a1.768,1.768,0,0,0-.23-.517c-.632-1.034-1.149-1.9-1.207-2.011-.115-.172-1.494-2.471-1.839-3.045-.115-.115-.287-.517-.517-.862s-.689-1.092-1.092-1.724c-.345-.632-.862-1.494-1.149-1.9-.23-.4-.747-1.322-1.149-1.954s-1.149-1.9-1.724-2.815q-2.241-3.706-2.413-3.965c-.057-.115-.23-.4-.4-.689-.575-.919-.8-1.264-1.724-2.815-.115-.23-.517-.862-.862-1.436s-.689-1.092-.747-1.207a9.664,9.664,0,0,1-.575-1.034c-.287-.46-.575-.862-.575-.919a2.583,2.583,0,0,1-.345-.517,3.655,3.655,0,0,0-.345-.575,2.559,2.559,0,0,0-.287-.46c-.115-.23-.517-.919-.919-1.551s-.747-1.264-.862-1.379l-.172-.345c-.919-1.494-2.068-3.333-2.126-3.333-.115-.057-1.494-.057-3.1-.057-2.815,0-2.988,0-3.1.115a3.336,3.336,0,0,0-.46.689c-1.092,1.609-4.079,6.033-5.286,7.757-.345.517-1.034,1.551-1.494,2.3-.517.747-1.149,1.666-1.436,2.068-1.264,1.839-3.045,4.539-3.045,4.6l-.057.115.057.057a4.292,4.292,0,0,0,.689.4c.345.23,1.9,1.207,3.562,2.183,3.677,2.3,5.631,3.5,6.895,4.252.575.345,1.839,1.149,2.93,1.781,1.034.632,2.3,1.436,2.873,1.781s1.379.8,1.781,1.092,1.322.8,1.954,1.207c.632.345,1.551.977,2.126,1.322.575.287,1.264.747,1.666.977.345.23,1.034.632,1.551.919a11.788,11.788,0,0,0,1.494.919,4.89,4.89,0,0,1,.747.575c.172.172.172.172,5.458.172C78.889,80.44,81.359,80.44,81.359,80.382Zm-65.5-12.066c1.149-.345,1.379-2.528.287-3.16-.23-.172-.287-.172-.689-.172a.761.761,0,0,0-.632.172,1.611,1.611,0,0,0-.689,1.609C14.192,67.914,14.939,68.6,15.858,68.316Zm27.637-.057a1.121,1.121,0,0,0,.517-1.207c-.115-.4-.517-.632-1.264-.8-.517-.057-.747-.345-.46-.632a.8.8,0,0,1,1.149.23l.057.115h.172l.23-.057v-.172c0-.287-.4-.632-.747-.747a1.394,1.394,0,0,0-1.379.345.983.983,0,0,0-.057.977c.115.287.4.4.977.575a1.824,1.824,0,0,1,.632.23c.23.23.057.632-.345.747a1.007,1.007,0,0,1-1.034-.575l-.057-.057h-.172l-.23.057V67.4a1.334,1.334,0,0,0,.46.747A2.086,2.086,0,0,0,43.495,68.259Zm-37.06,0a1.455,1.455,0,0,0,.057-.632v-.575H7.01a1.262,1.262,0,0,0,1.034-.46A.983.983,0,0,0,7.7,65.156c-.172-.115-.287-.115-.977-.115H5.976l-.057,1.551v1.666l.057.057h.172A2.488,2.488,0,0,0,6.435,68.259Zm4.079,0c.057,0,.057-.23.057-.689l.057-.575.287-.057c.172,0,.345,0,.345.057.057,0,.172.345.345.689l.287.632h.46l.057-.115a7.335,7.335,0,0,0-.23-.747l-.287-.575.172-.172A.968.968,0,0,0,12.3,65.5c-.23-.4-.4-.46-1.322-.517a2.857,2.857,0,0,0-.919.057A5.929,5.929,0,0,0,10,66.65a7.071,7.071,0,0,0,.057,1.609A.634.634,0,0,0,10.515,68.259Zm8.791,0a1.455,1.455,0,0,0,.057-.632v-.575h.517a1.262,1.262,0,0,0,1.034-.46.983.983,0,0,0-.345-1.436c-.172-.115-.287-.115-.977-.115h-.747l-.057,1.551v1.666l.057.057h.172A2.488,2.488,0,0,0,19.306,68.259Zm5.746,0a.431.431,0,0,0,.057-.287v-.115l-.8-.057h-.8V66.88l.575-.057h.632v-.46H23.5v-.8l.747-.057h.8v-.23c0-.115,0-.23-.057-.23a8.306,8.306,0,0,0-2.068,0,15.058,15.058,0,0,0,0,3.218A8.772,8.772,0,0,0,25.051,68.259Zm2.413,0c.057-.057.057-.287.057-.689v-.632h.345c.345.057.345.057.575.575.345.8.345.747.632.8h.23l.057-.057a3.356,3.356,0,0,0-.287-.747l-.23-.632.172-.23a.875.875,0,0,0,.057-1.322c-.23-.287-.46-.345-1.379-.345L27,65.041l-.057,1.551A6.259,6.259,0,0,0,27,68.259.634.634,0,0,0,27.464,68.259Zm4.884,0a4.7,4.7,0,0,0,.057-1.379l.057-1.322.115-.057h.689v-.46H31.027l-.057.115a.256.256,0,0,0,0,.287V65.5h.4l.46.057V66.88c0,1.436,0,1.436.287,1.436A.345.345,0,0,0,32.348,68.259Zm3.16,0h.115V65.041l-.115-.057h-.287l-.172.057v3.218h.057A.486.486,0,0,0,35.508,68.259Zm4.367,0a.629.629,0,0,0,0-.46h-.632a2.171,2.171,0,0,1-.689-.057h-.23v-.23a.629.629,0,0,1,0-.46v-.23H39.53v-.46h-.575c-.46,0-.575-.057-.632-.115a1.18,1.18,0,0,1,0-.632s.345-.057.8-.115h.747v-.46l-.115-.057H38.726l-.919.057-.057,1.551v1.666l.057.057h.977A3.6,3.6,0,0,0,39.875,68.259ZM33.67,63.6a8.893,8.893,0,0,0,5-3.045,6.906,6.906,0,0,0,1.149-1.724,8.012,8.012,0,0,0,.862-3.62c.057-1.609.057-28.786,0-28.9s-.172-.115-2.93-.115a21.7,21.7,0,0,0-2.988.057c-.057.057-.057,3.39-.057,14.537,0,15.916,0,14.766-.345,15.456a3.643,3.643,0,0,1-1.322,1.322,3.176,3.176,0,0,1-3.735-.689,4.793,4.793,0,0,1-.46-.689c-.345-.747-.345.345-.345-15.513V26.258h-.115c-.115-.057-5.286-.057-5.4,0h-.115V40.852c0,14.709,0,15.054.23,16.031a7.5,7.5,0,0,0,1.379,3.1A9.248,9.248,0,0,0,26.43,62a8.726,8.726,0,0,0,3.792,1.666A22.9,22.9,0,0,0,33.67,63.6ZM20.857,60.5V57.629h-9.6V26.258h-.115c-.115-.057-5.4-.057-5.516,0H5.516v18.5c0,10.17,0,18.5.057,18.5,0,.057,3.447.057,7.642.057h7.642ZM60.272,43.61c.115-.115.345-.517,2.413-3.907,2.068-3.447,3.907-6.435,4.309-7.067.23-.4.689-1.149,1.034-1.781a17.176,17.176,0,0,0,.977-1.609c.172-.287.632-.977,1.034-1.609.345-.632.862-1.494,1.092-1.9.517-.8,2.815-4.6,4.769-7.814.632-1.092,1.322-2.126,1.436-2.413.172-.287,1.034-1.666,1.9-3.045s1.724-2.815,1.9-3.16a3.574,3.574,0,0,0,.345-.689l-.057-.057h-5.4c-5.343,0-5.343,0-5.746.8-.172.4-.575,1.207-.8,1.781-.287.517-.747,1.494-1.034,2.183a11.033,11.033,0,0,0-.747,1.609c-.115.172-.46.919-.8,1.666-.345.689-.747,1.494-.862,1.781-.517,1.092-1.839,3.85-2.356,5-1.781,3.735-2.815,5.918-3.275,6.837-.287.575-.747,1.609-1.092,2.3s-.8,1.724-1.092,2.356c-1.034,2.183-1.264,2.586-1.436,2.988l-.23.4-1.781-2.586c-1.781-2.528-2.643-3.735-5.286-7.469-.747-1.034-1.379-2.011-1.436-2.068-.115-.115-.115-.115-2.93-.115l-2.758.057-.057.057a8.188,8.188,0,0,0,.8,1.264c1.436,2.126,2.068,3.045,3.218,4.884.689.977,1.494,2.126,1.839,2.643.287.46,1.322,1.954,2.241,3.333,4.137,6.148,3.275,5.458,6.722,5.458C59.985,43.725,60.215,43.725,60.272,43.61Zm5.056,28.269c-3.907-2.068-7.929-4.194-8.389-4.424-.287-.172-1.954-1.034-3.735-1.954-4.941-2.528-5.114-2.643-5.114-2.7,0,0,.172-.23.345-.517a5.3,5.3,0,0,1,.517-.747,4.663,4.663,0,0,1,.345-.46c.057-.115.287-.4.46-.632a14.447,14.447,0,0,1,.8-1.207c.287-.4.977-1.322,1.436-2.011.517-.747,1.034-1.551,1.264-1.839s.575-.8.862-1.207c.23-.345.689-.977.977-1.436.287-.4.747-.977.977-1.322s.46-.632.46-.632H56.6l.345.747c.517,1.092,1.092,2.356,1.379,2.873.4.862,1.207,2.586,1.494,3.218.172.287.517,1.034.8,1.609.23.575.747,1.609,1.034,2.3,1.034,2.068,1.207,2.471,1.609,3.333.23.46.575,1.264.862,1.781.23.517.517,1.092.632,1.322a6.987,6.987,0,0,0,.46.977c.115.287.287.689.4.919a12.847,12.847,0,0,1,.575,1.207,10.227,10.227,0,0,1,.575,1.207l.172.345H66.88C66.823,72.626,66.133,72.281,65.329,71.879ZM15.284,67.8a.687.687,0,0,1-.4-.4,2.222,2.222,0,0,1,0-1.494.646.646,0,0,1,.977-.345A1.672,1.672,0,0,1,15.8,67.8.8.8,0,0,1,15.284,67.8ZM6.493,66.018V65.5h.345c.46,0,.632.057.747.287a.634.634,0,0,1,0,.46c-.115.23-.287.287-.747.287H6.493Zm4.079.4V65.9l.057-.345h.46c.4,0,.46,0,.632.115.115.172.172.345,0,.517-.115.23-.172.23-.689.287h-.4Zm8.791-.4V65.5h.345c.46,0,.632.057.747.287a.491.491,0,0,1,0,.4c-.115.23-.287.345-.747.345h-.345Zm8.216.4a2.473,2.473,0,0,1,0-.919,2.186,2.186,0,0,1,1.034.172.446.446,0,0,1,0,.632c-.115.115-.23.115-.575.172C27.809,66.478,27.579,66.478,27.579,66.42Z" transform="translate(3.068 12.148)" fill="#fff"/>
      <rect id="path-7" data-name="path" width="7" height="94" transform="translate(0 6)" fill="#fff"/>
      <rect id="path-8" data-name="path" width="7" height="94" transform="translate(87 6)" fill="#fff"/>
      <rect id="path-9" data-name="path" width="86" height="7" transform="translate(5 10)" fill="#fff"/>
    </g>
  </g>
</svg>
